# Blender v3.6.0 OBJ File: 'StandardOBJ.blend'
# www.blender.org
mtllib Banner_2_Cloth.mtl
o Banner_2_Cloth_Cube.225
v -0.407879 -0.000000 -0.000000
v 0.402288 -0.000000 -0.000000
v -0.002795 -0.000000 -0.000000
v -0.002795 -1.931271 -0.000000
v -0.181225 -0.000000 -0.000000
v 0.188212 -0.000000 -0.000000
v -0.092010 -0.000000 -0.000000
v 0.092708 -0.000000 -0.000000
v 0.295250 -0.000000 -0.000000
v -0.294552 -0.000000 -0.000000
v 0.402288 -0.313403 -0.000000
v -0.407879 -0.313403 -0.000000
v 0.092708 -0.313403 -0.000000
v 0.092708 -1.617867 -0.000000
v -0.294552 -0.313403 -0.000000
v -0.181225 -0.313403 -0.000000
v -0.181225 -1.617867 -0.000000
v 0.188212 -1.617867 -0.000000
v 0.188212 -0.313403 -0.000000
v -0.002795 -1.617867 -0.000000
v -0.002795 -0.313403 -0.000000
v -0.092010 -0.313403 -0.000000
v -0.092010 -1.617867 -0.000000
v 0.295250 -0.313403 -0.000000
v -0.181225 -1.622221 -0.000000
v -0.294552 -1.425933 -0.000000
v -0.092010 -1.776746 -0.000000
v -0.407879 -1.229645 -0.000000
v -0.183739 -1.617867 -0.000000
v 0.188212 -1.600435 -0.000000
v 0.092708 -1.765853 -0.000000
v 0.178148 -1.617867 -0.000000
v 0.402288 -1.229645 -0.000000
v 0.295251 -1.415040 -0.000000
v -0.350855 -0.106952 0.022766
v -0.351193 -0.111403 -0.033427
v -0.335940 -0.100774 0.022586
v -0.333131 -0.103922 -0.033645
v -0.329762 -0.085859 0.022512
v -0.325650 -0.085859 -0.033735
v -0.335940 -0.070944 0.022586
v -0.333131 -0.067796 -0.033645
v -0.350855 -0.064766 0.022766
v -0.351193 -0.060314 -0.033427
v -0.365769 -0.070944 0.022946
v -0.369255 -0.067796 -0.033209
v -0.371947 -0.085859 0.023020
v -0.376737 -0.085859 -0.033119
v -0.365769 -0.100774 0.022946
v -0.369255 -0.103922 -0.033209
v -0.350927 -0.111924 0.010657
v -0.332497 -0.104290 0.010435
v -0.324863 -0.085859 0.010343
v -0.332497 -0.067428 0.010435
v -0.350927 -0.059794 0.010657
v -0.369358 -0.067428 0.010879
v -0.376992 -0.085859 0.010971
v -0.369358 -0.104290 0.010879
v 0.348311 -0.091646 0.022766
v 0.352489 -0.093220 -0.033427
v 0.346566 -0.075597 0.022586
v 0.350376 -0.073784 -0.033645
v 0.333984 -0.065483 0.022512
v 0.335138 -0.061535 -0.033735
v 0.317935 -0.067227 0.022586
v 0.315701 -0.063648 -0.033645
v 0.307820 -0.079809 0.022766
v 0.303452 -0.078885 -0.033427
v 0.309565 -0.095858 0.022946
v 0.305566 -0.098321 -0.033209
v 0.322148 -0.105972 0.023020
v 0.320804 -0.110570 -0.033119
v 0.338197 -0.104228 0.022946
v 0.340240 -0.108457 -0.033209
v 0.353064 -0.093111 0.010657
v 0.350907 -0.073279 0.010435
v 0.335359 -0.060780 0.010343
v 0.315526 -0.062936 0.010435
v 0.303027 -0.078484 0.010657
v 0.305184 -0.098316 0.010879
v 0.320732 -0.110815 0.010971
v 0.340565 -0.108659 0.010879
vt 0.909447 0.795966
vt 0.917526 0.792502
vt 0.918778 0.818004
vt 0.910002 0.814674
vt 0.900660 0.837625
vt 0.897208 0.829093
vt 0.874915 0.838403
vt 0.878188 0.829888
vt 0.854798 0.820563
vt 0.863655 0.816712
vt 0.854798 0.792746
vt 0.863466 0.796762
vt 0.874128 0.774197
vt 0.877117 0.782940
vt 0.899960 0.774995
vt 0.896124 0.783163
vt 0.901367 0.799431
vt 0.901226 0.811344
vt 0.893756 0.820560
vt 0.881460 0.821373
vt 0.872512 0.812862
vt 0.872134 0.800778
vt 0.880106 0.791683
vt 0.892288 0.791330
vt 0.909447 0.795966
vt 0.917526 0.792502
vt 0.918778 0.818004
vt 0.910002 0.814674
vt 0.900660 0.837625
vt 0.897208 0.829093
vt 0.874915 0.838403
vt 0.878188 0.829888
vt 0.854798 0.820563
vt 0.863655 0.816712
vt 0.854798 0.792746
vt 0.863466 0.796762
vt 0.874128 0.774197
vt 0.877117 0.782940
vt 0.899960 0.774995
vt 0.896124 0.783163
vt 0.901367 0.799431
vt 0.901226 0.811344
vt 0.893756 0.820560
vt 0.881460 0.821373
vt 0.872512 0.812862
vt 0.872134 0.800778
vt 0.880106 0.791683
vt 0.892288 0.791330
vt 0.172247 0.997093
vt 0.172247 0.944425
vt 0.199865 0.944425
vt 0.199865 0.997093
vt 0.047688 0.997093
vt 0.047688 0.944425
vt 0.076927 0.944425
vt 0.076927 0.997093
vt 0.099946 0.944425
vt 0.099946 0.997093
vt 0.147606 0.997093
vt 0.147606 0.944425
vt 0.018448 0.997093
vt 0.018448 0.944425
vt 0.099946 0.725207
vt 0.099946 0.698507
vt 0.122965 0.672538
vt 0.122965 0.725207
vt 0.076927 0.725207
vt 0.076927 0.724475
vt 0.122965 0.944425
vt 0.122965 0.997093
vt 0.227482 0.944425
vt 0.199865 0.759292
vt 0.227482 0.790448
vt 0.018448 0.790448
vt 0.047688 0.757462
vt 0.147606 0.725207
vt 0.169651 0.725207
vt 0.172247 0.728136
vt 0.227482 0.997093
vt 0.076279 0.725207
vt 0.147606 0.700337
vt 0.172247 0.725207
vn 0.0019 -0.9838 0.1794
vn 0.0013 -0.9999 -0.0118
vn 0.7077 -0.7064 -0.0161
vn 0.6972 -0.6953 0.1747
vn 0.9998 -0.0000 -0.0178
vn 0.9850 0.0000 0.1728
vn 0.7077 0.7064 -0.0161
vn 0.6972 0.6953 0.1747
vn 0.0013 0.9999 -0.0118
vn 0.0019 0.9838 0.1794
vn -0.7064 0.7078 -0.0076
vn -0.6940 0.6960 0.1841
vn -1.0000 0.0000 -0.0058
vn -0.9826 0.0000 0.1860
vn -0.7064 -0.7078 -0.0076
vn -0.6940 -0.6960 0.1841
vn 0.0083 -0.6386 0.7695
vn 0.4593 -0.4510 0.7653
vn 0.6457 -0.0000 0.7636
vn 0.4593 0.4510 0.7653
vn 0.0083 0.6386 0.7695
vn -0.4438 0.4521 0.7737
vn -0.6314 -0.0000 0.7755
vn -0.4438 -0.4521 0.7737
vn 0.9448 -0.2742 0.1794
vn 0.9601 -0.2793 -0.0118
vn 0.8765 0.4811 -0.0161
vn 0.8630 0.4741 0.1747
vn 0.2805 0.9597 -0.0178
vn 0.2764 0.9454 0.1728
vn -0.4794 0.8774 -0.0161
vn -0.4717 0.8643 0.1747
vn -0.9594 0.2818 -0.0118
vn -0.9437 0.2779 0.1794
vn -0.8775 -0.4794 -0.0076
vn -0.8628 -0.4709 0.1841
vn -0.2806 -0.9598 -0.0058
vn -0.2757 -0.9431 0.1860
vn 0.4811 -0.8766 -0.0076
vn 0.4733 -0.8615 0.1841
vn 0.6152 -0.1712 0.7695
vn 0.5617 0.3143 0.7653
vn 0.1812 0.6198 0.7636
vn -0.3040 0.5674 0.7653
vn -0.6106 0.1871 0.7695
vn -0.5584 -0.2991 0.7737
vn -0.1771 -0.6060 0.7755
vn 0.3094 -0.5528 0.7737
vn 0.0000 -0.0000 1.0000
usemtl MI_Trim_Metal
s 23
f 51/1/1 36/2/2 38/3/3 52/4/4
f 52/4/4 38/3/3 40/5/5 53/6/6
f 53/6/6 40/5/5 42/7/7 54/8/8
f 54/8/8 42/7/7 44/9/9 55/10/10
f 55/10/10 44/9/9 46/11/11 56/12/12
f 56/12/12 46/11/11 48/13/13 57/14/14
f 57/14/14 48/13/13 50/15/15 58/16/16
f 58/16/16 50/15/15 36/2/2 51/1/1
f 35/17/17 37/18/18 39/19/19 41/20/20 43/21/21 45/22/22 47/23/23 49/24/24
f 49/24/24 58/16/16 51/1/1 35/17/17
f 47/23/23 57/14/14 58/16/16 49/24/24
f 45/22/22 56/12/12 57/14/14 47/23/23
f 43/21/21 55/10/10 56/12/12 45/22/22
f 41/20/20 54/8/8 55/10/10 43/21/21
f 39/19/19 53/6/6 54/8/8 41/20/20
f 37/18/18 52/4/4 53/6/6 39/19/19
f 35/17/17 51/1/1 52/4/4 37/18/18
s 24
f 75/25/25 60/26/26 62/27/27 76/28/28
f 76/28/28 62/27/27 64/29/29 77/30/30
f 77/30/30 64/29/29 66/31/31 78/32/32
f 78/32/32 66/31/31 68/33/33 79/34/34
f 79/34/34 68/33/33 70/35/35 80/36/36
f 80/36/36 70/35/35 72/37/37 81/38/38
f 81/38/38 72/37/37 74/39/39 82/40/40
f 82/40/40 74/39/39 60/26/26 75/25/25
f 59/41/41 61/42/42 63/43/43 65/44/44 67/45/45 69/46/46 71/47/47 73/48/48
f 73/48/48 82/40/40 75/25/25 59/41/41
f 71/47/47 81/38/38 82/40/40 73/48/48
f 69/46/46 80/36/36 81/38/38 71/47/47
f 67/45/45 79/34/34 80/36/36 69/46/46
f 65/44/44 78/32/32 79/34/34 67/45/45
f 63/43/43 77/30/30 78/32/32 65/44/44
f 61/42/42 76/28/28 77/30/30 63/43/43
f 59/41/41 75/25/25 76/28/28 61/42/42
usemtl MI_Banner
s off
f 6/49/49 19/50/49 24/51/49 9/52/49
f 10/53/49 15/54/49 16/55/49 5/56/49
f 5/56/49 16/55/49 22/57/49 7/58/49
f 19/50/49 6/49/49 8/59/49 13/60/49
f 15/54/49 10/53/49 1/61/49 12/62/49
f 23/63/49 27/64/49 4/65/49 20/66/49
f 17/67/49 25/68/49 27/64/49 23/63/49
f 7/58/49 22/57/49 21/69/49 3/70/49
f 13/60/49 8/59/49 3/70/49 21/69/49
f 11/71/49 24/51/49 34/72/49 33/73/49
f 15/54/49 12/62/49 28/74/49 26/75/49
f 23/63/49 20/66/49 21/69/49 22/57/49
f 17/67/49 23/63/49 22/57/49 16/55/49
f 19/50/49 13/60/49 14/76/49 32/77/49 30/78/49
f 13/60/49 21/69/49 20/66/49 14/76/49
f 24/51/49 11/71/49 2/79/49 9/52/49
f 26/75/49 29/80/49 17/67/49 16/55/49 15/54/49
f 29/80/49 25/68/49 17/67/49
f 4/65/49 31/81/49 14/76/49 20/66/49
f 30/78/49 34/72/49 24/51/49 19/50/49
f 31/81/49 32/77/49 14/76/49
f 30/78/49 32/77/49 18/82/49
