# Blender v3.6.0 OBJ File: 'StandardOBJ.blend'
# www.blender.org
mtllib BookGroup_Small_1.mtl
o BookGroup_Small_1_Cube.146
v 0.109872 0.293600 0.068882
v 0.069101 0.293717 0.069116
v 0.109093 0.293397 -0.120819
v 0.068322 0.293514 -0.120584
v 0.115403 -0.000778 0.077661
v 0.061656 -0.000517 0.077970
v 0.062647 0.293744 0.077446
v 0.116394 0.293590 0.077137
v 0.115581 0.293378 -0.120856
v 0.061833 0.293533 -0.120547
v 0.114590 -0.001135 -0.120332
v 0.060843 -0.000874 -0.120023
v 0.076253 -0.000588 0.089665
v 0.100755 -0.000707 0.089559
v 0.077205 0.293703 0.089115
v 0.101784 0.293632 0.089009
v 0.077095 0.293694 0.076234
v 0.101826 0.293623 0.076126
v 0.101102 0.293420 -0.120773
v 0.076323 0.293491 -0.120630
v 0.054320 0.282530 0.068882
v 0.013549 0.282647 0.069116
v 0.053541 0.282327 -0.120819
v 0.012770 0.282444 -0.120584
v 0.059852 -0.000778 0.077661
v 0.006104 -0.000517 0.077970
v 0.007095 0.282674 0.077446
v 0.060843 0.282520 0.077137
v 0.060030 0.282308 -0.120856
v 0.006282 0.282463 -0.120547
v 0.059039 -0.001135 -0.120332
v 0.005291 -0.000874 -0.120023
v 0.020701 -0.000588 0.089665
v 0.045203 -0.000707 0.089559
v 0.021653 0.282633 0.089115
v 0.046232 0.282562 0.089009
v 0.021544 0.282624 0.076234
v 0.046274 0.282553 0.076126
v 0.045550 0.282350 -0.120773
v 0.020771 0.282421 -0.120630
v 0.000466 0.273697 0.068882
v -0.056257 0.273814 0.069116
v -0.000617 0.273494 -0.120819
v -0.057341 0.273611 -0.120584
v 0.008162 -0.000778 0.077661
v -0.066615 -0.000517 0.077970
v -0.065237 0.273842 0.077446
v 0.009541 0.273687 0.077137
v 0.008409 0.273475 -0.120856
v -0.066368 0.273630 -0.120547
v 0.007031 -0.001135 -0.120332
v -0.067747 -0.000874 -0.120023
v -0.046307 -0.000588 0.089665
v -0.012218 -0.000707 0.089559
v -0.044982 0.273800 0.089115
v -0.010787 0.273729 0.089009
v -0.045135 0.273791 0.076234
v -0.010728 0.273720 0.076126
v -0.011735 0.273517 -0.120773
v -0.046209 0.273588 -0.120630
v -0.075852 0.264744 0.083948
v -0.123590 0.271922 0.084182
v -0.076794 0.264678 -0.105753
v -0.124533 0.271856 -0.105519
v -0.109018 -0.004303 0.092727
v -0.171934 0.005264 0.093036
v -0.131146 0.273067 0.092512
v -0.068214 0.263604 0.092203
v -0.069198 0.263536 -0.105790
v -0.132129 0.272998 -0.105481
v -0.110022 -0.004516 -0.105266
v -0.172939 0.005052 -0.104957
v -0.154847 0.002666 0.104731
v -0.126165 -0.001695 0.104625
v -0.114100 0.270504 0.104181
v -0.085321 0.266177 0.104075
v -0.114230 0.270514 0.091300
v -0.085274 0.266160 0.091192
v -0.086151 0.266085 -0.105707
v -0.115164 0.270447 -0.105565
vt 0.251102 0.816326
vt 0.251102 0.595518
vt 0.396460 0.595518
vt 0.396460 0.816326
vt 0.396460 0.816326
vt 0.396460 0.595518
vt 0.251102 0.595518
vt 0.251102 0.816326
vt 0.621064 0.568622
vt 0.621064 0.591255
vt 0.955052 0.591255
vt 0.955052 0.568622
vt 0.148993 0.568622
vt 0.148993 0.591255
vt 0.482981 0.591255
vt 0.482981 0.568622
vt 0.520382 0.591255
vt 0.510057 0.568622
vt 0.201530 0.595588
vt 0.201530 0.816288
vt 0.214488 0.816288
vt 0.214454 0.595588
vt 0.583528 0.591255
vt 0.593813 0.568622
vt 0.289956 0.912233
vt 0.289956 0.929576
vt 0.604326 0.929696
vt 0.604326 0.912233
vt 0.289956 0.983353
vt 0.289956 1.000717
vt 0.604326 1.000717
vt 0.604326 0.983367
vt 0.236274 0.595588
vt 0.236240 0.816288
vt 0.249245 0.816288
vt 0.249245 0.595588
vt 0.650646 0.816326
vt 0.650646 0.595518
vt 0.796003 0.595518
vt 0.796003 0.816326
vt 0.796003 0.816326
vt 0.796003 0.595518
vt 0.650646 0.595518
vt 0.650646 0.816326
vt 0.621064 0.568622
vt 0.621064 0.591255
vt 0.955052 0.591255
vt 0.955052 0.568622
vt 0.148993 0.568622
vt 0.148993 0.591255
vt 0.482981 0.591255
vt 0.482981 0.568622
vt 0.520382 0.591255
vt 0.510057 0.568622
vt 0.601073 0.595588
vt 0.601073 0.816288
vt 0.614032 0.816288
vt 0.613998 0.595588
vt 0.583528 0.591255
vt 0.593813 0.568622
vt 0.289956 0.912233
vt 0.289956 0.929576
vt 0.604326 0.929696
vt 0.604326 0.912233
vt 0.289956 0.983353
vt 0.289956 1.000717
vt 0.604326 1.000717
vt 0.604326 0.983367
vt 0.635818 0.595588
vt 0.635784 0.816288
vt 0.648788 0.816288
vt 0.648788 0.595588
vt 0.050964 0.816326
vt 0.050964 0.595518
vt 0.196321 0.595518
vt 0.196321 0.816326
vt 0.196321 0.816326
vt 0.196321 0.595518
vt 0.050964 0.595518
vt 0.050964 0.816326
vt 0.621064 0.568622
vt 0.621064 0.591255
vt 0.955052 0.591255
vt 0.955052 0.568622
vt 0.148993 0.568622
vt 0.148993 0.591255
vt 0.482981 0.591255
vt 0.482981 0.568622
vt 0.520382 0.591255
vt 0.510057 0.568622
vt 0.001392 0.595588
vt 0.001392 0.816288
vt 0.014350 0.816288
vt 0.014316 0.595588
vt 0.583528 0.591255
vt 0.593813 0.568622
vt 0.289956 0.912233
vt 0.289956 0.929576
vt 0.604326 0.929696
vt 0.604326 0.912233
vt 0.289956 0.983353
vt 0.289956 1.000717
vt 0.604326 1.000717
vt 0.604326 0.983367
vt 0.036136 0.595588
vt 0.036102 0.816288
vt 0.049107 0.816288
vt 0.049106 0.595588
vt 0.251102 0.816326
vt 0.251102 0.595518
vt 0.396460 0.595518
vt 0.396460 0.816326
vt 0.396460 0.816326
vt 0.396460 0.595518
vt 0.251102 0.595518
vt 0.251102 0.816326
vt 0.621064 0.568622
vt 0.621064 0.591255
vt 0.955052 0.591255
vt 0.955052 0.568622
vt 0.148993 0.568622
vt 0.148993 0.591255
vt 0.482981 0.591255
vt 0.482981 0.568622
vt 0.520382 0.591255
vt 0.510057 0.568622
vt 0.201530 0.595588
vt 0.201530 0.816288
vt 0.214488 0.816288
vt 0.214454 0.595588
vt 0.583528 0.591255
vt 0.593813 0.568622
vt 0.289956 0.912233
vt 0.289956 0.929576
vt 0.604326 0.929696
vt 0.604326 0.912233
vt 0.289956 0.983353
vt 0.289956 1.000717
vt 0.604326 1.000717
vt 0.604326 0.983367
vt 0.236274 0.595588
vt 0.236240 0.816288
vt 0.249245 0.816288
vt 0.249245 0.595588
vn 1.0000 -0.0034 -0.0041
vn -1.0000 0.0034 0.0041
vn 0.0026 1.0000 -0.0010
vn 0.0025 1.0000 -0.0008
vn 0.0029 1.0000 -0.0011
vn 0.0026 1.0000 -0.0011
vn 0.0031 1.0000 -0.0011
vn 0.0033 1.0000 -0.0008
vn 0.0032 1.0000 -0.0010
vn 0.0031 1.0000 -0.0007
vn 0.0031 1.0000 -0.0008
vn -0.6253 0.0035 0.7804
vn -0.3289 0.0028 0.9444
vn -0.3294 0.0028 0.9442
vn 0.0027 1.0000 -0.0007
vn 0.0026 1.0000 -0.0008
vn 0.3368 0.0006 0.9416
vn 0.3367 0.0006 0.9416
vn 0.6305 -0.0007 0.7762
vn 1.0000 -0.0035 -0.0041
vn -1.0000 0.0035 0.0041
vn -0.6253 0.0036 0.7804
vn -0.3289 0.0029 0.9443
vn -0.3294 0.0029 0.9442
vn 0.6305 -0.0008 0.7762
vn 1.0000 -0.0050 -0.0057
vn -1.0000 0.0050 0.0057
vn 0.0018 1.0000 -0.0010
vn 0.0018 1.0000 -0.0008
vn 0.0021 1.0000 -0.0011
vn 0.0019 1.0000 -0.0011
vn 0.0022 1.0000 -0.0011
vn 0.0023 1.0000 -0.0008
vn 0.0023 1.0000 -0.0010
vn 0.0022 1.0000 -0.0007
vn -0.4991 0.0042 0.8665
vn -0.2569 0.0032 0.9664
vn -0.2565 0.0032 0.9665
vn 0.0019 1.0000 -0.0007
vn 0.0019 1.0000 -0.0008
vn 0.2633 0.0006 0.9647
vn 0.2623 0.0006 0.9650
vn 0.5042 -0.0009 0.8636
vn 0.9886 -0.1506 -0.0049
vn -0.9886 0.1506 0.0049
vn 0.1484 0.9889 -0.0010
vn 0.1484 0.9889 -0.0008
vn 0.1487 0.9889 -0.0011
vn 0.1485 0.9889 -0.0011
vn 0.1489 0.9889 -0.0011
vn 0.1490 0.9888 -0.0008
vn 0.1489 0.9888 -0.0010
vn 0.1489 0.9889 -0.0007
vn 0.1489 0.9889 -0.0008
vn -0.5539 0.0860 0.8282
vn -0.2877 0.0457 0.9566
vn -0.2876 0.0457 0.9567
vn 0.1485 0.9889 -0.0007
vn 0.1485 0.9889 -0.0008
vn 0.2952 -0.0431 0.9545
vn 0.2946 -0.0430 0.9547
vn 0.5595 -0.0836 0.8246
usemtl MI_Trim_Props_Vertex
s 1
f 8/1/1 5/2/1 11/3/1 9/4/1
f 10/5/2 12/6/2 6/7/2 7/8/2
f 1/9/3 8/10/4 9/11/5 3/12/6
f 4/13/7 10/14/5 7/15/8 2/16/9
f 7/15/8 15/17/10 17/18/11 2/16/9
f 7/19/12 6/20/12 13/21/13 15/22/14
f 16/23/15 8/10/4 1/9/3 18/24/16
f 3/25/6 19/26/6 18/27/16 1/28/3
f 20/29/7 4/30/7 2/31/9 17/32/11
f 16/33/17 15/22/14 13/21/13 14/34/18
f 18/24/16 17/18/11 15/17/10 16/23/15
f 17/32/11 18/27/16 19/26/6 20/29/7
f 16/33/17 14/34/18 5/35/19 8/36/19
s 2
f 28/37/20 25/38/20 31/39/20 29/40/20
f 30/41/21 32/42/21 26/43/21 27/44/21
f 21/45/3 28/46/4 29/47/5 23/48/6
f 24/49/7 30/50/5 27/51/8 22/52/9
f 27/51/8 35/53/10 37/54/11 22/52/9
f 27/55/22 26/56/22 33/57/23 35/58/24
f 36/59/15 28/46/4 21/45/3 38/60/16
f 23/61/6 39/62/6 38/63/16 21/64/3
f 40/65/7 24/66/7 22/67/9 37/68/11
f 36/69/17 35/58/24 33/57/23 34/70/18
f 38/60/16 37/54/11 35/53/10 36/59/15
f 37/68/11 38/63/16 39/62/6 40/65/7
f 36/69/17 34/70/18 25/71/25 28/72/25
s 3
f 48/73/26 45/74/26 51/75/26 49/76/26
f 50/77/27 52/78/27 46/79/27 47/80/27
f 41/81/28 48/82/29 49/83/30 43/84/31
f 44/85/32 50/86/30 47/87/33 42/88/34
f 47/87/33 55/89/35 57/90/33 42/88/34
f 47/91/36 46/92/36 53/93/37 55/94/38
f 56/95/39 48/82/29 41/81/28 58/96/40
f 43/97/31 59/98/31 58/99/40 41/100/28
f 60/101/32 44/102/32 42/103/34 57/104/33
f 56/105/41 55/94/38 53/93/37 54/106/42
f 58/96/40 57/90/33 55/89/35 56/95/39
f 57/104/33 58/99/40 59/98/31 60/101/32
f 56/105/41 54/106/42 45/107/43 48/108/43
s 4
f 68/109/44 65/110/44 71/111/44 69/112/44
f 70/113/45 72/114/45 66/115/45 67/116/45
f 61/117/46 68/118/47 69/119/48 63/120/49
f 64/121/50 70/122/48 67/123/51 62/124/52
f 67/123/51 75/125/53 77/126/54 62/124/52
f 67/127/55 66/128/55 73/129/56 75/130/57
f 76/131/58 68/118/47 61/117/46 78/132/59
f 63/133/49 79/134/49 78/135/59 61/136/46
f 80/137/50 64/138/50 62/139/52 77/140/54
f 76/141/60 75/130/57 73/129/56 74/142/61
f 78/132/59 77/126/54 75/125/53 76/131/58
f 77/140/54 78/135/59 79/134/49 80/137/50
f 76/141/60 74/142/61 65/143/62 68/144/62
