# Blender v3.6.0 OBJ File: 'StandardOBJ.blend'
# www.blender.org
mtllib BookGroup_Small_2.mtl
o BookGroup_Small_2_Cube.148
v 0.116057 0.281838 0.083948
v 0.068624 0.281955 0.084182
v 0.115150 0.281635 -0.105753
v 0.067718 0.281752 -0.105519
v 0.122492 -0.000778 0.092727
v 0.059963 -0.000517 0.093036
v 0.061115 0.281983 0.092512
v 0.123644 0.281828 0.092203
v 0.122699 0.281616 -0.105790
v 0.060169 0.281771 -0.105481
v 0.121546 -0.001135 -0.105266
v 0.059017 -0.000874 -0.104957
v 0.076944 -0.000588 0.104731
v 0.105449 -0.000707 0.104625
v 0.078052 0.281941 0.104181
v 0.106647 0.281870 0.104075
v 0.077925 0.281932 0.091300
v 0.106695 0.281861 0.091192
v 0.105854 0.281658 -0.105707
v 0.077026 0.281729 -0.105565
v 0.051429 0.267424 0.068882
v 0.003996 0.267541 0.069116
v 0.050523 0.267221 -0.120819
v 0.003090 0.267338 -0.120584
v 0.057864 -0.000778 0.077661
v -0.004665 -0.000517 0.077970
v -0.003512 0.267568 0.077446
v 0.059017 0.267414 0.077137
v 0.058071 0.267202 -0.120856
v -0.004458 0.267356 -0.120547
v 0.056918 -0.001135 -0.120332
v -0.005611 -0.000874 -0.120023
v 0.012317 -0.000588 0.089665
v 0.040822 -0.000707 0.089559
v 0.013424 0.267527 0.089115
v 0.042019 0.267456 0.089009
v 0.013297 0.267518 0.076234
v 0.042068 0.267447 0.076126
v 0.041226 0.267244 -0.120773
v 0.012399 0.267315 -0.120630
v -0.009583 0.273535 0.057224
v -0.046356 0.273652 0.057459
v -0.010286 0.273332 -0.132476
v -0.047059 0.273449 -0.132242
v -0.004594 -0.000778 0.066004
v -0.053071 -0.000517 0.066313
v -0.052177 0.273680 0.065789
v -0.003700 0.273525 0.065480
v -0.004434 0.273314 -0.132514
v -0.052911 0.273468 -0.132205
v -0.005327 -0.001135 -0.131990
v -0.053804 -0.000874 -0.131681
v -0.039906 -0.000588 0.078007
v -0.017806 -0.000707 0.077902
v -0.039047 0.273638 0.077457
v -0.016878 0.273567 0.077351
v -0.039145 0.273629 0.064577
v -0.016840 0.273558 0.064469
v -0.017493 0.273355 -0.132431
v -0.039842 0.273426 -0.132288
v -0.059687 0.276072 0.057224
v -0.096460 0.276189 0.057459
v -0.060390 0.275869 -0.132476
v -0.097163 0.275986 -0.132242
v -0.054698 -0.000778 0.066004
v -0.103175 -0.000517 0.066313
v -0.102281 0.276217 0.065789
v -0.053804 0.276062 0.065480
v -0.054538 0.275850 -0.132514
v -0.103015 0.276005 -0.132205
v -0.055431 -0.001135 -0.131990
v -0.103908 -0.000874 -0.131681
v -0.090010 -0.000588 0.078007
v -0.067910 -0.000707 0.077902
v -0.089151 0.276175 0.077457
v -0.066982 0.276104 0.077351
v -0.089249 0.276166 0.064577
v -0.066944 0.276095 0.064469
v -0.067597 0.275892 -0.132431
v -0.089946 0.275963 -0.132288
vt 0.251102 0.816326
vt 0.251102 0.595518
vt 0.396460 0.595518
vt 0.396460 0.816326
vt 0.396460 0.816326
vt 0.396460 0.595518
vt 0.251102 0.595518
vt 0.251102 0.816326
vt 0.621064 0.568622
vt 0.621064 0.591255
vt 0.955052 0.591255
vt 0.955052 0.568622
vt 0.148993 0.568622
vt 0.148993 0.591255
vt 0.482981 0.591255
vt 0.482981 0.568622
vt 0.520382 0.591255
vt 0.510057 0.568622
vt 0.201530 0.595588
vt 0.201530 0.816288
vt 0.214488 0.816288
vt 0.214454 0.595588
vt 0.583528 0.591255
vt 0.593813 0.568622
vt 0.289956 0.912233
vt 0.289956 0.929576
vt 0.604326 0.929696
vt 0.604326 0.912233
vt 0.289956 0.983353
vt 0.289956 1.000717
vt 0.604326 1.000717
vt 0.604326 0.983367
vt 0.236274 0.595588
vt 0.236240 0.816288
vt 0.249245 0.816288
vt 0.249245 0.595588
vt 0.847521 0.816326
vt 0.847521 0.595518
vt 0.992878 0.595518
vt 0.992878 0.816326
vt 0.992878 0.816326
vt 0.992878 0.595518
vt 0.847521 0.595518
vt 0.847521 0.816326
vt 0.621064 0.568622
vt 0.621064 0.591255
vt 0.955052 0.591255
vt 0.955052 0.568622
vt 0.148993 0.568622
vt 0.148993 0.591255
vt 0.482981 0.591255
vt 0.482981 0.568622
vt 0.520382 0.591255
vt 0.510057 0.568622
vt 0.797948 0.595588
vt 0.797948 0.816288
vt 0.810907 0.816288
vt 0.810872 0.595588
vt 0.583528 0.591255
vt 0.593813 0.568622
vt 0.289956 0.912233
vt 0.289956 0.929576
vt 0.604326 0.929696
vt 0.604326 0.912233
vt 0.289956 0.983353
vt 0.289956 1.000717
vt 0.604326 1.000717
vt 0.604326 0.983367
vt 0.832693 0.595588
vt 0.832659 0.816288
vt 0.845663 0.816288
vt 0.845663 0.595588
vt 0.251102 0.816326
vt 0.251102 0.595518
vt 0.396460 0.595518
vt 0.396460 0.816326
vt 0.396460 0.816326
vt 0.396460 0.595518
vt 0.251102 0.595518
vt 0.251102 0.816326
vt 0.621064 0.568622
vt 0.621064 0.591255
vt 0.955052 0.591255
vt 0.955052 0.568622
vt 0.148993 0.568622
vt 0.148993 0.591255
vt 0.482981 0.591255
vt 0.482981 0.568622
vt 0.520382 0.591255
vt 0.510057 0.568622
vt 0.201530 0.595588
vt 0.201530 0.816288
vt 0.214488 0.816288
vt 0.214454 0.595588
vt 0.583528 0.591255
vt 0.593813 0.568622
vt 0.289956 0.912233
vt 0.289956 0.929576
vt 0.604326 0.929696
vt 0.604326 0.912233
vt 0.289956 0.983353
vt 0.289956 1.000717
vt 0.604326 1.000717
vt 0.604326 0.983367
vt 0.236274 0.595588
vt 0.236240 0.816288
vt 0.249245 0.816288
vt 0.249245 0.595588
vt 0.847521 0.816326
vt 0.847521 0.595518
vt 0.992878 0.595518
vt 0.992878 0.816326
vt 0.992878 0.816326
vt 0.992878 0.595518
vt 0.847521 0.595518
vt 0.847521 0.816326
vt 0.621064 0.568622
vt 0.621064 0.591255
vt 0.955052 0.591255
vt 0.955052 0.568622
vt 0.148993 0.568622
vt 0.148993 0.591255
vt 0.482981 0.591255
vt 0.482981 0.568622
vt 0.520382 0.591255
vt 0.510057 0.568622
vt 0.797948 0.595588
vt 0.797948 0.816288
vt 0.810907 0.816288
vt 0.810872 0.595588
vt 0.583528 0.591255
vt 0.593813 0.568622
vt 0.289956 0.912233
vt 0.289956 0.929576
vt 0.604326 0.929696
vt 0.604326 0.912233
vt 0.289956 0.983353
vt 0.289956 1.000717
vt 0.604326 1.000717
vt 0.604326 0.983367
vt 0.832693 0.595588
vt 0.832659 0.816288
vt 0.845663 0.816288
vt 0.845663 0.595588
vn 1.0000 -0.0041 -0.0048
vn -1.0000 0.0041 0.0048
vn 0.0022 1.0000 -0.0010
vn 0.0021 1.0000 -0.0008
vn 0.0025 1.0000 -0.0011
vn 0.0023 1.0000 -0.0011
vn 0.0027 1.0000 -0.0011
vn 0.0028 1.0000 -0.0008
vn 0.0027 1.0000 -0.0010
vn 0.0027 1.0000 -0.0007
vn 0.0027 1.0000 -0.0008
vn -0.5672 0.0038 0.8235
vn -0.2951 0.0030 0.9555
vn 0.0023 1.0000 -0.0007
vn 0.0022 1.0000 -0.0008
vn 0.3023 0.0006 0.9532
vn 0.3017 0.0006 0.9534
vn 0.5725 -0.0008 0.8199
vn 1.0000 -0.0043 -0.0048
vn -1.0000 0.0043 0.0048
vn -0.5672 0.0040 0.8235
vn -0.2951 0.0032 0.9554
vn -0.2951 0.0032 0.9555
vn 0.5725 -0.0009 0.8199
vn 0.9145 -0.0022 0.4047
vn 0.9143 -0.0022 0.4049
vn 1.0000 -0.0033 -0.0037
vn -1.0000 0.0033 0.0037
vn -0.9113 0.0038 0.4118
vn -0.9115 0.0038 0.4112
vn 0.0028 1.0000 -0.0010
vn 0.0032 1.0000 -0.0011
vn 0.0029 1.0000 -0.0011
vn 0.0034 1.0000 -0.0011
vn 0.0036 1.0000 -0.0008
vn 0.0035 1.0000 -0.0010
vn 0.0034 1.0000 -0.0007
vn 0.0035 1.0000 -0.0008
vn -0.3524 0.0030 0.9358
vn -0.3532 0.0030 0.9355
vn 0.0030 1.0000 -0.0007
vn 0.0029 1.0000 -0.0008
vn 0.3609 0.0007 0.9326
vn 0.9144 -0.0022 0.4047
vn 1.0000 -0.0032 -0.0037
vn -1.0000 0.0032 0.0037
vn -0.9113 0.0037 0.4118
vn -0.9115 0.0037 0.4112
vn 0.3609 0.0006 0.9326
usemtl MI_Trim_Props_Vertex
s 1
f 8/1/1 5/2/1 11/3/1 9/4/1
f 10/5/2 12/6/2 6/7/2 7/8/2
f 1/9/3 8/10/4 9/11/5 3/12/6
f 4/13/7 10/14/5 7/15/8 2/16/9
f 7/15/8 15/17/10 17/18/11 2/16/9
f 7/19/12 6/20/12 13/21/13 15/22/13
f 16/23/14 8/10/4 1/9/3 18/24/15
f 3/25/6 19/26/6 18/27/15 1/28/3
f 20/29/7 4/30/7 2/31/9 17/32/11
f 16/33/16 15/22/13 13/21/13 14/34/17
f 18/24/15 17/18/11 15/17/10 16/23/14
f 17/32/11 18/27/15 19/26/6 20/29/7
f 16/33/16 14/34/17 5/35/18 8/36/18
s 2
f 28/37/19 25/38/19 31/39/19 29/40/19
f 30/41/20 32/42/20 26/43/20 27/44/20
f 21/45/3 28/46/4 29/47/5 23/48/6
f 24/49/7 30/50/5 27/51/8 22/52/9
f 27/51/8 35/53/10 37/54/11 22/52/9
f 27/55/21 26/56/21 33/57/22 35/58/23
f 36/59/14 28/46/4 21/45/3 38/60/15
f 23/61/6 39/62/6 38/63/15 21/64/3
f 40/65/7 24/66/7 22/67/9 37/68/11
f 36/69/16 35/58/23 33/57/22 34/70/17
f 38/60/15 37/54/11 35/53/10 36/59/14
f 37/68/11 38/63/15 39/62/6 40/65/7
f 36/69/16 34/70/17 25/71/24 28/72/24
s 3
f 48/73/25 45/74/26 51/75/27 49/76/27
f 50/77/28 52/78/28 46/79/29 47/80/30
f 41/81/31 48/82/11 49/83/32 43/84/33
f 44/85/34 50/86/32 47/87/35 42/88/36
f 47/87/35 55/89/37 57/90/38 42/88/36
f 47/91/30 46/92/29 53/93/39 55/94/40
f 56/95/41 48/82/11 41/81/31 58/96/42
f 43/97/33 59/98/33 58/99/42 41/100/31
f 60/101/34 44/102/34 42/103/36 57/104/38
f 56/105/43 55/94/40 53/93/39 54/106/43
f 58/96/42 57/90/38 55/89/37 56/95/41
f 57/104/38 58/99/42 59/98/33 60/101/34
f 56/105/43 54/106/43 45/107/26 48/108/25
s 4
f 68/109/44 65/110/26 71/111/45 69/112/45
f 70/113/46 72/114/46 66/115/47 67/116/48
f 61/117/31 68/118/11 69/119/32 63/120/33
f 64/121/34 70/122/32 67/123/35 62/124/36
f 67/123/35 75/125/37 77/126/38 62/124/36
f 67/127/48 66/128/47 73/129/39 75/130/40
f 76/131/41 68/118/11 61/117/31 78/132/42
f 63/133/33 79/134/33 78/135/42 61/136/31
f 80/137/34 64/138/34 62/139/36 77/140/38
f 76/141/49 75/130/40 73/129/39 74/142/49
f 78/132/42 77/126/38 75/125/37 76/131/41
f 77/140/38 78/135/42 79/134/33 80/137/34
f 76/141/49 74/142/49 65/143/26 68/144/44
