# Blender v3.6.0 OBJ File: 'StandardOBJ.blend'
# www.blender.org
mtllib BookGroup_Small_3.mtl
o BookGroup_Small_3_Cube.149
v 0.133367 0.267424 0.068882
v 0.085934 0.267541 0.069116
v 0.132461 0.267221 -0.120819
v 0.085028 0.267338 -0.120584
v 0.139802 -0.000778 0.077661
v 0.077273 -0.000517 0.077970
v 0.078426 0.267568 0.077446
v 0.140955 0.267414 0.077137
v 0.140009 0.267202 -0.120856
v 0.077480 0.267356 -0.120547
v 0.138856 -0.001135 -0.120332
v 0.076327 -0.000874 -0.120023
v 0.094254 -0.000588 0.089665
v 0.122760 -0.000707 0.089559
v 0.095362 0.267527 0.089115
v 0.123957 0.267456 0.089009
v 0.095235 0.267518 0.076234
v 0.124006 0.267447 0.076126
v 0.123164 0.267244 -0.120773
v 0.094336 0.267315 -0.120630
v 0.072355 0.273535 0.057224
v 0.035582 0.273652 0.057459
v 0.071652 0.273332 -0.132476
v 0.034879 0.273449 -0.132242
v 0.077344 -0.000778 0.066004
v 0.028867 -0.000517 0.066313
v 0.029761 0.273680 0.065789
v 0.078238 0.273525 0.065480
v 0.077504 0.273314 -0.132514
v 0.029027 0.273468 -0.132205
v 0.076611 -0.001135 -0.131990
v 0.028134 -0.000874 -0.131681
v 0.042032 -0.000588 0.078007
v 0.064132 -0.000707 0.077902
v 0.042891 0.273638 0.077457
v 0.065060 0.273567 0.077351
v 0.042793 0.273629 0.064577
v 0.065098 0.273558 0.064469
v 0.064445 0.273355 -0.132431
v 0.042096 0.273426 -0.132288
v 0.022251 0.276072 0.057224
v -0.014522 0.276189 0.057459
v 0.021548 0.275869 -0.132476
v -0.015225 0.275986 -0.132242
v 0.027240 -0.000778 0.066004
v -0.021237 -0.000517 0.066313
v -0.020343 0.276217 0.065789
v 0.028134 0.276062 0.065480
v 0.027400 0.275850 -0.132514
v -0.021077 0.276005 -0.132205
v 0.026507 -0.001135 -0.131990
v -0.021970 -0.000874 -0.131681
v -0.008072 -0.000588 0.078007
v 0.014028 -0.000707 0.077902
v -0.007213 0.276175 0.077457
v 0.014956 0.276104 0.077351
v -0.007311 0.276166 0.064577
v 0.014994 0.276095 0.064469
v 0.014341 0.275892 -0.132431
v -0.008008 0.275963 -0.132288
v -0.061972 0.270226 0.083948
v -0.026080 0.270344 0.084182
v -0.061286 0.270023 -0.105753
v -0.025394 0.270141 -0.105519
v -0.066841 -0.000778 0.092727
v -0.019526 -0.000517 0.093036
v -0.020398 0.270371 0.092512
v -0.067713 0.270217 0.092203
v -0.066997 0.270005 -0.105790
v -0.019683 0.270159 -0.105481
v -0.066125 -0.001135 -0.105266
v -0.018810 -0.000874 -0.104957
v -0.032376 -0.000588 0.104731
v -0.053945 -0.000707 0.104625
v -0.033214 0.270329 0.104181
v -0.054851 0.270259 0.104075
v -0.033118 0.270321 0.091300
v -0.054888 0.270250 0.091192
v -0.054251 0.270046 -0.105707
v -0.032438 0.270118 -0.105565
v -0.099408 0.276072 0.057224
v -0.071583 0.276189 0.057459
v -0.098877 0.275869 -0.132476
v -0.071051 0.275986 -0.132242
v -0.103183 -0.000778 0.066004
v -0.066502 -0.000517 0.066313
v -0.067178 0.276217 0.065789
v -0.103860 0.276062 0.065480
v -0.103305 0.275850 -0.132514
v -0.066623 0.276005 -0.132205
v -0.102628 -0.001135 -0.131990
v -0.065947 -0.000874 -0.131681
v -0.076464 -0.000588 0.078007
v -0.093186 -0.000707 0.077902
v -0.077114 0.276175 0.077457
v -0.093888 0.276104 0.077351
v -0.077039 0.276166 0.064577
v -0.093917 0.276095 0.064469
v -0.093423 0.275892 -0.132431
v -0.076512 0.275963 -0.132288
vt 0.847521 0.816326
vt 0.847521 0.595518
vt 0.992878 0.595518
vt 0.992878 0.816326
vt 0.992878 0.816326
vt 0.992878 0.595518
vt 0.847521 0.595518
vt 0.847521 0.816326
vt 0.621064 0.568622
vt 0.621064 0.591255
vt 0.955052 0.591255
vt 0.955052 0.568622
vt 0.148993 0.568622
vt 0.148993 0.591255
vt 0.482981 0.591255
vt 0.482981 0.568622
vt 0.520382 0.591255
vt 0.510057 0.568622
vt 0.797948 0.595588
vt 0.797948 0.816288
vt 0.810907 0.816288
vt 0.810872 0.595588
vt 0.583528 0.591255
vt 0.593813 0.568622
vt 0.289956 0.912233
vt 0.289956 0.929576
vt 0.604326 0.929696
vt 0.604326 0.912233
vt 0.289956 0.983353
vt 0.289956 1.000717
vt 0.604326 1.000717
vt 0.604326 0.983367
vt 0.832693 0.595588
vt 0.832659 0.816288
vt 0.845663 0.816288
vt 0.845663 0.595588
vt 0.251102 0.816326
vt 0.251102 0.595518
vt 0.396460 0.595518
vt 0.396460 0.816326
vt 0.396460 0.816326
vt 0.396460 0.595518
vt 0.251102 0.595518
vt 0.251102 0.816326
vt 0.621064 0.568622
vt 0.621064 0.591255
vt 0.955052 0.591255
vt 0.955052 0.568622
vt 0.148993 0.568622
vt 0.148993 0.591255
vt 0.482981 0.591255
vt 0.482981 0.568622
vt 0.520382 0.591255
vt 0.510057 0.568622
vt 0.201530 0.595588
vt 0.201530 0.816288
vt 0.214488 0.816288
vt 0.214454 0.595588
vt 0.583528 0.591255
vt 0.593813 0.568622
vt 0.289956 0.912233
vt 0.289956 0.929576
vt 0.604326 0.929696
vt 0.604326 0.912233
vt 0.289956 0.983353
vt 0.289956 1.000717
vt 0.604326 1.000717
vt 0.604326 0.983367
vt 0.236274 0.595588
vt 0.236240 0.816288
vt 0.249245 0.816288
vt 0.249245 0.595588
vt 0.847521 0.816326
vt 0.847521 0.595518
vt 0.992878 0.595518
vt 0.992878 0.816326
vt 0.992878 0.816326
vt 0.992878 0.595518
vt 0.847521 0.595518
vt 0.847521 0.816326
vt 0.621064 0.568622
vt 0.621064 0.591255
vt 0.955052 0.591255
vt 0.955052 0.568622
vt 0.148993 0.568622
vt 0.148993 0.591255
vt 0.482981 0.591255
vt 0.482981 0.568622
vt 0.520382 0.591255
vt 0.510057 0.568622
vt 0.797948 0.595588
vt 0.797948 0.816288
vt 0.810907 0.816288
vt 0.810872 0.595588
vt 0.583528 0.591255
vt 0.593813 0.568622
vt 0.289956 0.912233
vt 0.289956 0.929576
vt 0.604326 0.929696
vt 0.604326 0.912233
vt 0.289956 0.983353
vt 0.289956 1.000717
vt 0.604326 1.000717
vt 0.604326 0.983367
vt 0.832693 0.595588
vt 0.832659 0.816288
vt 0.845663 0.816288
vt 0.845663 0.595588
vt 0.847521 0.816326
vt 0.992878 0.816326
vt 0.992878 0.595518
vt 0.847521 0.595518
vt 0.992878 0.816326
vt 0.847521 0.816326
vt 0.847521 0.595518
vt 0.992878 0.595518
vt 0.621064 0.568622
vt 0.955052 0.568622
vt 0.955052 0.591255
vt 0.621064 0.591255
vt 0.148993 0.568622
vt 0.482981 0.568622
vt 0.482981 0.591255
vt 0.148993 0.591255
vt 0.510057 0.568622
vt 0.520382 0.591255
vt 0.797948 0.595588
vt 0.810872 0.595588
vt 0.810907 0.816288
vt 0.797948 0.816288
vt 0.583528 0.591255
vt 0.593813 0.568622
vt 0.289956 0.912233
vt 0.604326 0.912233
vt 0.604326 0.929696
vt 0.289956 0.929576
vt 0.289956 0.983353
vt 0.604326 0.983367
vt 0.604326 1.000717
vt 0.289956 1.000717
vt 0.832693 0.595588
vt 0.832659 0.816288
vt 0.845663 0.595588
vt 0.845663 0.816288
vt 0.847521 0.816326
vt 0.992878 0.816326
vt 0.992878 0.595518
vt 0.847521 0.595518
vt 0.992878 0.816326
vt 0.847521 0.816326
vt 0.847521 0.595518
vt 0.992878 0.595518
vt 0.621064 0.568622
vt 0.955052 0.568622
vt 0.955052 0.591255
vt 0.621064 0.591255
vt 0.148993 0.568622
vt 0.482981 0.568622
vt 0.482981 0.591255
vt 0.148993 0.591255
vt 0.510057 0.568622
vt 0.520382 0.591255
vt 0.797948 0.595588
vt 0.810872 0.595588
vt 0.810907 0.816288
vt 0.797948 0.816288
vt 0.583528 0.591255
vt 0.593813 0.568622
vt 0.289956 0.912233
vt 0.604326 0.912233
vt 0.604326 0.929696
vt 0.289956 0.929576
vt 0.289956 0.983353
vt 0.604326 0.983367
vt 0.604326 1.000717
vt 0.289956 1.000717
vt 0.832693 0.595588
vt 0.832659 0.816288
vt 0.845663 0.595588
vt 0.845663 0.816288
vn 1.0000 -0.0043 -0.0048
vn -1.0000 0.0043 0.0048
vn 0.0022 1.0000 -0.0010
vn 0.0021 1.0000 -0.0008
vn 0.0025 1.0000 -0.0011
vn 0.0023 1.0000 -0.0011
vn 0.0027 1.0000 -0.0011
vn 0.0028 1.0000 -0.0008
vn 0.0027 1.0000 -0.0010
vn 0.0027 1.0000 -0.0007
vn 0.0027 1.0000 -0.0008
vn -0.5672 0.0040 0.8235
vn -0.2951 0.0032 0.9554
vn -0.2951 0.0032 0.9555
vn 0.0023 1.0000 -0.0007
vn 0.0022 1.0000 -0.0008
vn 0.3023 0.0006 0.9532
vn 0.3017 0.0006 0.9534
vn 0.5725 -0.0009 0.8199
vn 0.9145 -0.0022 0.4047
vn 0.9143 -0.0022 0.4049
vn 1.0000 -0.0033 -0.0037
vn -1.0000 0.0033 0.0037
vn -0.9113 0.0038 0.4118
vn -0.9115 0.0038 0.4112
vn 0.0028 1.0000 -0.0010
vn 0.0032 1.0000 -0.0011
vn 0.0029 1.0000 -0.0011
vn 0.0034 1.0000 -0.0011
vn 0.0036 1.0000 -0.0008
vn 0.0035 1.0000 -0.0010
vn 0.0034 1.0000 -0.0007
vn 0.0035 1.0000 -0.0008
vn -0.3524 0.0030 0.9358
vn -0.3532 0.0030 0.9355
vn 0.0030 1.0000 -0.0007
vn 0.0029 1.0000 -0.0008
vn 0.3609 0.0007 0.9326
vn 0.9144 -0.0022 0.4047
vn 1.0000 -0.0032 -0.0037
vn -1.0000 0.0032 0.0037
vn -0.9113 0.0037 0.4118
vn -0.9115 0.0037 0.4112
vn 0.3609 0.0006 0.9326
vn -0.9169 -0.0022 0.3992
vn -1.0000 -0.0032 -0.0036
vn -0.9168 -0.0022 0.3994
vn 1.0000 0.0032 0.0036
vn 0.9140 0.0037 0.4056
vn 0.9137 0.0037 0.4063
vn -0.0029 1.0000 -0.0010
vn -0.0030 1.0000 -0.0011
vn -0.0033 1.0000 -0.0011
vn -0.0028 1.0000 -0.0008
vn -0.0035 1.0000 -0.0011
vn -0.0036 1.0000 -0.0010
vn -0.0037 1.0000 -0.0008
vn -0.0036 1.0000 -0.0008
vn -0.0035 1.0000 -0.0007
vn 0.3588 0.0030 0.9334
vn 0.3580 0.0030 0.9337
vn -0.0030 1.0000 -0.0007
vn -0.0030 1.0000 -0.0008
vn -0.3665 0.0007 0.9304
vn -0.3666 0.0007 0.9304
vn -0.9401 -0.0017 0.3409
vn -1.0000 -0.0024 -0.0028
vn -0.9401 -0.0017 0.3408
vn 1.0000 0.0024 0.0028
vn 0.9381 0.0029 0.3464
vn 0.9378 0.0029 0.3473
vn -0.0038 1.0000 -0.0010
vn -0.0039 1.0000 -0.0011
vn -0.0042 1.0000 -0.0011
vn -0.0035 1.0000 -0.0008
vn -0.0046 1.0000 -0.0011
vn -0.0046 1.0000 -0.0010
vn -0.0049 1.0000 -0.0008
vn -0.0046 1.0000 -0.0008
vn -0.0045 1.0000 -0.0007
vn 0.4170 0.0028 0.9089
vn 0.4152 0.0028 0.9097
vn -0.0040 1.0000 -0.0007
vn -0.0038 1.0000 -0.0008
vn -0.4251 0.0007 0.9052
vn -0.4260 0.0007 0.9047
usemtl MI_Trim_Props_Vertex
s 1
f 8/1/1 5/2/1 11/3/1 9/4/1
f 10/5/2 12/6/2 6/7/2 7/8/2
f 1/9/3 8/10/4 9/11/5 3/12/6
f 4/13/7 10/14/5 7/15/8 2/16/9
f 7/15/8 15/17/10 17/18/11 2/16/9
f 7/19/12 6/20/12 13/21/13 15/22/14
f 16/23/15 8/10/4 1/9/3 18/24/16
f 3/25/6 19/26/6 18/27/16 1/28/3
f 20/29/7 4/30/7 2/31/9 17/32/11
f 16/33/17 15/22/14 13/21/13 14/34/18
f 18/24/16 17/18/11 15/17/10 16/23/15
f 17/32/11 18/27/16 19/26/6 20/29/7
f 16/33/17 14/34/18 5/35/19 8/36/19
s 2
f 28/37/20 25/38/21 31/39/22 29/40/22
f 30/41/23 32/42/23 26/43/24 27/44/25
f 21/45/26 28/46/11 29/47/27 23/48/28
f 24/49/29 30/50/27 27/51/30 22/52/31
f 27/51/30 35/53/32 37/54/33 22/52/31
f 27/55/25 26/56/24 33/57/34 35/58/35
f 36/59/36 28/46/11 21/45/26 38/60/37
f 23/61/28 39/62/28 38/63/37 21/64/26
f 40/65/29 24/66/29 22/67/31 37/68/33
f 36/69/38 35/58/35 33/57/34 34/70/38
f 38/60/37 37/54/33 35/53/32 36/59/36
f 37/68/33 38/63/37 39/62/28 40/65/29
f 36/69/38 34/70/38 25/71/21 28/72/20
s 3
f 48/73/39 45/74/21 51/75/40 49/76/40
f 50/77/41 52/78/41 46/79/42 47/80/43
f 41/81/26 48/82/11 49/83/27 43/84/28
f 44/85/29 50/86/27 47/87/30 42/88/31
f 47/87/30 55/89/32 57/90/33 42/88/31
f 47/91/43 46/92/42 53/93/34 55/94/35
f 56/95/36 48/82/11 41/81/26 58/96/37
f 43/97/28 59/98/28 58/99/37 41/100/26
f 60/101/29 44/102/29 42/103/31 57/104/33
f 56/105/44 55/94/35 53/93/34 54/106/44
f 58/96/37 57/90/33 55/89/32 56/95/36
f 57/104/33 58/99/37 59/98/28 60/101/29
f 56/105/44 54/106/44 45/107/21 48/108/39
s 4
f 68/109/45 69/110/46 71/111/46 65/112/47
f 70/113/48 67/114/49 66/115/50 72/116/48
f 61/117/51 63/118/52 69/119/53 68/120/54
f 64/121/55 62/122/56 67/123/57 70/124/53
f 67/123/57 62/122/56 77/125/58 75/126/59
f 67/127/49 75/128/60 73/129/61 66/130/50
f 76/131/62 78/132/63 61/117/51 68/120/54
f 63/133/52 61/134/51 78/135/63 79/136/52
f 80/137/55 77/138/58 62/139/56 64/140/55
f 76/141/64 74/142/65 73/129/61 75/128/60
f 78/132/63 76/131/62 75/126/59 77/125/58
f 77/138/58 80/137/55 79/136/52 78/135/63
f 76/141/64 68/143/45 65/144/47 74/142/65
s 5
f 88/145/66 89/146/67 91/147/67 85/148/68
f 90/149/69 87/150/70 86/151/71 92/152/69
f 81/153/72 83/154/73 89/155/74 88/156/75
f 84/157/76 82/158/77 87/159/78 90/160/74
f 87/159/78 82/158/77 97/161/79 95/162/80
f 87/163/70 95/164/81 93/165/82 86/166/71
f 96/167/83 98/168/84 81/153/72 88/156/75
f 83/169/73 81/170/72 98/171/84 99/172/73
f 100/173/76 97/174/79 82/175/77 84/176/76
f 96/177/85 94/178/86 93/165/82 95/164/81
f 98/168/84 96/167/83 95/162/80 97/161/79
f 97/174/79 100/173/76 99/172/73 98/171/84
f 96/177/85 88/179/66 85/180/68 94/178/86
