# Blender v3.6.0 OBJ File: 'StandardOBJ.blend'
# www.blender.org
mtllib Candle_2.mtl
o Candle_2_Cylinder.048
v 0.003318 0.002289 -0.043637
v -0.000915 0.051716 -0.044449
v 0.028466 0.002289 -0.036887
v 0.025297 0.051040 -0.039744
v 0.042175 0.002289 -0.017782
v 0.044383 0.052593 -0.016400
v 0.043640 0.002289 0.012843
v 0.045492 0.052852 0.011076
v 0.026504 0.002289 0.034563
v 0.029065 0.052646 0.037826
v -0.001493 0.002289 0.043211
v -0.001882 0.051520 0.045652
v -0.030664 0.002289 0.034844
v -0.026442 0.053199 0.037276
v -0.042355 0.002289 0.014200
v -0.042306 0.053221 0.012854
v -0.040287 0.002289 -0.012687
v -0.042797 0.053935 -0.013538
v -0.026940 0.002289 -0.038982
v -0.027824 0.052311 -0.037923
v 0.027133 0.099925 -0.036427
v 0.003059 0.098847 -0.044031
v 0.044570 0.100902 -0.013703
v 0.043854 0.100518 0.013978
v 0.027316 0.099825 0.037033
v 0.002116 0.100231 0.043617
v -0.023319 0.100452 0.034444
v -0.041389 0.100974 0.012022
v -0.042605 0.100985 -0.013370
v -0.023918 0.099730 -0.038569
v 0.025252 0.148906 -0.037563
v 0.002312 0.146816 -0.044108
v 0.043432 0.149064 -0.015267
v 0.043712 0.149003 0.014346
v 0.026127 0.148623 0.037014
v 0.001844 0.148850 0.043173
v -0.023149 0.147909 0.035536
v -0.041047 0.151907 0.014794
v -0.042136 0.149326 -0.014110
v 0.027661 0.223745 -0.046287
v 0.000421 0.226424 -0.049853
v 0.044999 0.242629 -0.010455
v 0.041993 0.253419 0.013362
v 0.025289 0.243349 0.035846
v -0.001831 0.232152 0.047692
v -0.028472 0.237432 0.033779
v -0.042187 0.239357 0.012576
v -0.046673 0.231732 -0.014098
v -0.028219 0.222795 -0.041258
v 0.038004 0.052219 -0.030229
v 0.042970 0.002289 -0.035140
v 0.038038 0.100478 -0.025622
v 0.027569 0.195170 -0.043934
v 0.047634 0.195300 -0.015168
v -0.046496 0.195327 -0.015943
v 0.001136 0.195087 0.046979
v -0.027822 0.194894 0.038937
v 0.044982 0.194630 0.017225
v 0.002490 0.194277 -0.049543
v -0.046766 0.196943 0.015750
v 0.027904 0.194892 0.038611
v 0.045581 0.251372 -0.000665
v 0.044391 0.226356 -0.025675
v 0.022248 0.228812 -0.037917
v 0.003519 0.228616 -0.040441
v 0.038069 0.241688 -0.009218
v 0.035625 0.250460 0.010146
v 0.021967 0.242438 0.028290
v 0.000799 0.235478 0.030277
v -0.020710 0.240363 0.022714
v -0.034170 0.241047 0.007946
v -0.032730 0.234798 -0.010603
v -0.022126 0.227438 -0.028544
v 0.038543 0.248796 -0.001258
v 0.035226 0.233335 -0.023242
v 0.015124 0.220391 -0.023072
v 0.002339 0.219289 -0.023478
v 0.023198 0.222799 -0.005137
v 0.021938 0.224743 0.006732
v 0.013704 0.225236 0.016503
v 0.002062 0.224076 0.017916
v -0.011272 0.223234 0.014298
v -0.017951 0.222306 0.005273
v -0.017811 0.221784 -0.006170
v -0.011536 0.220594 -0.017062
v 0.023617 0.224250 -0.000025
v 0.022558 0.221465 -0.013506
v 0.007764 0.218361 -0.015022
v 0.003774 0.220275 -0.004179
v 0.003000 0.222306 0.007693
v 0.016853 0.243148 0.039760
v 0.013616 0.240894 0.029984
v -0.022588 0.147870 -0.038032
v -0.029379 0.212877 -0.043268
v -0.040595 0.217516 -0.029176
v -0.013390 0.213827 -0.049727
v -0.031630 0.176776 -0.035660
v -0.014835 0.179753 -0.042592
v -0.014009 0.168676 -0.041792
v -0.032946 0.168929 -0.030801
v -0.028663 0.173368 -0.042152
v -0.023303 0.163764 -0.037962
v -0.002739 0.216517 -0.003331
v -0.003417 0.216517 0.001328
v 0.001010 0.216517 -0.002354
v 0.000155 0.216517 0.002106
v -0.002620 0.241364 0.000633
v -0.002191 0.240859 -0.002314
v -0.000361 0.241052 0.001125
v 0.000180 0.240718 -0.001696
vt 0.003085 0.253147
vt 0.027527 0.252260
vt 0.026561 0.266567
vt 0.002291 0.266897
vt 0.026719 0.275243
vt 0.001519 0.274503
vt 0.002102 0.283567
vt 0.027058 0.283525
vt 0.027290 0.298211
vt 0.002526 0.299756
vt 0.027109 0.314556
vt 0.002640 0.314435
vt 0.026046 0.331023
vt 0.002243 0.329891
vt 0.026383 0.344623
vt 0.001519 0.345790
vt 0.004959 0.194775
vt 0.029914 0.193147
vt 0.029596 0.208523
vt 0.004690 0.207277
vt 0.029715 0.222445
vt 0.004428 0.221480
vt 0.049944 0.329692
vt 0.049698 0.344149
vt 0.028289 0.237514
vt 0.003769 0.237022
vt 0.050121 0.315696
vt 0.074744 0.317180
vt 0.074275 0.330821
vt 0.050946 0.300323
vt 0.051231 0.255266
vt 0.051364 0.269271
vt 0.051479 0.285175
vt 0.051416 0.277687
vt 0.051996 0.240133
vt 0.053017 0.223028
vt 0.053200 0.209358
vt 0.053128 0.194026
vt 0.099392 0.287191
vt 0.100431 0.269102
vt 0.114228 0.268861
vt 0.114834 0.282822
vt 0.076350 0.285085
vt 0.077606 0.223702
vt 0.076833 0.241010
vt 0.073110 0.344776
vt 0.075584 0.301478
vt 0.076155 0.255509
vt 0.076289 0.193455
vt 0.078643 0.207930
vt 0.076831 0.268927
vt 0.087745 0.233941
vt 0.085148 0.240716
vt 0.096287 0.346128
vt 0.097180 0.332544
vt 0.115131 0.334729
vt 0.117177 0.346128
vt 0.098065 0.303948
vt 0.122200 0.291505
vt 0.126096 0.297019
vt 0.100012 0.255874
vt 0.087523 0.246472
vt 0.093057 0.246382
vt 0.100612 0.207618
vt 0.099194 0.192431
vt 0.119790 0.194724
vt 0.120697 0.207976
vt 0.097519 0.318049
vt 0.126575 0.304718
vt 0.120984 0.319255
vt 0.115340 0.254515
vt 0.100139 0.223428
vt 0.117325 0.222221
vt 0.120779 0.324171
vt 0.090658 0.239524
vt 0.108386 0.239365
vt 0.109058 0.247832
vt 0.396671 0.256805
vt 0.378794 0.263792
vt 0.378455 0.259079
vt 0.392857 0.252980
vt 0.347553 0.232059
vt 0.354366 0.215849
vt 0.358778 0.220429
vt 0.354804 0.231942
vt 0.389134 0.199818
vt 0.403049 0.210162
vt 0.398319 0.213370
vt 0.387505 0.208780
vt 0.364083 0.256415
vt 0.352279 0.248620
vt 0.359102 0.245116
vt 0.366999 0.253118
vt 0.411096 0.242700
vt 0.400998 0.252924
vt 0.396279 0.248382
vt 0.399660 0.239669
vt 0.367459 0.201921
vt 0.373293 0.209482
vt 0.410649 0.223628
vt 0.402380 0.224469
vt 0.369967 0.261814
vt 0.371534 0.257567
vt 0.389928 0.235358
vt 0.369265 0.237626
vt 0.373278 0.240117
vt 0.366087 0.231568
vt 0.383273 0.219719
vt 0.376214 0.219777
vt 0.391213 0.228132
vt 0.375788 0.241684
vt 0.369273 0.224988
vt 0.388573 0.222826
vt 0.379615 0.242418
vt 0.386300 0.240774
vt 0.372089 0.229812
vt 0.378452 0.230608
vt 0.384561 0.233261
vt 0.091837 0.236008
vt 0.110478 0.230433
vt 0.113234 0.239170
vt 0.364600 0.241735
vt 0.360529 0.229788
vt 0.357317 0.223477
vt 0.364520 0.219112
vt 0.376454 0.210254
vt 0.389824 0.211289
vt 0.400864 0.220226
vt 0.405370 0.234229
vt 0.400215 0.244509
vt 0.388832 0.250934
vt 0.374643 0.252660
vt 0.198793 0.776594
vt 0.198793 0.776935
vt 0.198504 0.776952
vt 0.198518 0.776596
vt 0.198128 0.779425
vt 0.197686 0.779417
vt 0.197788 0.776627
vt 0.198128 0.776594
vt 0.197686 0.779462
vt 0.197331 0.779462
vt 0.197375 0.776631
vt 0.197647 0.776594
vt 0.198504 0.779396
vt 0.198128 0.779403
vt 0.198128 0.776594
vt 0.198417 0.776606
vt 0.197331 0.779462
vt 0.196873 0.779462
vt 0.196923 0.776594
vt 0.197274 0.776653
vn 0.0242 -0.0144 -0.9996
vn 0.0003 0.0031 -1.0000
vn 0.3685 0.0249 -0.9293
vn 0.3039 0.0170 -0.9525
vn 0.7836 0.0460 -0.6196
vn 0.7755 0.0506 -0.6294
vn 0.9937 -0.0004 -0.1118
vn 0.9843 0.0111 -0.1764
vn 0.9626 -0.0134 0.2707
vn 0.9574 -0.0447 0.2852
vn 0.5821 -0.0167 0.8129
vn 0.5789 -0.0560 0.8135
vn -0.0358 -0.0013 0.9994
vn -0.0134 -0.0501 0.9987
vn -0.5986 0.0327 0.8004
vn -0.6315 -0.0006 0.7753
vn -0.9572 0.0191 0.2888
vn -0.9653 0.0034 0.2610
vn -0.9619 -0.0012 -0.2733
vn -0.9637 -0.0272 -0.2656
vn -0.0304 0.0248 0.9992
vn -0.5803 0.0268 0.8140
vn -0.5849 0.0030 -0.8111
vn -0.5813 -0.0194 -0.8134
vn 0.5683 0.0154 0.8227
vn 0.5539 -0.0258 0.8322
vn -0.0173 -0.0392 0.9991
vn 0.9515 0.0145 0.3073
vn 0.0308 0.0109 -0.9995
vn 0.5056 0.0274 -0.8623
vn 0.9724 0.0167 -0.2326
vn 0.8016 0.0318 -0.5970
vn -0.5420 0.0181 -0.8402
vn -0.9569 0.0172 -0.2901
vn -0.9418 0.0144 0.3359
vn 0.9626 -0.0478 -0.2666
vn 0.5401 -0.0920 -0.8366
vn 0.4634 0.4106 -0.7853
vn 0.7954 0.3514 -0.4938
vn 0.9464 -0.0308 -0.3214
vn -0.9489 -0.0572 -0.3102
vn -0.5265 -0.0454 -0.8490
vn -0.5520 -0.0587 0.8318
vn 0.9444 -0.0252 0.3280
vn 0.0110 -0.0515 -0.9986
vn -0.9309 -0.0686 0.3588
vn 0.5480 -0.0534 -0.8348
vn -0.7988 -0.1966 -0.5685
vn -0.4872 -0.2006 -0.8500
vn -0.5756 -0.0232 0.8174
vn 0.0013 -0.0179 0.9998
vn -0.0525 0.4866 0.8721
vn -0.4286 0.6340 0.6437
vn 0.9319 -0.0018 0.3628
vn 0.6795 0.5677 -0.4648
vn 0.9872 0.0473 0.1521
vn 0.0244 -0.0978 -0.9949
vn -0.2109 -0.1398 -0.9675
vn -0.1931 -0.1354 -0.9718
vn -0.9382 -0.0155 0.3458
vn -0.7016 0.6827 0.2041
vn 0.5700 0.0043 0.8217
vn 0.9052 0.0729 0.4186
vn 0.3237 0.6991 0.6375
vn -0.0564 0.5893 -0.8059
vn -0.9684 -0.0525 -0.2440
vn -0.7579 0.5714 -0.3148
vn 0.0029 0.7742 0.6330
vn -0.5328 -0.2647 -0.8037
vn -0.5664 0.0896 -0.8192
vn -0.2290 0.0491 -0.9722
vn -0.3827 0.9208 -0.0747
vn -0.5811 0.7910 -0.1914
vn -0.4279 0.8608 -0.2757
vn 0.0030 0.9999 0.0140
vn 0.0085 0.9934 -0.1140
vn 0.1652 0.9676 -0.1911
vn 0.2353 0.9477 -0.2155
vn -0.1929 0.9149 -0.3546
vn -0.4656 0.7329 -0.4960
vn -0.3045 0.8738 -0.3791
vn -0.1224 0.9464 -0.2987
vn -0.4297 0.6281 -0.6487
vn 0.1178 0.9898 -0.0805
vn 0.2347 0.9578 -0.1662
vn -0.2795 0.8614 -0.4241
vn -0.5323 0.7441 -0.4037
vn -0.0095 0.8647 -0.5022
vn -0.4923 0.8704 0.0033
vn -0.5038 0.8373 -0.2123
vn -0.2416 0.9395 0.2428
vn 0.4222 0.9050 -0.0518
vn 0.2757 0.9505 0.1431
vn 0.2881 0.8392 -0.4612
vn -0.5688 0.7801 -0.2605
vn 0.0593 0.9519 0.3007
vn 0.4364 0.8609 -0.2615
vn -0.5465 0.7848 -0.2923
vn -0.3570 0.8076 -0.4694
vn -0.0434 0.9979 -0.0479
vn -0.0242 0.9893 -0.1438
vn -0.0585 0.9880 -0.1429
vn -0.8335 -0.1741 -0.5244
vn -0.8225 0.0924 -0.5612
vn -0.0000 -1.0000 0.0000
vn 0.4713 0.5972 0.6490
vn 0.7150 0.5291 -0.4569
vn -0.4302 0.5653 -0.7038
vn -0.6125 0.6756 0.4105
vn 0.5500 0.0449 0.8340
vn 0.8436 0.0432 -0.5352
vn -0.8201 0.0427 0.5707
vn -0.5494 0.0471 -0.8342
usemtl MI_Trim_Props
s 1
f 1/1/1 2/2/2 4/3/3 3/4/4
f 3/4/4 4/3/3 50/5/5 51/6/6
f 5/7/7 6/8/8 8/9/9 7/10/10
f 7/10/10 8/9/9 10/11/11 9/12/12
f 9/12/12 10/11/11 12/13/13 11/14/14
f 11/14/14 12/13/13 14/15/15 13/16/16
f 13/17/16 14/18/15 16/19/17 15/20/18
f 15/20/18 16/19/17 18/21/19 17/22/20
f 14/15/15 12/13/13 26/23/21 27/24/22
f 17/22/20 18/21/19 20/25/23 19/26/24
f 19/26/24 20/25/23 2/2/2 1/1/1
f 26/23/21 25/27/25 35/28/26 36/29/27
f 12/13/13 10/11/11 25/27/25 26/23/21
f 10/11/11 8/9/9 24/30/28 25/27/25
f 4/3/3 2/2/2 22/31/29 21/32/30
f 8/9/9 6/8/8 23/33/31 24/30/28
f 6/8/8 50/5/5 52/34/32 23/33/31
f 2/2/2 20/25/23 30/35/33 22/31/29
f 20/25/23 18/21/19 29/36/34 30/35/33
f 18/21/19 16/19/17 28/37/35 29/36/34
f 16/19/17 14/18/15 27/38/22 28/37/35
f 54/39/36 53/40/37 40/41/38 63/42/39
f 23/33/31 52/34/32 33/43/40
f 30/35/33 29/36/34 39/44/41 93/45/42
f 27/24/22 26/23/21 36/29/27 37/46/43
f 24/30/28 23/33/31 33/43/40 34/47/44
f 22/31/29 30/35/33 93/45/42 32/48/45
f 28/37/35 27/38/22 37/49/43 38/50/46
f 25/27/25 24/30/28 34/47/44 35/28/26
f 21/32/30 22/31/29 32/48/45 31/51/47
f 29/36/34 28/37/35 38/50/46 39/44/41
f 93/45/42 39/44/41 100/52/48 102/53/49
f 57/54/50 56/55/51 45/56/52 46/57/53
f 58/58/54 54/39/36 42/59/55 62/60/56
f 59/61/57 32/48/45 99/62/58 98/63/59
f 60/64/60 57/65/50 46/66/53 47/67/61
f 61/68/62 58/58/54 43/69/63 44/70/64
f 53/40/37 59/61/57 41/71/65 40/41/38
f 55/72/66 60/64/60 47/67/61 48/73/67
f 56/55/51 61/68/62 44/70/64 91/74/68
f 52/34/32 50/5/5 4/3/3 21/32/30
f 51/6/6 50/5/5 6/8/8 5/7/7
f 33/43/40 52/34/32 21/32/30 31/51/47
f 36/29/27 35/28/26 61/68/62 56/55/51
f 39/44/41 38/50/46 60/64/60 55/72/66
f 31/51/47 32/48/45 59/61/57 53/40/37
f 35/28/26 34/47/44 58/58/54 61/68/62
f 38/50/46 37/49/43 57/65/50 60/64/60
f 98/63/59 101/75/69 94/76/70 96/77/71
f 34/47/44 33/43/40 54/39/36 58/58/54
f 37/46/43 36/29/27 56/55/51 57/54/50
f 33/43/40 31/51/47 53/40/37 54/39/36
f 62/60/56 43/69/63 58/58/54
f 44/78/64 43/79/72 67/80/73 68/81/74
f 63/42/39 42/59/55 54/39/36
f 40/82/38 41/83/65 65/84/75 64/85/76
f 48/86/67 47/87/61 71/88/77 72/89/78
f 42/90/55 63/91/39 75/92/79 66/93/80
f 45/94/52 91/95/68 92/96/81 69/97/82
f 63/91/39 40/82/38 64/85/76 75/92/79
f 49/98/83 48/86/67 72/89/78 73/99/84
f 46/100/53 45/94/52 69/97/82 70/101/85
f 43/79/72 62/102/86 74/103/87 67/80/73
f 62/102/86 42/90/55 66/93/80 74/103/87
f 41/83/65 49/98/83 73/99/84 65/84/75
f 47/87/61 46/100/53 70/101/85 71/88/77
f 69/97/82 92/96/81 81/104/88
f 66/93/80 75/92/79 87/105/89 78/106/90
f 75/92/79 64/85/76 76/107/91 87/105/89
f 73/99/84 72/89/78 84/108/92 85/109/93
f 70/101/85 69/97/82 81/104/88 82/110/94
f 74/103/87 66/93/80 78/106/90 86/111/95
f 65/84/75 73/99/84 85/109/93 77/112/96
f 71/88/77 70/101/85 82/110/94 83/113/97
f 68/81/74 67/80/73 79/114/98 80/115/99
f 67/80/73 74/103/87 86/111/95 79/114/98
f 64/85/76 65/84/75 77/112/96 76/107/91
f 72/89/78 71/88/77 83/113/97 84/108/92
f 77/112/96 85/109/93 88/116/100 76/107/91
f 85/109/93 84/108/92 89/117/101 88/116/100
f 84/108/92 83/113/97 90/118/102 89/117/101
f 83/113/97 82/110/94 81/104/88 90/118/102
f 76/107/91 88/116/100 78/106/90 87/105/89
f 88/116/100 89/117/101 86/111/95 78/106/90
f 89/117/101 90/118/102 79/114/98 86/111/95
f 90/118/102 81/104/88 80/115/99 79/114/98
f 92/96/81 91/95/68 44/78/64 68/81/74
f 91/74/68 45/56/52 56/55/51
f 81/104/88 92/96/81 68/81/74 80/115/99
f 39/44/41 55/72/66 97/119/103 100/52/48
f 101/75/69 97/119/103 95/120/104 94/76/70
f 49/121/83 41/71/65 96/77/71 94/76/70
f 99/62/58 102/53/49 101/75/69 98/63/59
f 102/53/49 100/52/48 97/119/103 101/75/69
f 55/72/66 48/73/67 95/120/104 97/119/103
f 41/71/65 59/61/57 98/63/59 96/77/71
f 48/73/67 49/121/83 94/76/70 95/120/104
f 32/48/45 93/45/42 102/53/49 99/62/58
s 2
f 1/122/105 3/123/105 51/124/105 5/125/105 7/126/105 9/127/105 11/128/105 13/129/105 15/130/105 17/131/105 19/132/105
s 3
f 109/133/106 110/134/107 108/135/108 107/136/109
f 106/137/110 105/138/111 110/139/107 109/140/106
f 104/141/112 106/142/110 109/143/106 107/144/109
f 105/145/111 103/146/113 108/147/108 110/148/107
f 103/149/113 104/150/112 107/151/109 108/152/108
