# Blender v3.6.0 OBJ File: 'StandardOBJ.blend'
# www.blender.org
mtllib Coin.mtl
o Coin_Cylinder.073
v -0.000000 0.024551 -0.005361
v -0.000000 0.024551 0.005361
v 0.006354 0.023715 -0.005361
v 0.006354 0.023715 0.005361
v 0.012276 0.021262 -0.005361
v 0.012276 0.021262 0.005361
v 0.017360 0.017360 -0.005361
v 0.017360 0.017360 0.005361
v 0.021262 0.012276 -0.005361
v 0.021262 0.012276 0.005361
v 0.023715 0.006354 -0.005361
v 0.023715 0.006354 0.005361
v 0.024551 0.000000 -0.005361
v 0.024551 -0.000000 0.005361
v 0.023715 -0.006354 -0.005361
v 0.023715 -0.006354 0.005361
v 0.021262 -0.012276 -0.005361
v 0.021262 -0.012276 0.005361
v 0.017360 -0.017360 -0.005361
v 0.017360 -0.017360 0.005361
v 0.012276 -0.021262 -0.005361
v 0.012276 -0.021262 0.005361
v 0.006354 -0.023715 -0.005361
v 0.006354 -0.023715 0.005361
v -0.000000 -0.024551 -0.005361
v -0.000000 -0.024551 0.005361
v -0.006354 -0.023715 -0.005361
v -0.006354 -0.023715 0.005361
v -0.012276 -0.021262 -0.005361
v -0.012276 -0.021262 0.005361
v -0.017360 -0.017360 -0.005361
v -0.017360 -0.017360 0.005361
v -0.021262 -0.012276 -0.005361
v -0.021262 -0.012276 0.005361
v -0.023715 -0.006354 -0.005361
v -0.023715 -0.006354 0.005361
v -0.024551 0.000000 -0.005361
v -0.024551 -0.000000 0.005361
v -0.023715 0.006354 -0.005361
v -0.023715 0.006354 0.005361
v -0.021262 0.012276 -0.005361
v -0.021262 0.012276 0.005361
v -0.017360 0.017360 -0.005361
v -0.017360 0.017360 0.005361
v -0.012276 0.021262 -0.005361
v -0.012276 0.021262 0.005361
v -0.006354 0.023715 -0.005361
v -0.006354 0.023715 0.005361
v -0.000000 0.034127 -0.003476
v 0.008833 0.032964 -0.003476
v 0.008833 0.032964 0.003476
v -0.000000 0.034127 0.003476
v 0.017063 0.029554 -0.003476
v 0.017063 0.029554 0.003476
v 0.024131 0.024131 -0.003476
v 0.024131 0.024131 0.003476
v 0.029554 0.017063 -0.003476
v 0.029554 0.017063 0.003476
v 0.032964 0.008833 -0.003476
v 0.032964 0.008833 0.003476
v 0.034127 0.000000 -0.003476
v 0.034127 -0.000000 0.003476
v 0.032964 -0.008833 -0.003476
v 0.032964 -0.008833 0.003476
v 0.029554 -0.017063 -0.003476
v 0.029554 -0.017063 0.003476
v 0.024131 -0.024131 -0.003476
v 0.024131 -0.024131 0.003476
v 0.017063 -0.029554 -0.003476
v 0.017063 -0.029554 0.003476
v 0.008833 -0.032964 -0.003476
v 0.008833 -0.032964 0.003476
v -0.000000 -0.034127 -0.003476
v -0.000000 -0.034127 0.003476
v -0.008833 -0.032964 -0.003476
v -0.008833 -0.032964 0.003476
v -0.017063 -0.029554 -0.003476
v -0.017063 -0.029554 0.003476
v -0.024131 -0.024131 -0.003476
v -0.024131 -0.024131 0.003476
v -0.029554 -0.017063 -0.003476
v -0.029554 -0.017063 0.003476
v -0.032964 -0.008833 -0.003476
v -0.032964 -0.008833 0.003476
v -0.034127 0.000000 -0.003476
v -0.034127 -0.000000 0.003476
v -0.032964 0.008833 -0.003476
v -0.032964 0.008833 0.003476
v -0.029554 0.017063 -0.003476
v -0.029554 0.017063 0.003476
v -0.024131 0.024131 -0.003476
v -0.024131 0.024131 0.003476
v -0.017063 0.029554 -0.003476
v -0.017063 0.029554 0.003476
v -0.008833 0.032964 -0.003476
v -0.008833 0.032964 0.003476
v -0.000000 0.015628 -0.003373
v 0.005762 0.021505 -0.003373
v 0.005762 0.021505 0.003373
v -0.000000 0.015628 0.003373
v 0.011132 0.019280 -0.003373
v 0.011132 0.019280 0.003373
v 0.015742 0.015742 -0.003373
v 0.015742 0.015742 0.003373
v 0.019280 0.011132 -0.003373
v 0.019280 0.011132 0.003373
v 0.021505 0.005762 -0.003373
v 0.021505 0.005762 0.003373
v 0.015628 0.000000 -0.003373
v 0.015628 -0.000000 0.003373
v 0.021505 -0.005762 -0.003373
v 0.021505 -0.005762 0.003373
v 0.019280 -0.011132 -0.003373
v 0.019280 -0.011132 0.003373
v 0.015742 -0.015742 -0.003373
v 0.015742 -0.015742 0.003373
v 0.011132 -0.019280 -0.003373
v 0.011132 -0.019280 0.003373
v 0.005762 -0.021505 -0.003373
v 0.005762 -0.021505 0.003373
v -0.000000 -0.015628 -0.003373
v -0.000000 -0.015628 0.003373
v -0.005762 -0.021505 -0.003373
v -0.005762 -0.021505 0.003373
v -0.011132 -0.019280 -0.003373
v -0.011132 -0.019280 0.003373
v -0.015742 -0.015742 -0.003373
v -0.015742 -0.015742 0.003373
v -0.019280 -0.011132 -0.003373
v -0.019280 -0.011132 0.003373
v -0.021505 -0.005762 -0.003373
v -0.021505 -0.005762 0.003373
v -0.015628 0.000000 -0.003373
v -0.015628 -0.000000 0.003373
v -0.021505 0.005762 -0.003373
v -0.021505 0.005762 0.003373
v -0.019280 0.011132 -0.003373
v -0.019280 0.011132 0.003373
v -0.015742 0.015742 -0.003373
v -0.015742 0.015742 0.003373
v -0.011132 0.019280 -0.003373
v -0.011132 0.019280 0.003373
v -0.005762 0.021505 -0.003373
v -0.005762 0.021505 0.003373
v -0.022263 -0.000000 0.003373
v -0.000000 0.022263 0.003373
v 0.022263 -0.000000 0.003373
v -0.000000 -0.022263 0.003373
v -0.000000 0.022263 -0.003373
v 0.022263 0.000000 -0.003373
v -0.000000 -0.022263 -0.003373
v -0.022263 0.000000 -0.003373
v 0.000000 -0.000000 0.007253
v -0.000002 0.000000 -0.007253
vt 0.500302 0.997647
vt 0.500302 0.951571
vt 0.519412 0.951571
vt 0.519412 0.997647
vt 0.538522 0.951571
vt 0.538522 0.997647
vt 0.557631 0.951571
vt 0.557631 0.997647
vt 0.576741 0.951571
vt 0.576741 0.997647
vt 0.595851 0.951571
vt 0.595851 0.997647
vt 0.614960 0.951571
vt 0.614960 0.997647
vt 0.634070 0.951571
vt 0.634070 0.997647
vt 0.653180 0.951571
vt 0.653180 0.997647
vt 0.672289 0.951571
vt 0.672289 0.997647
vt 0.691399 0.951571
vt 0.691399 0.997647
vt 0.710509 0.951571
vt 0.710509 0.997647
vt 0.729316 0.951571
vt 0.729316 0.997647
vt 0.270684 0.997647
vt 0.270684 0.951571
vt 0.290096 0.951571
vt 0.290096 0.997647
vt 0.309206 0.951571
vt 0.309206 0.997647
vt 0.328315 0.951571
vt 0.328315 0.997647
vt 0.347425 0.951571
vt 0.347425 0.997647
vt 0.366535 0.951571
vt 0.366535 0.997647
vt 0.385644 0.951571
vt 0.385644 0.997647
vt 0.404754 0.951571
vt 0.404754 0.997647
vt 0.423864 0.951571
vt 0.423864 0.997647
vt 0.442973 0.951571
vt 0.442973 0.997647
vt 0.462083 0.951571
vt 0.462083 0.997647
vt 0.950397 0.919696
vt 1.000000 0.919696
vt 1.000000 0.940669
vt 0.950397 0.940669
vt 0.481193 0.951571
vt 0.481193 0.997647
vt 0.585056 0.919589
vt 0.626835 0.919589
vt 0.626835 0.940600
vt 0.585056 0.940600
vt 0.042007 0.919696
vt 0.000000 0.919696
vt 0.000000 0.853442
vt 0.042007 0.853442
vt 1.000000 0.919589
vt 0.961065 0.919589
vt 0.961065 0.853213
vt 1.000000 0.853213
vt 0.083297 0.919696
vt 0.083297 0.853442
vt 0.919286 0.919589
vt 0.919286 0.853213
vt 0.124588 0.919696
vt 0.124588 0.853442
vt 0.877507 0.919589
vt 0.877507 0.853213
vt 0.165878 0.919696
vt 0.165878 0.853442
vt 0.835729 0.919589
vt 0.835729 0.853213
vt 0.207169 0.919696
vt 0.207169 0.853442
vt 0.793950 0.919589
vt 0.793950 0.853213
vt 0.248459 0.919696
vt 0.248459 0.853442
vt 0.752171 0.919589
vt 0.752171 0.853213
vt 0.289750 0.919696
vt 0.289750 0.853442
vt 0.710392 0.919589
vt 0.710392 0.853213
vt 0.331040 0.919696
vt 0.331040 0.853442
vt 0.668614 0.919589
vt 0.668614 0.853213
vt 0.372331 0.919696
vt 0.372331 0.853442
vt 0.626835 0.853213
vt 0.413621 0.919696
vt 0.413621 0.853442
vt 0.585056 0.853213
vt 0.454912 0.919696
vt 0.454912 0.853442
vt 0.543278 0.919589
vt 0.543278 0.853213
vt 0.496202 0.919696
vt 0.496202 0.853442
vt 0.501499 0.919589
vt 0.501499 0.853213
vt 0.537493 0.919696
vt 0.537493 0.853442
vt 0.459720 0.919589
vt 0.459720 0.853213
vt 0.578783 0.919696
vt 0.578783 0.853442
vt 0.417941 0.919589
vt 0.417941 0.853213
vt 0.620073 0.919696
vt 0.620073 0.853442
vt 0.376163 0.919589
vt 0.376163 0.853213
vt 0.661364 0.919696
vt 0.661364 0.853442
vt 0.334384 0.919589
vt 0.334384 0.853213
vt 0.702654 0.919696
vt 0.702654 0.853442
vt 0.292605 0.919589
vt 0.292605 0.853213
vt 0.743945 0.919696
vt 0.743945 0.853442
vt 0.250826 0.919589
vt 0.250826 0.853213
vt 0.785235 0.919696
vt 0.785235 0.853442
vt 0.209048 0.919589
vt 0.209048 0.853213
vt 0.826526 0.919696
vt 0.826526 0.853442
vt 0.167269 0.919589
vt 0.167269 0.853213
vt 0.867816 0.919696
vt 0.867816 0.853442
vt 0.125490 0.919589
vt 0.125490 0.853213
vt 0.909107 0.919696
vt 0.909107 0.853442
vt 0.083711 0.919589
vt 0.083711 0.853213
vt 0.950397 0.853442
vt 0.041933 0.919589
vt 0.041933 0.853213
vt 1.000000 0.853442
vt 0.000000 0.919589
vt 0.000000 0.853213
vt 0.832653 0.796652
vt 0.833411 0.804473
vt 0.804361 0.773360
vt 0.812111 0.774652
vt 0.819263 0.777906
vt 0.825330 0.782900
vt 0.829896 0.789294
vt 0.165878 0.940669
vt 0.124588 0.940669
vt 0.334384 0.940600
vt 0.292605 0.940600
vt 0.454912 0.940669
vt 0.413621 0.940669
vt 0.041933 0.940600
vt 0.000000 0.940600
vt 0.877507 0.940600
vt 0.835729 0.940600
vt 0.743945 0.940669
vt 0.702654 0.940669
vt 0.543278 0.940600
vt 0.207169 0.940669
vt 0.250826 0.940600
vt 0.496202 0.940669
vt 0.793950 0.940600
vt 0.785235 0.940669
vt 0.501499 0.940600
vt 0.248459 0.940669
vt 0.209048 0.940600
vt 0.537493 0.940669
vt 0.752171 0.940600
vt 0.826526 0.940669
vt 0.459720 0.940600
vt 0.289750 0.940669
vt 0.167269 0.940600
vt 0.578783 0.940669
vt 0.710392 0.940600
vt 0.867816 0.940669
vt 0.042007 0.940669
vt 0.000000 0.940669
vt 0.417941 0.940600
vt 0.331040 0.940669
vt 0.125490 0.940600
vt 1.000000 0.940600
vt 0.961065 0.940600
vt 0.620073 0.940669
vt 0.668614 0.940600
vt 0.909107 0.940669
vt 0.083297 0.940669
vt 0.376163 0.940600
vt 0.372331 0.940669
vt 0.083711 0.940600
vt 0.919286 0.940600
vt 0.661364 0.940669
vt 0.773247 0.802411
vt 0.802298 0.833524
vt 0.794548 0.832232
vt 0.787396 0.828978
vt 0.781329 0.823984
vt 0.776762 0.817590
vt 0.774006 0.810232
vt 0.774539 0.794661
vt 0.777793 0.787508
vt 0.782787 0.781442
vt 0.789181 0.776875
vt 0.796539 0.774119
vt 0.832119 0.812224
vt 0.828865 0.819376
vt 0.823872 0.825442
vt 0.817477 0.830009
vt 0.810119 0.832766
vt 0.802298 0.833524
vt 0.773247 0.802411
vt 0.774006 0.810232
vt 0.776762 0.817590
vt 0.781329 0.823984
vt 0.787396 0.828978
vt 0.794548 0.832232
vt 0.804361 0.773360
vt 0.796539 0.774119
vt 0.789181 0.776875
vt 0.782787 0.781442
vt 0.777793 0.787508
vt 0.774539 0.794661
vt 0.833411 0.804473
vt 0.832653 0.796652
vt 0.829896 0.789294
vt 0.825330 0.782900
vt 0.819263 0.777906
vt 0.812111 0.774652
vt 0.810119 0.832766
vt 0.817477 0.830009
vt 0.823872 0.825442
vt 0.828865 0.819376
vt 0.832119 0.812224
vt 0.802606 0.824559
vt 0.824446 0.804166
vt 0.804053 0.782325
vt 0.782212 0.802718
vt 0.804053 0.782325
vt 0.824446 0.804166
vt 0.782212 0.802718
vt 0.802606 0.824559
vt 0.664235 0.683056
vt 0.646861 0.665687
vt 0.629492 0.683056
vt 0.629492 0.648312
vt 0.664235 0.648312
vt 0.865097 0.648312
vt 0.847725 0.665684
vt 0.830353 0.648312
vt 0.830353 0.683056
vt 0.865097 0.683056
vn -0.0000 1.0000 0.0000
vn 0.2588 0.9659 0.0000
vn 0.5000 0.8660 0.0000
vn 0.7071 0.7071 0.0000
vn 0.8660 0.5000 0.0000
vn 0.9659 0.2588 0.0000
vn 1.0000 0.0000 0.0000
vn 0.9659 -0.2588 0.0000
vn 0.8660 -0.5000 0.0000
vn 0.7071 -0.7071 0.0000
vn 0.5000 -0.8660 0.0000
vn 0.2588 -0.9659 0.0000
vn 0.0000 -1.0000 0.0000
vn -0.2588 -0.9659 0.0000
vn -0.5000 -0.8660 0.0000
vn -0.7071 -0.7071 0.0000
vn -0.8660 -0.5000 0.0000
vn -0.9659 -0.2588 0.0000
vn -1.0000 0.0000 0.0000
vn -0.9659 0.2588 0.0000
vn -0.8660 0.5000 0.0000
vn -0.7071 0.7071 0.0000
vn -0.5000 0.8660 0.0000
vn 0.1698 -0.6336 -0.7548
vn 0.0000 -0.6559 -0.7548
vn -0.2588 0.9659 0.0000
vn -0.3280 0.5680 0.7548
vn -0.4638 0.4638 0.7548
vn 0.0500 0.1866 -0.9812
vn 0.0000 0.1932 -0.9812
vn 0.0000 0.1932 0.9812
vn 0.0500 0.1866 0.9812
vn 0.0966 0.1673 -0.9812
vn 0.0966 0.1673 0.9812
vn 0.1366 0.1366 -0.9812
vn 0.1366 0.1366 0.9812
vn 0.1673 0.0966 -0.9812
vn 0.1673 0.0966 0.9812
vn 0.1866 0.0500 -0.9812
vn 0.1866 0.0500 0.9812
vn 0.1932 0.0000 -0.9812
vn 0.1932 -0.0000 0.9812
vn 0.1866 -0.0500 -0.9812
vn 0.1866 -0.0500 0.9812
vn 0.1673 -0.0966 -0.9812
vn 0.1673 -0.0966 0.9812
vn 0.1366 -0.1366 -0.9812
vn 0.1366 -0.1366 0.9812
vn 0.0966 -0.1673 -0.9812
vn 0.0966 -0.1673 0.9812
vn 0.0500 -0.1866 -0.9812
vn 0.0500 -0.1866 0.9812
vn 0.0000 -0.1932 -0.9812
vn 0.0000 -0.1932 0.9812
vn -0.0500 -0.1866 -0.9812
vn -0.0500 -0.1866 0.9812
vn -0.0966 -0.1673 -0.9812
vn -0.0966 -0.1673 0.9812
vn -0.1366 -0.1366 -0.9812
vn -0.1366 -0.1366 0.9812
vn -0.1673 -0.0966 -0.9812
vn -0.1673 -0.0966 0.9812
vn -0.1866 -0.0500 -0.9812
vn -0.1866 -0.0500 0.9812
vn -0.1932 0.0000 -0.9812
vn -0.1932 -0.0000 0.9812
vn -0.1866 0.0500 -0.9812
vn -0.1866 0.0500 0.9812
vn -0.1673 0.0966 -0.9812
vn -0.1673 0.0966 0.9812
vn -0.1366 0.1366 -0.9812
vn -0.1366 0.1366 0.9812
vn -0.0966 0.1673 -0.9812
vn -0.0966 0.1673 0.9812
vn -0.0500 0.1866 -0.9812
vn -0.0500 0.1866 0.9812
vn 0.0000 -0.0000 1.0000
vn -0.4638 -0.4638 -0.7548
vn -0.5680 -0.3280 -0.7548
vn 0.6336 0.1698 0.7548
vn 0.5680 0.3280 0.7548
vn -0.3280 0.5680 -0.7548
vn -0.1698 0.6336 -0.7548
vn 0.0000 -0.6559 0.7548
vn 0.1698 -0.6336 0.7548
vn -0.5680 -0.3280 0.7548
vn -0.4638 -0.4638 0.7548
vn 0.6336 0.1698 -0.7548
vn 0.6559 -0.0000 -0.7548
vn -0.1698 0.6336 0.7548
vn -0.6336 -0.1698 -0.7548
vn 0.6559 0.0000 0.7548
vn 0.0000 0.6559 -0.7548
vn -0.6336 -0.1698 0.7548
vn 0.6336 -0.1698 -0.7548
vn 0.0000 0.6559 0.7548
vn -0.6559 -0.0000 -0.7548
vn 0.6336 -0.1698 0.7548
vn 0.1698 0.6336 -0.7548
vn -0.6559 0.0000 0.7548
vn 0.5680 -0.3280 -0.7548
vn 0.1698 0.6336 0.7548
vn -0.6336 0.1698 -0.7548
vn 0.5680 -0.3280 0.7548
vn 0.3280 0.5680 -0.7548
vn -0.6336 0.1698 0.7548
vn 0.4638 -0.4638 -0.7548
vn -0.1698 -0.6336 -0.7548
vn 0.3280 0.5680 0.7548
vn -0.5680 0.3280 -0.7548
vn 0.4638 -0.4638 0.7548
vn -0.1698 -0.6336 0.7548
vn 0.4638 0.4638 -0.7548
vn -0.5680 0.3280 0.7548
vn 0.3280 -0.5680 -0.7548
vn -0.3280 -0.5680 -0.7548
vn 0.4638 0.4638 0.7548
vn -0.4638 0.4638 -0.7548
vn 0.3280 -0.5680 0.7548
vn -0.3280 -0.5680 0.7548
vn 0.5680 0.3280 -0.7548
vn 0.0000 0.0000 -1.0000
vn 0.0000 0.2410 -0.9705
vn -0.0001 0.0000 -1.0000
vn -0.2410 0.0000 -0.9705
vn 0.0000 -0.2410 -0.9705
vn 0.2409 0.0000 -0.9705
vn 0.2410 -0.0000 0.9705
vn -0.0000 -0.2410 0.9705
vn -0.2410 -0.0000 0.9705
vn -0.0000 0.2410 0.9705
usemtl MI_Trim_Metal_Vertex
s 1
f 49/1/1 52/2/1 51/3/2 50/4/2
f 50/4/2 51/3/2 54/5/3 53/6/3
f 53/6/3 54/5/3 56/7/4 55/8/4
f 55/8/4 56/7/4 58/9/5 57/10/5
f 57/10/5 58/9/5 60/11/6 59/12/6
f 59/12/6 60/11/6 62/13/7 61/14/7
f 61/14/7 62/13/7 64/15/8 63/16/8
f 63/16/8 64/15/8 66/17/9 65/18/9
f 65/18/9 66/17/9 68/19/10 67/20/10
f 67/20/10 68/19/10 70/21/11 69/22/11
f 69/22/11 70/21/11 72/23/12 71/24/12
f 71/24/12 72/23/12 74/25/13 73/26/13
f 73/27/13 74/28/13 76/29/14 75/30/14
f 75/30/14 76/29/14 78/31/15 77/32/15
f 77/32/15 78/31/15 80/33/16 79/34/16
f 79/34/16 80/33/16 82/35/17 81/36/17
f 81/36/17 82/35/17 84/37/18 83/38/18
f 83/38/18 84/37/18 86/39/19 85/40/19
f 85/40/19 86/39/19 88/41/20 87/42/20
f 87/42/20 88/41/20 90/43/21 89/44/21
f 89/44/21 90/43/21 92/45/22 91/46/22
f 91/46/22 92/45/22 94/47/23 93/48/23
f 47/49/24 1/50/25 149/51/25 143/52/24
f 93/48/23 94/47/23 96/53/26 95/54/26
f 95/54/26 96/53/26 52/2/1 49/1/1
f 22/55/27 20/56/28 116/57/28 118/58/27
f 3/59/29 1/60/30 49/61/30 50/62/29
f 2/63/31 4/64/32 51/65/32 52/66/31
f 5/67/33 3/59/29 50/62/29 53/68/33
f 4/64/32 6/69/34 54/70/34 51/65/32
f 7/71/35 5/67/33 53/68/33 55/72/35
f 6/69/34 8/73/36 56/74/36 54/70/34
f 9/75/37 7/71/35 55/72/35 57/76/37
f 8/73/36 10/77/38 58/78/38 56/74/36
f 11/79/39 9/75/37 57/76/37 59/80/39
f 10/77/38 12/81/40 60/82/40 58/78/38
f 13/83/41 11/79/39 59/80/39 61/84/41
f 12/81/40 14/85/42 62/86/42 60/82/40
f 15/87/43 13/83/41 61/84/41 63/88/43
f 14/85/42 16/89/44 64/90/44 62/86/42
f 17/91/45 15/87/43 63/88/43 65/92/45
f 16/89/44 18/93/46 66/94/46 64/90/44
f 19/95/47 17/91/45 65/92/45 67/96/47
f 18/93/46 20/56/48 68/97/48 66/94/46
f 21/98/49 19/95/47 67/96/47 69/99/49
f 20/56/48 22/55/50 70/100/50 68/97/48
f 23/101/51 21/98/49 69/99/49 71/102/51
f 22/55/50 24/103/52 72/104/52 70/100/50
f 25/105/53 23/101/51 71/102/51 73/106/53
f 24/103/52 26/107/54 74/108/54 72/104/52
f 27/109/55 25/105/53 73/106/53 75/110/55
f 26/107/54 28/111/56 76/112/56 74/108/54
f 29/113/57 27/109/55 75/110/55 77/114/57
f 28/111/56 30/115/58 78/116/58 76/112/56
f 31/117/59 29/113/57 77/114/57 79/118/59
f 30/115/58 32/119/60 80/120/60 78/116/58
f 33/121/61 31/117/59 79/118/59 81/122/61
f 32/119/60 34/123/62 82/124/62 80/120/60
f 35/125/63 33/121/61 81/122/61 83/126/63
f 34/123/62 36/127/64 84/128/64 82/124/62
f 37/129/65 35/125/63 83/126/63 85/130/65
f 36/127/64 38/131/66 86/132/66 84/128/64
f 39/133/67 37/129/65 85/130/65 87/134/67
f 38/131/66 40/135/68 88/136/68 86/132/66
f 41/137/69 39/133/67 87/134/67 89/138/69
f 40/135/68 42/139/70 90/140/70 88/136/68
f 43/141/71 41/137/69 89/138/69 91/142/71
f 42/139/70 44/143/72 92/144/72 90/140/70
f 45/145/73 43/141/71 91/142/71 93/146/73
f 44/143/72 46/147/74 94/148/74 92/144/72
f 47/49/75 45/145/73 93/146/73 95/149/75
f 46/147/74 48/150/76 96/151/76 94/148/74
f 1/50/30 47/49/75 95/149/75 49/152/30
f 48/150/76 2/153/31 52/154/31 96/151/76
f 99/155/77 146/156/77 147/157/77 108/158/77 106/159/77 104/160/77 102/161/77
f 7/71/78 9/75/79 105/162/79 103/163/78
f 36/127/80 34/123/81 130/164/81 132/165/80
f 21/98/82 23/101/83 119/166/83 117/167/82
f 2/153/84 48/150/85 144/168/85 146/169/84
f 10/77/86 8/73/87 104/170/87 106/171/86
f 35/125/88 37/129/89 152/172/89 131/173/88
f 24/103/90 22/55/27 118/58/27 120/174/90
f 9/75/79 11/79/91 107/175/91 105/162/79
f 38/131/92 36/127/80 132/165/80 145/176/92
f 23/101/83 25/105/93 151/177/93 119/166/83
f 12/81/94 10/77/86 106/171/86 108/178/94
f 37/129/89 39/133/95 135/179/95 152/172/89
f 26/107/96 24/103/90 120/174/90 148/180/96
f 11/79/91 13/83/97 150/181/97 107/175/91
f 40/135/98 38/131/92 145/176/92 136/182/98
f 25/105/93 27/109/99 123/183/99 151/177/93
f 14/85/100 12/81/94 108/178/94 147/184/100
f 39/133/95 41/137/101 137/185/101 135/179/95
f 28/111/102 26/107/96 148/180/96 124/186/102
f 13/83/97 15/87/103 111/187/103 150/181/97
f 42/139/104 40/135/98 136/182/98 138/188/104
f 27/109/99 29/113/105 125/189/105 123/183/99
f 16/89/106 14/85/100 147/184/100 112/190/106
f 41/137/101 43/141/107 139/191/107 137/185/101
f 1/60/25 3/59/108 98/192/108 149/193/25
f 30/115/109 28/111/102 124/186/102 126/194/109
f 15/87/103 17/91/110 113/195/110 111/187/103
f 44/143/111 42/139/104 138/188/104 140/196/111
f 4/64/112 2/63/84 146/197/84 99/198/112
f 29/113/105 31/117/113 127/199/113 125/189/105
f 18/93/114 16/89/106 112/190/106 114/200/114
f 43/141/107 45/145/115 141/201/115 139/191/107
f 3/59/108 5/67/116 101/202/116 98/192/108
f 32/119/117 30/115/109 126/194/109 128/203/117
f 17/91/110 19/95/118 115/204/118 113/195/110
f 46/147/119 44/143/111 140/196/111 142/205/119
f 6/69/120 4/64/112 99/198/112 102/206/120
f 31/117/113 33/121/121 129/207/121 127/199/113
f 20/56/28 18/93/114 114/200/114 116/57/28
f 45/145/115 47/49/24 143/52/24 141/201/115
f 5/67/116 7/71/78 103/163/78 101/202/116
f 34/123/81 32/119/117 128/203/117 130/164/81
f 19/95/118 21/98/82 117/167/82 115/204/118
f 48/150/85 46/147/119 142/205/119 144/168/85
f 8/73/87 6/69/120 102/206/120 104/170/87
f 33/121/121 35/125/88 131/173/88 129/207/121
f 148/208/77 145/209/77 132/210/77 130/211/77 128/212/77 126/213/77 124/214/77
f 148/208/77 120/215/77 118/216/77 116/217/77 114/218/77 112/219/77 147/157/77
f 145/209/77 146/156/77 144/220/77 142/221/77 140/222/77 138/223/77 136/224/77
f 152/225/122 151/226/122 123/227/122 125/228/122 127/229/122 129/230/122 131/231/122
f 151/226/122 150/232/122 111/233/122 113/234/122 115/235/122 117/236/122 119/237/122
f 150/232/122 149/238/122 98/239/122 101/240/122 103/241/122 105/242/122 107/243/122
f 152/225/122 135/244/122 137/245/122 139/246/122 141/247/122 143/248/122 149/238/122
f 134/249/77 100/250/77 146/156/77 145/209/77
f 100/250/77 110/251/77 147/157/77 146/156/77
f 110/251/77 122/252/77 148/208/77 147/157/77
f 122/252/77 134/249/77 145/209/77 148/208/77
f 109/253/122 97/254/122 149/238/122 150/232/122
f 121/255/122 109/253/122 150/232/122 151/226/122
f 133/256/122 121/255/122 151/226/122 152/225/122
f 97/254/122 133/256/122 152/225/122 149/238/122
s 2
f 97/257/123 154/258/124 133/259/125
f 133/259/125 154/258/124 121/260/126
f 121/260/126 154/258/124 109/261/127
f 154/258/124 97/257/123 109/261/127
s 3
f 110/262/128 153/263/77 122/264/129
f 134/265/130 153/263/77 100/266/131
f 100/266/131 153/263/77 110/262/128
f 122/264/129 153/263/77 134/265/130
