# Blender v3.6.0 OBJ File: 'StandardOBJ.blend'
# www.blender.org
mtllib Mug.mtl
o Mug_Cylinder.068
v -0.016174 0.168257 -0.068010
v 0.019425 0.168156 -0.067867
v 0.050182 0.172246 -0.049943
v 0.067857 0.172315 -0.019042
v 0.049790 0.172315 0.047314
v 0.011594 0.179240 0.064960
v -0.016709 0.172315 0.064845
v -0.047467 0.172315 0.046922
v -0.047075 0.172315 -0.050335
v 0.015061 0.168156 -0.053230
v -0.012725 0.168257 -0.053342
v 0.052864 0.172315 -0.015121
v 0.038762 0.172315 0.036672
v 0.008949 0.179240 0.050445
v -0.013143 0.172315 0.050356
v -0.037150 0.172315 0.036366
v -0.036844 0.172315 -0.039546
v -0.035862 0.054452 0.038300
v 0.014037 0.054452 -0.055807
v -0.013006 0.054452 -0.055924
v -0.016927 0.000786 -0.071188
v 0.017714 0.000786 -0.071037
v -0.046206 0.000786 0.049512
v -0.045715 0.000786 -0.052626
v 0.049117 0.000786 -0.052214
v 0.067675 0.000786 -0.019762
v 0.048704 0.000786 0.049924
v 0.017119 0.000786 0.068486
v -0.017563 0.000786 0.068336
v 0.070387 0.171648 0.014302
v 0.054838 0.171648 0.010906
v 0.039383 0.172246 -0.039340
v 0.067531 0.000786 0.015994
v -0.067671 0.175402 -0.017823
v -0.052920 0.175402 -0.014169
v -0.062227 0.000786 -0.019221
v -0.068178 0.171503 0.014916
v -0.053316 0.171503 0.011385
v -0.062365 0.000786 0.015057
v -0.017861 -0.004643 -0.074734
v 0.018545 -0.004643 -0.074576
v -0.048631 -0.004643 0.052114
v -0.048115 -0.004643 -0.055227
v 0.051547 -0.004643 -0.054794
v 0.071050 -0.004643 -0.020689
v 0.051113 -0.004643 0.052546
v 0.017919 -0.004643 0.072054
v -0.018529 -0.004643 0.071895
v 0.070898 -0.004643 0.016888
v -0.065468 -0.004643 -0.020120
v -0.065613 -0.004643 0.015903
v 0.018545 0.033222 -0.074576
v -0.017861 0.033222 -0.074734
v 0.071050 0.033222 -0.020689
v 0.051547 0.033222 -0.054794
v 0.017919 0.033222 0.072054
v 0.051113 0.033222 0.052546
v -0.048631 0.033222 0.052114
v -0.018529 0.033222 0.071895
v -0.065613 0.033222 0.015903
v -0.048115 0.033222 -0.055227
v 0.070898 0.033222 0.016888
v -0.065468 0.033222 -0.020120
v -0.017842 0.091593 -0.071369
v 0.018461 0.091593 -0.071218
v -0.051957 0.091593 0.049645
v -0.049245 0.091593 -0.052759
v 0.051303 0.091593 -0.052346
v 0.070711 0.091593 -0.019810
v 0.050871 0.091593 0.050058
v 0.017768 0.091593 0.068668
v -0.019739 0.091593 0.068517
v 0.070560 0.091593 0.016040
v -0.068976 0.091593 -0.019267
v -0.070371 0.091593 0.015100
v 0.018461 0.129273 -0.071218
v -0.017842 0.129273 -0.071369
v 0.070711 0.129273 -0.019810
v 0.051303 0.129273 -0.052346
v 0.017768 0.129273 0.068668
v 0.050871 0.129273 0.050058
v -0.051957 0.129273 0.049645
v -0.019739 0.129273 0.068517
v -0.070371 0.129273 0.015100
v -0.049245 0.129273 -0.052759
v 0.070560 0.129273 0.016040
v -0.068976 0.129273 -0.019267
v -0.015666 0.086279 -0.062914
v 0.016241 0.086279 -0.062782
v -0.045648 0.086279 0.043443
v -0.043265 0.086279 -0.046558
v 0.045105 0.086279 -0.046195
v 0.062162 0.086279 -0.017600
v 0.044726 0.086279 0.043806
v 0.015632 0.086279 0.060163
v -0.017332 0.086279 0.060030
v 0.062030 0.086279 0.013908
v -0.060606 0.086279 -0.017123
v -0.061832 0.086279 0.013082
v 0.016241 0.134587 -0.062782
v -0.015666 0.134587 -0.062914
v 0.062162 0.134587 -0.017600
v 0.045105 0.134587 -0.046195
v 0.015632 0.134587 0.060163
v 0.044726 0.134587 0.043806
v -0.045648 0.134587 0.043443
v -0.017332 0.134587 0.060030
v -0.061832 0.134587 0.013082
v -0.043265 0.134587 -0.046558
v 0.062030 0.134587 0.013908
v -0.060606 0.134587 -0.017123
v 0.068888 -0.003483 0.008647
v 0.072167 -0.003483 0.009913
v 0.073550 -0.003482 0.012982
v 0.072208 -0.003483 0.016052
v 0.068944 -0.003483 0.017318
v 0.065660 -0.003480 0.016056
v 0.064273 -0.003478 0.012982
v 0.065621 -0.003480 0.009908
v -0.035479 0.054452 -0.041434
v 0.038552 0.054452 -0.041113
v 0.053038 0.054452 -0.015779
v 0.038229 0.054452 0.038621
v 0.013572 0.054452 0.053111
v -0.013502 0.054452 0.052994
v 0.052926 0.054452 0.012134
v -0.048369 0.054452 -0.015357
v -0.048476 0.054452 0.011402
v 0.059426 0.149860 0.009323
v 0.059234 0.150243 -0.013307
v 0.058166 0.168783 0.009323
v 0.057974 0.169167 -0.013307
v 0.060095 0.049371 -0.014083
v 0.060095 0.049371 0.010183
v 0.065874 0.032546 -0.014083
v 0.065874 0.032546 0.010183
v 0.098291 0.083552 -0.013927
v 0.068458 0.051362 -0.014083
v 0.095591 0.073308 -0.013987
v 0.088974 0.063593 -0.014037
v 0.079446 0.055887 -0.014071
v 0.068458 0.051362 0.010183
v 0.098244 0.083556 0.009813
v 0.079442 0.055887 0.010155
v 0.088960 0.063594 0.010075
v 0.095562 0.073310 0.009954
v 0.087667 0.039680 -0.014083
v 0.114964 0.073469 -0.013964
v 0.097648 0.044839 -0.014074
v 0.106340 0.053072 -0.014048
v 0.112421 0.063125 -0.014010
v 0.114928 0.073470 0.009902
v 0.087667 0.039680 0.010183
v 0.112399 0.063126 0.010009
v 0.106330 0.053072 0.010101
v 0.097645 0.044839 0.010162
v 0.094898 0.149774 -0.013550
v 0.101216 0.143400 -0.013626
v 0.101038 0.142876 0.009110
v 0.094710 0.149275 0.009081
v 0.121712 0.162698 -0.013620
v 0.115484 0.169150 -0.013565
v 0.115293 0.168642 0.009065
v 0.121529 0.162173 0.009094
vt 0.889261 0.248572
vt 0.941354 0.219704
vt 0.972139 0.169934
vt 0.971899 0.115096
vt 0.940669 0.063059
vt 0.888273 0.034592
vt 0.830741 0.034823
vt 0.783226 0.063691
vt 0.756420 0.116533
vt 0.756649 0.169104
vt 0.784040 0.220335
vt 0.831795 0.248803
vt 0.889261 0.248572
vt 0.831795 0.248803
vt 0.784040 0.220335
vt 0.756649 0.169104
vt 0.756420 0.116533
vt 0.783226 0.063691
vt 0.830741 0.034823
vt 0.888273 0.034592
vt 0.940669 0.063059
vt 0.971899 0.115096
vt 0.972139 0.169934
vt 0.941354 0.219704
vt 0.079270 0.709989
vt 0.079270 0.753450
vt 0.108823 0.753450
vt 0.108823 0.709989
vt 0.328414 0.709989
vt 0.328414 0.753450
vt 0.357985 0.753450
vt 0.357985 0.709989
vt 0.390820 0.709989
vt 0.390820 0.753450
vt 0.420394 0.753450
vt 0.420394 0.709989
vt 0.170300 0.709989
vt 0.170300 0.753450
vt 0.202554 0.753450
vt 0.202554 0.709989
vt 0.233404 0.709989
vt 0.233404 0.753450
vt 0.266882 0.753450
vt 0.266882 0.709989
vt 0.298491 0.753450
vt 0.298491 0.709989
vt 0.138712 0.709989
vt 0.138712 0.753450
vt 0.047120 0.709989
vt 0.047120 0.753450
vt 0.247590 0.640050
vt 0.247590 0.695167
vt 0.293223 0.695167
vt 0.293223 0.640050
vt 0.632291 0.640050
vt 0.632291 0.695167
vt 0.677952 0.695167
vt 0.677952 0.640050
vt 0.728651 0.640050
vt 0.728651 0.695167
vt 0.774317 0.695167
vt 0.774317 0.640050
vt 0.388149 0.640050
vt 0.388149 0.695167
vt 0.437951 0.695167
vt 0.437951 0.640050
vt 0.485586 0.640050
vt 0.485586 0.695167
vt 0.537280 0.695167
vt 0.537280 0.640050
vt 0.586087 0.695167
vt 0.586087 0.640050
vt 0.339373 0.640050
vt 0.339373 0.695167
vt 0.197948 0.640050
vt 0.197948 0.695167
vt 0.728398 0.951081
vt 0.728398 0.975125
vt 0.808604 0.975125
vt 0.808604 0.951081
vt 0.896767 0.950797
vt 0.896767 0.974998
vt 0.973429 0.974998
vt 0.973429 0.950797
vt 0.097410 0.950797
vt 0.097410 0.974998
vt 0.178619 0.974998
vt 0.178619 0.950797
vt 0.330104 0.951081
vt 0.330104 0.975125
vt 0.408163 0.975125
vt 0.408163 0.951081
vt 0.495935 0.950797
vt 0.495935 0.974998
vt 0.579060 0.974998
vt 0.579060 0.950797
vt 0.252470 0.951081
vt 0.252470 0.975125
vt 0.734753 0.950797
vt 0.734753 0.974998
vt 0.815753 0.974998
vt 0.815753 0.950797
vt 0.889813 0.951081
vt 0.889813 0.975125
vt 0.973865 0.975125
vt 0.973865 0.951081
vt 0.422383 0.950797
vt 0.422383 0.974998
vt 0.090456 0.951081
vt 0.090456 0.975125
vt 0.171471 0.975125
vt 0.171471 0.951081
vt 0.258825 0.950797
vt 0.258825 0.974998
vt 0.338671 0.974998
vt 0.338671 0.950797
vt 0.013794 0.951081
vt 0.013794 0.975125
vt 0.491288 0.975125
vt 0.491288 0.951081
vt 0.564840 0.975125
vt 0.564840 0.951081
vt 0.648552 0.951081
vt 0.648552 0.975125
vt 0.657119 0.974998
vt 0.657119 0.950797
vt 0.013358 0.950797
vt 0.013358 0.974998
vt 0.814177 0.718930
vt 0.810730 0.722586
vt 0.810868 0.727465
vt 0.814533 0.730689
vt 0.819548 0.730372
vt 0.823001 0.726720
vt 0.822864 0.721834
vt 0.819193 0.718607
vt 0.026806 0.207926
vt 0.026806 0.252068
vt 0.005254 0.252068
vt 0.005254 0.207926
vt 0.026806 0.200246
vt 0.026806 0.252068
vt 0.005254 0.252068
vt 0.005254 0.200246
vt 0.026806 0.164608
vt 0.005254 0.164608
vt 0.026806 0.164608
vt 0.026806 0.210571
vt 0.005254 0.210571
vt 0.005254 0.164608
vt 0.005254 0.252068
vt 0.005254 0.208548
vt 0.026806 0.208548
vt 0.026806 0.252068
vt 0.026806 0.208422
vt 0.026806 0.252068
vt 0.005254 0.252068
vt 0.005254 0.208422
vt 0.026806 0.164608
vt 0.005254 0.164608
vt 0.026806 0.252068
vt 0.005254 0.252068
vt 0.005254 0.164608
vt 0.026806 0.164608
vt 0.026806 0.164608
vt 0.005254 0.164608
vt 0.026806 0.212165
vt 0.026806 0.252068
vt 0.005254 0.252068
vt 0.005254 0.212165
vt 0.026806 0.164608
vt 0.005254 0.164608
vt 0.002132 0.951140
vt 0.276232 0.951789
vt 0.276758 0.967797
vt 0.002132 0.967797
vt 0.002132 0.949914
vt 0.276758 0.949776
vt 0.276405 0.967797
vt 0.002132 0.967797
vt 0.997998 0.954423
vt 0.723741 0.951423
vt 0.724850 0.933019
vt 0.997998 0.933019
vt 0.997998 0.967797
vt 0.723853 0.967797
vt 0.723512 0.950036
vt 0.997998 0.950910
vt 0.723372 0.933019
vt 0.997998 0.933019
vt 0.002132 0.933019
vt 0.276295 0.933019
vt 0.997998 0.967797
vt 0.723372 0.967797
vt 0.997998 0.967797
vt 0.723372 0.967797
vt 0.724525 0.950068
vt 0.997998 0.949347
vt 0.276758 0.933019
vt 0.276458 0.951508
vt 0.002132 0.952642
vt 0.002132 0.933019
vt 0.002132 0.933019
vt 0.275477 0.933019
vt 0.276738 0.967797
vt 0.002132 0.967797
vt 0.724503 0.933019
vt 0.997998 0.933019
vt 0.724503 0.933019
vt 0.724525 0.950068
vt 0.997998 0.949347
vt 0.997998 0.933019
vt 0.276738 0.967797
vt 0.276458 0.951508
vt 0.002132 0.952642
vt 0.002132 0.967797
vt 0.002132 0.933019
vt 0.002132 0.951140
vt 0.276232 0.951789
vt 0.275477 0.933019
vt 0.276758 0.933019
vt 0.002132 0.933019
vt 0.997998 0.967797
vt 0.723372 0.967797
vt 0.723741 0.951423
vt 0.723372 0.967797
vt 0.997998 0.967797
vt 0.997998 0.954423
vt 0.002132 0.933019
vt 0.002132 0.949914
vt 0.276758 0.949776
vt 0.276295 0.933019
vt 0.997998 0.950910
vt 0.997998 0.933019
vt 0.723372 0.933019
vt 0.723512 0.950036
vt 0.997998 0.967797
vt 0.723853 0.967797
vt 0.997998 0.933019
vt 0.724850 0.933019
vt 0.002132 0.967797
vt 0.276405 0.967797
vt 0.002132 0.967797
vt 0.276758 0.967797
vt 0.667451 0.401524
vt 0.791533 0.403231
vt 0.799484 0.424041
vt 0.788000 0.443950
vt 0.664558 0.443950
vt 0.656598 0.423116
vt 0.799484 0.443950
vt 0.656598 0.443950
vt 0.689724 0.427045
vt 0.728098 0.421396
vt 0.770921 0.427062
vt 0.799484 0.443950
vt 0.656598 0.443950
vt 0.688863 0.425001
vt 0.728457 0.418594
vt 0.769700 0.425648
vt 0.543416 0.396145
vt 0.543416 0.443641
vt 0.518502 0.443641
vt 0.518502 0.396145
vt 0.742965 0.442244
vt 0.742965 0.395788
vt 0.769543 0.395788
vt 0.769543 0.442244
vt 0.545387 0.394454
vt 0.545387 0.443962
vt 0.520178 0.443962
vt 0.520178 0.394454
vt 0.674041 0.393847
vt 0.673838 0.442244
vt 0.598375 0.442244
vt 0.598328 0.393847
vt 0.744727 0.443962
vt 0.621202 0.443962
vt 0.621202 0.394454
vt 0.748559 0.394454
vt 0.756863 0.442244
vt 0.756863 0.393847
vt 0.769585 0.393847
vt 0.769585 0.442244
vt 0.618345 0.396145
vt 0.740533 0.396145
vt 0.744266 0.443641
vt 0.618345 0.443641
vt 0.680341 0.442244
vt 0.590316 0.442244
vt 0.590347 0.395788
vt 0.680222 0.395788
vt 0.771165 0.443962
vt 0.766703 0.394454
vt 0.842227 0.394454
vt 0.842227 0.443962
vt 0.576807 0.395788
vt 0.576850 0.442244
vt 0.517262 0.442244
vt 0.517262 0.395788
vt 0.739417 0.442188
vt 0.739412 0.393871
vt 0.713605 0.442028
vt 0.713605 0.393939
vt 0.690021 0.442242
vt 0.690142 0.393871
vt 0.693118 0.395790
vt 0.693188 0.442224
vt 0.711525 0.395945
vt 0.711525 0.442178
vt 0.730034 0.395829
vt 0.730031 0.442227
vt 0.563979 0.394454
vt 0.563979 0.443962
vt 0.583777 0.394454
vt 0.583777 0.443962
vt 0.603306 0.394454
vt 0.603306 0.443962
vt 0.561791 0.396145
vt 0.561791 0.443641
vt 0.581357 0.396145
vt 0.581357 0.443641
vt 0.600658 0.396145
vt 0.600658 0.443641
vt 0.762090 0.443641
vt 0.766438 0.396145
vt 0.836784 0.396145
vt 0.836784 0.443641
vt 0.578819 0.442244
vt 0.578920 0.393847
vt 0.517262 0.442244
vt 0.517262 0.393847
vn 0.0000 -1.0000 0.0000
vn 0.0000 1.0000 -0.0000
vn -0.7461 0.0000 -0.6658
vn -0.2804 0.0000 -0.9599
vn -0.2887 0.0000 0.9574
vn -0.7558 0.0000 0.6548
vn -0.9765 0.0000 0.2155
vn -0.9733 0.0000 -0.2295
vn 0.7143 0.0000 -0.6998
vn 0.9670 0.0000 -0.2549
vn 0.9676 0.0000 0.2525
vn 0.7158 0.0000 0.6983
vn 0.2604 0.0000 0.9655
vn 0.2688 0.0000 -0.9632
vn -0.7080 0.0000 -0.7062
vn -0.2623 0.0000 -0.9650
vn -0.2638 0.0000 0.9646
vn -0.7212 0.0000 0.6928
vn -0.9749 0.0000 0.2227
vn -0.9592 0.0000 -0.2826
vn 0.7013 0.0000 -0.7128
vn 0.9646 0.0000 -0.2637
vn 0.9652 0.0000 0.2614
vn 0.7027 0.0000 0.7115
vn 0.2513 0.0000 0.9679
vn 0.2598 0.0000 -0.9657
vn -0.1367 -0.8566 0.4976
vn -0.1353 -0.8566 0.4980
vn 0.1310 -0.8552 0.5014
vn 0.1298 -0.8552 0.5017
vn 0.4977 0.8568 -0.1351
vn 0.4971 0.8568 -0.1373
vn 0.4989 0.8558 0.1369
vn 0.4996 0.8558 0.1341
vn 0.3641 0.8552 0.3689
vn 0.3644 0.8552 0.3687
vn 0.1310 0.8552 0.5014
vn 0.1298 0.8552 0.5017
vn -0.1356 -0.8542 -0.5020
vn -0.1376 -0.8542 -0.5014
vn -0.3730 -0.8510 -0.3696
vn -0.3710 -0.8511 -0.3716
vn -0.5033 0.8517 -0.1461
vn -0.5020 0.8516 -0.1511
vn -0.3730 0.8510 -0.3696
vn -0.3710 0.8511 -0.3716
vn 0.1349 -0.8540 -0.5025
vn 0.1357 -0.8540 -0.5022
vn 0.1349 0.8540 -0.5025
vn 0.1357 0.8540 -0.5022
vn 0.3639 0.8542 -0.3714
vn 0.3651 0.8542 -0.3701
vn 0.3641 -0.8552 0.3689
vn 0.3644 -0.8552 0.3687
vn 0.4989 -0.8558 0.1369
vn 0.4996 -0.8558 0.1341
vn -0.5050 0.8553 0.1158
vn -0.5052 0.8553 0.1147
vn 0.4977 -0.8568 -0.1351
vn 0.4971 -0.8568 -0.1373
vn 0.3639 -0.8542 -0.3714
vn 0.3651 -0.8542 -0.3701
vn -0.1367 0.8566 0.4976
vn -0.1353 0.8566 0.4980
vn -0.3722 0.8572 0.3559
vn -0.3709 0.8572 0.3573
vn -0.5020 -0.8516 -0.1511
vn -0.5033 -0.8517 -0.1461
vn -0.5052 -0.8553 0.1147
vn -0.5050 -0.8553 0.1158
vn -0.3709 -0.8572 0.3573
vn -0.3722 -0.8572 0.3559
vn -0.1376 0.8542 -0.5014
vn -0.1356 0.8542 -0.5020
vn -0.0005 -1.0000 0.0000
vn -0.0552 0.9979 -0.0338
vn -0.0543 0.9980 -0.0335
vn -0.0523 0.9981 -0.0323
vn -0.0554 0.9979 -0.0339
vn -0.0594 0.9971 -0.0478
vn 0.0802 0.9955 -0.0501
vn 0.0879 0.9947 -0.0537
vn -0.0494 0.9975 -0.0497
vn -0.0003 0.9999 0.0107
vn -0.0004 0.9999 0.0100
vn 0.0046 1.0000 0.0031
vn 0.0048 1.0000 0.0024
vn 0.0566 0.9980 -0.0295
vn 0.0584 0.9978 -0.0305
vn -0.0059 0.9999 -0.0105
vn -0.1365 0.9906 -0.0043
vn -0.1315 0.9913 -0.0042
vn -0.0058 0.9999 -0.0104
vn 0.0786 0.9945 -0.0690
vn 0.0784 0.9945 -0.0690
vn -0.0059 0.9982 0.0588
vn -0.0063 0.9985 0.0540
vn 0.0215 0.9993 0.0315
vn 0.0229 0.9994 0.0248
vn -0.7242 0.0001 0.6896
vn -0.7219 0.0003 0.6920
vn -0.2763 0.0179 0.9609
vn -0.2575 0.0181 0.9661
vn -0.2768 0.0164 -0.9608
vn -0.2669 0.0165 -0.9636
vn -0.7168 0.0006 -0.6972
vn -0.7315 -0.0004 -0.6818
vn 0.2371 0.0213 0.9713
vn 0.2385 0.0213 0.9709
vn 0.6866 0.0094 0.7270
vn 0.6789 0.0099 0.7341
vn 0.9616 -0.0040 -0.2743
vn 0.9617 -0.0040 -0.2742
vn 0.7104 0.0056 -0.7038
vn 0.7207 0.0054 -0.6932
vn 0.2631 0.0149 -0.9646
vn 0.2767 0.0146 -0.9608
vn -0.9650 -0.0228 -0.2612
vn -0.9655 -0.0229 -0.2594
vn 0.9686 -0.0065 0.2487
vn 0.9698 -0.0065 0.2437
vn -0.9715 -0.0245 0.2358
vn -0.9689 -0.0241 0.2463
vn 0.9688 0.0300 -0.2460
vn 0.9647 0.0281 0.2620
vn 0.9652 0.0282 0.2601
vn 0.9720 0.0305 -0.2331
vn -0.9624 0.0025 0.2715
vn -0.9686 0.0050 -0.2487
vn -0.9699 0.0050 -0.2436
vn -0.9623 0.0025 0.2718
vn 0.7242 0.0023 -0.6896
vn 0.7214 0.0020 -0.6925
vn -0.6870 -0.0119 -0.7266
vn -0.6762 -0.0126 -0.7366
vn 0.7352 0.0020 0.6779
vn 0.7163 0.0004 0.6977
vn -0.2393 -0.0239 -0.9707
vn 0.2763 -0.0188 -0.9609
vn 0.2536 -0.0191 -0.9671
vn -0.2379 -0.0239 -0.9710
vn -0.2766 -0.0178 0.9608
vn 0.2796 -0.0189 0.9599
vn 0.2662 -0.0191 0.9637
vn -0.2609 -0.0181 0.9652
vn -0.7235 -0.0074 0.6903
vn -0.7105 -0.0077 0.7037
vn 0.0002 0.0003 -1.0000
vn 0.0004 0.0007 -1.0000
vn -0.0000 0.0000 -1.0000
vn 0.3864 -0.9223 0.0000
vn 0.3863 -0.9224 0.0000
vn 0.3111 -0.9504 0.0000
vn 0.0009 0.0017 1.0000
vn 0.0004 0.0007 1.0000
vn 0.0000 -0.0000 1.0000
vn -0.9884 0.1521 -0.0030
vn -0.9883 0.1526 -0.0030
vn -0.9988 0.0479 -0.0043
vn -0.0035 0.0074 1.0000
vn -0.0018 0.0109 0.9999
vn -0.0000 0.0111 0.9999
vn -0.0027 0.0052 1.0000
vn -0.3071 0.9517 -0.0000
vn -0.2316 0.9728 0.0000
vn -0.0008 0.0046 -1.0000
vn -0.0032 0.0048 -1.0000
vn -0.0041 0.0050 -1.0000
vn -0.0000 0.0047 -1.0000
vn 0.9876 -0.1572 0.0025
vn 0.9972 -0.0748 0.0038
vn 0.9875 -0.1575 0.0025
vn 0.0026 -0.0003 1.0000
vn 0.0005 0.0011 1.0000
vn 0.0054 -0.0023 1.0000
vn 0.0015 0.9998 0.0197
vn -0.5100 0.8602 -0.0001
vn -0.5102 0.8601 -0.0001
vn -0.7353 0.6778 -0.0005
vn -0.7356 0.6774 -0.0005
vn -0.9096 0.4155 -0.0012
vn -0.9100 0.4147 -0.0012
vn 0.9238 -0.3828 0.0009
vn 0.9240 -0.3823 0.0009
vn 0.7785 -0.6276 0.0004
vn 0.7788 -0.6273 0.0004
vn 0.5790 -0.8153 0.0001
vn 0.5791 -0.8152 0.0001
vn 0.0021 0.0046 1.0000
vn 0.0018 0.0036 1.0000
vn 0.0028 0.0075 1.0000
vn 0.0028 0.0072 1.0000
vn 0.0028 0.0100 0.9999
vn 0.0028 0.0102 0.9999
vn 0.0007 0.0015 -1.0000
vn 0.0009 0.0020 -1.0000
vn 0.0012 0.0030 -1.0000
vn 0.0012 0.0032 -1.0000
vn 0.0012 0.0043 -1.0000
vn 0.0012 0.0042 -1.0000
vn -0.0052 0.0043 -1.0000
vn -0.0053 0.0035 -1.0000
vn -0.0054 0.0023 -1.0000
vn -0.7105 -0.7034 -0.0216
vn 0.7196 0.6941 0.0217
vn -0.0150 -0.9997 -0.0195
usemtl MI_Trim_Metal
s 4
f 41/1/1 44/2/1 45/3/1 49/4/1 46/5/1 47/6/1 48/7/1 42/8/1 51/9/1 50/10/1 43/11/1 40/12/1
f 52/13/2 53/14/2 61/15/2 63/16/2 60/17/2 58/18/2 59/19/2 56/20/2 57/21/2 62/22/2 54/23/2 55/24/2
f 43/25/3 61/26/3 53/27/4 40/28/4
f 48/29/5 59/30/5 58/31/6 42/32/6
f 51/33/7 60/34/7 63/35/8 50/36/8
f 44/37/9 55/38/9 54/39/10 45/40/10
f 49/41/11 62/42/11 57/43/12 46/44/12
f 42/32/6 58/31/6 60/34/7 51/33/7
f 46/44/12 57/43/12 56/45/13 47/46/13
f 45/40/10 54/39/10 62/42/11 49/41/11
f 47/46/13 56/45/13 59/30/5 48/29/5
f 41/47/14 52/48/14 55/38/9 44/37/9
f 50/49/8 63/50/8 61/26/3 43/25/3
f 40/28/4 53/27/4 52/48/14 41/47/14
s 5
f 67/51/15 85/52/15 77/53/16 64/54/16
f 72/55/17 83/56/17 82/57/18 66/58/18
f 75/59/19 84/60/19 87/61/20 74/62/20
f 68/63/21 79/64/21 78/65/22 69/66/22
f 73/67/23 86/68/23 81/69/24 70/70/24
f 66/58/18 82/57/18 84/60/19 75/59/19
f 70/70/24 81/69/24 80/71/25 71/72/25
f 69/66/22 78/65/22 86/68/23 73/67/23
f 71/72/25 80/71/25 83/56/17 72/55/17
f 65/73/26 76/74/26 79/64/21 68/63/21
f 74/75/20 87/76/20 85/52/15 67/51/15
f 64/54/16 77/53/16 76/74/26 65/73/26
f 72/77/27 96/78/28 95/79/29 71/80/30
f 78/81/31 102/82/32 110/83/33 86/84/34
f 81/85/35 105/86/36 104/87/37 80/88/38
f 64/89/39 88/90/40 91/91/41 67/92/42
f 87/93/43 111/94/44 109/95/45 85/96/46
f 65/97/47 89/98/48 88/90/40 64/89/39
f 76/99/49 100/100/50 103/101/51 79/102/52
f 70/103/53 94/104/54 97/105/55 73/106/56
f 84/107/57 108/108/58 111/94/44 87/93/43
f 69/109/59 93/110/60 92/111/61 68/112/62
f 83/113/63 107/114/64 106/115/65 82/116/66
f 73/117/56 97/118/55 93/110/60 69/109/59
f 71/80/30 95/79/29 94/104/54 70/103/53
f 82/116/66 106/115/65 108/108/58 84/107/57
f 67/92/42 91/91/41 98/119/67 74/120/68
f 68/112/62 92/111/61 89/98/48 65/97/47
f 80/88/38 104/87/37 107/114/64 83/113/63
f 74/120/68 98/119/67 99/121/69 75/122/70
f 66/123/71 90/124/72 96/78/28 72/77/27
f 85/96/46 109/95/45 101/125/73 77/126/74
f 77/126/74 101/125/73 100/100/50 76/99/49
f 75/122/70 99/121/69 90/124/72 66/123/71
f 86/127/34 110/128/33 105/86/36 81/85/35
f 79/102/52 103/101/51 102/82/32 78/81/31
s 6
f 112/129/75 113/130/75 114/131/75 115/132/75 116/133/75 117/134/75 118/135/75 119/136/75
usemtl MI_Trim_Furniture
s 1
f 3/137/76 2/138/77 10/139/78 32/140/79
f 6/141/80 5/142/81 13/143/82 14/144/83
f 4/145/84 3/137/76 32/140/79 12/146/85
f 5/147/81 30/148/86 31/149/87 13/150/82
f 2/151/77 1/152/88 11/153/89 10/154/78
f 8/155/90 7/156/91 15/157/92 16/158/93
f 7/159/91 6/141/80 14/144/83 15/160/92
f 30/148/86 4/161/84 12/162/85 31/149/87
f 1/152/88 9/163/94 17/164/95 11/153/89
f 37/165/96 8/155/90 16/158/93 38/166/97
f 34/167/98 37/168/96 38/169/97 35/170/99
f 9/171/94 34/167/98 35/170/99 17/172/95
s 2
f 8/173/100 23/174/101 29/175/102 7/176/103
f 1/177/104 21/178/105 24/179/106 9/180/107
f 6/181/108 28/182/109 27/183/110 5/184/111
f 4/185/112 26/186/113 25/187/114 3/188/115
f 3/188/115 25/187/114 22/189/116 2/190/117
f 2/191/117 22/192/116 21/178/105 1/177/104
f 28/182/109 6/181/108 7/193/103 29/194/102
f 9/195/107 24/196/106 36/197/118 34/198/119
f 27/199/110 33/200/120 30/201/121 5/202/111
f 37/203/122 39/204/123 23/174/101 8/173/100
f 26/205/113 4/206/112 30/201/121 33/200/120
f 39/207/123 37/208/122 34/198/119 36/197/118
s 3
f 128/209/124 127/210/125 35/211/126 38/212/127
f 122/213/128 126/214/129 31/215/130 12/216/131
f 38/217/127 16/218/132 18/219/133 128/220/124
f 123/221/134 13/222/135 31/215/130 126/214/129
f 17/223/136 35/211/126 127/210/125 120/224/137
f 124/225/138 125/226/139 15/227/140 14/228/141
f 10/229/142 11/230/143 20/231/144 19/232/145
f 32/233/146 10/234/142 19/235/145 121/236/147
f 12/237/131 32/233/146 121/236/147 122/238/128
f 14/228/141 13/239/135 123/240/134 124/225/138
f 11/230/143 17/241/136 120/242/137 20/231/144
f 16/218/132 15/243/140 125/244/139 18/219/133
f 123/245/2 19/246/2 20/247/2 120/248/2 125/249/2 124/250/2
f 125/251/2 120/252/2 127/253/2 128/254/2 18/255/2
f 19/256/2 123/257/2 126/258/2 122/259/2 121/260/2
s 7
f 138/261/148 147/262/149 135/263/150 133/264/150
f 147/265/151 153/266/152 136/267/153 135/268/153
f 153/269/154 142/270/155 134/271/156 136/272/156
f 137/273/157 143/274/158 159/275/159 158/276/159
f 159/277/160 143/278/161 152/279/162 164/280/163
f 142/281/164 138/282/164 133/283/165 134/284/165
f 137/285/166 158/286/167 161/287/168 148/288/169
f 148/289/170 161/290/171 164/291/171 152/292/172
f 160/293/173 163/294/174 131/295/175 129/296/175
f 163/297/176 162/298/176 132/299/176 131/300/176
f 138/282/164 142/281/164 144/301/177 141/302/178
f 141/302/178 144/301/177 145/303/179 140/304/180
f 140/304/180 145/303/179 146/305/181 139/306/182
f 139/306/182 146/305/181 143/274/158 137/273/157
f 148/289/170 152/292/172 154/307/183 151/308/184
f 151/308/184 154/307/183 155/309/185 150/310/186
f 150/310/186 155/309/185 156/311/187 149/312/188
f 149/312/188 156/311/187 153/266/152 147/265/151
f 142/270/155 153/269/154 156/313/189 144/314/190
f 144/314/190 156/313/189 155/315/191 145/316/192
f 145/316/192 155/315/191 154/317/193 146/318/194
f 146/318/194 154/317/193 152/279/162 143/278/161
f 147/262/149 138/261/148 141/319/195 149/320/196
f 149/320/196 141/319/195 140/321/197 150/322/198
f 150/322/198 140/321/197 139/323/199 151/324/200
f 151/324/200 139/323/199 137/285/166 148/288/169
f 162/325/201 157/326/202 130/327/203 132/328/203
f 160/329/204 157/330/204 158/276/204 159/275/204
f 164/291/205 161/290/205 162/298/205 163/297/205
f 163/294/174 160/293/173 159/277/160 164/280/163
f 161/287/168 158/286/167 157/326/202 162/325/201
f 157/330/206 160/329/206 129/331/206 130/332/206
