# Blender v3.6.0 OBJ File: 'StandardOBJ.blend'
# www.blender.org
mtllib Nightstand_Shelf.mtl
o Nightstand_Shelf_Cube.131
v -0.284847 -0.006172 -0.193165
v -0.346662 -0.000759 -0.193165
v -0.179740 1.196680 -0.148261
v -0.241555 1.196680 -0.148261
v -0.179740 1.196680 0.155420
v -0.179740 1.196680 0.079500
v -0.179740 1.196680 0.003579
v -0.179740 1.196680 -0.072341
v -0.241555 1.196680 -0.072341
v -0.241555 1.196680 0.003579
v -0.241555 1.196680 0.079500
v -0.241555 1.196680 0.155420
v -0.284847 -0.006172 -0.094793
v -0.284847 -0.006172 0.101951
v -0.284847 -0.006172 0.200323
v -0.346662 -0.000759 0.200323
v -0.346662 -0.000759 0.101951
v -0.346662 -0.000759 -0.094793
v -0.260096 0.276440 -0.182591
v -0.321911 0.281854 -0.182591
v -0.321911 0.281854 0.189749
v -0.321911 0.281854 0.096664
v -0.321911 0.281854 0.003579
v -0.321911 0.281854 -0.089506
v -0.260096 0.276440 -0.089506
v -0.260096 0.276440 0.003579
v -0.260096 0.276440 0.096664
v -0.260096 0.276440 0.189749
v 0.284847 -0.006172 -0.193165
v 0.346662 -0.000759 -0.193165
v 0.179740 1.196680 -0.148261
v 0.241555 1.196680 -0.148261
v 0.179740 1.196680 0.155420
v 0.179740 1.196680 0.079500
v 0.179740 1.196680 0.003579
v 0.179740 1.196680 -0.072341
v 0.241555 1.196680 -0.072341
v 0.241555 1.196680 0.003579
v 0.241555 1.196680 0.079500
v 0.241555 1.196680 0.155420
v 0.284847 -0.006172 -0.094793
v 0.284847 -0.006172 0.101951
v 0.284847 -0.006172 0.200323
v 0.346662 -0.000759 0.200323
v 0.346662 -0.000759 0.101951
v 0.346662 -0.000759 -0.094793
v 0.260096 0.276440 -0.182591
v 0.321911 0.281854 -0.182591
v 0.321911 0.281854 0.189749
v 0.321911 0.281854 0.096664
v 0.321911 0.281854 0.003579
v 0.321911 0.281854 -0.089506
v 0.260096 0.276440 -0.089506
v 0.260096 0.276440 0.003579
v 0.260096 0.276440 0.096664
v 0.260096 0.276440 0.189749
v -0.228105 0.662161 0.156499
v -0.224944 0.703504 0.152385
v -0.228105 0.662161 -0.148030
v -0.224944 0.703504 -0.145737
v 0.228105 0.662161 0.156499
v 0.224944 0.703504 0.152385
v 0.228105 0.662161 -0.148030
v 0.224944 0.703504 -0.145737
v -0.228105 0.662161 -0.045875
v -0.228105 0.662161 0.055635
v -0.224944 0.703504 0.053643
v -0.224944 0.703504 -0.045731
v 0.228105 0.662161 0.055635
v 0.228105 0.662161 -0.045875
v 0.224944 0.703504 -0.045731
v 0.224944 0.703504 0.053643
v -0.250766 0.410909 0.156499
v -0.247290 0.452252 0.152385
v -0.250766 0.410909 -0.148030
v -0.247290 0.452252 -0.145737
v 0.250766 0.410909 0.156499
v 0.247290 0.452252 0.152385
v 0.250766 0.410909 -0.148030
v 0.247290 0.452252 -0.145737
v -0.250766 0.410909 -0.045875
v -0.250766 0.410909 0.055635
v -0.247290 0.452252 0.053643
v -0.247290 0.452252 -0.045731
v 0.250766 0.410909 0.055635
v 0.250766 0.410909 -0.045875
v 0.247290 0.452252 -0.045731
v 0.247290 0.452252 0.053643
v -0.228105 0.890961 0.156499
v -0.224944 0.932304 0.152385
v -0.228105 0.890961 -0.148030
v -0.224944 0.932304 -0.145737
v 0.228105 0.890961 0.156499
v 0.224944 0.932304 0.152385
v 0.228105 0.890961 -0.148030
v 0.224944 0.932304 -0.145737
v -0.228105 0.890961 -0.045875
v -0.228105 0.890961 0.055635
v -0.224944 0.932304 0.053643
v -0.224944 0.932304 -0.045731
v 0.228105 0.890961 0.055635
v 0.228105 0.890961 -0.045875
v 0.224944 0.932304 -0.045731
v 0.224944 0.932304 0.053643
v -0.328758 1.209458 0.174168
v -0.328758 1.209458 -0.172745
v -0.328758 1.184342 -0.172745
v -0.328758 1.184342 0.174168
v -0.320026 1.159357 0.166632
v -0.320026 1.159357 -0.165208
v -0.319875 1.176994 0.169137
v -0.319876 1.176994 -0.167713
v -0.000000 1.184342 -0.172745
v -0.000000 1.209458 -0.172745
v -0.000000 1.159357 0.166632
v -0.000000 1.176994 0.169137
v -0.000000 1.209458 0.174168
v -0.000000 1.184342 0.174168
v -0.000000 1.159357 -0.165208
v -0.000000 1.176994 -0.167713
v 0.328758 1.209458 0.174168
v 0.328758 1.209458 -0.172745
v 0.328758 1.184342 -0.172745
v 0.328758 1.184342 0.174168
v 0.320026 1.159357 0.166632
v 0.320026 1.159357 -0.165208
v 0.319875 1.176994 0.169137
v 0.319876 1.176994 -0.167713
v -0.181136 1.181570 -0.150019
v 0.184446 1.181570 -0.150018
v 0.197323 1.067207 -0.137540
v -0.193807 1.067166 -0.137536
v -0.181136 1.182386 0.139114
v 0.184446 1.182386 0.139115
v 0.197323 1.068023 0.151593
v -0.193807 1.067982 0.151597
v -0.218934 0.837804 0.146539
v -0.218934 0.895846 0.148757
v -0.173936 0.895846 0.148757
v -0.191352 0.837804 0.146539
v -0.232274 0.606753 0.146539
v -0.232274 0.664796 0.148757
v -0.187276 0.664796 0.148757
v -0.204692 0.606753 0.146539
v -0.256094 0.355490 0.146539
v -0.256094 0.413533 0.148757
v -0.211096 0.413533 0.148757
v -0.228512 0.355490 0.146539
v 0.218934 0.837804 0.146539
v 0.218934 0.895846 0.148757
v 0.173936 0.895846 0.148757
v 0.191352 0.837804 0.146539
v 0.232274 0.606753 0.146539
v 0.232274 0.664796 0.148757
v 0.187276 0.664796 0.148757
v 0.204692 0.606753 0.146539
v 0.256094 0.355490 0.146539
v 0.256094 0.413533 0.148757
v 0.211096 0.413533 0.148757
v 0.228512 0.355490 0.146539
v -0.218934 0.837804 -0.142875
v -0.218934 0.895846 -0.142875
v -0.173936 0.895846 -0.142875
v -0.191352 0.837804 -0.142875
v -0.232274 0.606753 -0.142875
v -0.232274 0.664796 -0.142875
v -0.187276 0.664796 -0.142875
v -0.204692 0.606753 -0.142875
v -0.256094 0.355490 -0.142875
v -0.256094 0.413533 -0.142875
v -0.211096 0.413533 -0.142875
v -0.228512 0.355490 -0.142875
v 0.218934 0.837804 -0.142875
v 0.218934 0.895846 -0.142875
v 0.173936 0.895846 -0.142875
v 0.191352 0.837804 -0.142875
v 0.232274 0.606753 -0.142875
v 0.232274 0.664796 -0.142875
v 0.187276 0.664796 -0.142875
v 0.204692 0.606753 -0.142875
v 0.256094 0.355490 -0.142875
v 0.256094 0.413533 -0.142875
v 0.211096 0.413533 -0.142875
v 0.228512 0.355490 -0.142875
vt 0.616696 0.403115
vt 0.616696 0.436778
vt 0.951993 0.436778
vt 0.951993 0.403115
vt 0.367001 0.161130
vt 0.367001 0.253873
vt 0.196691 0.253873
vt 0.196691 0.161130
vt 0.763005 0.823844
vt 0.763005 0.922130
vt 0.994805 0.922130
vt 0.994805 0.823844
vt 0.763005 0.922130
vt 0.763005 0.823844
vt 0.994805 0.823844
vt 0.994805 0.922130
vt 0.242239 0.922130
vt 0.506396 0.823844
vt 0.010438 0.823844
vt 0.010438 0.922130
vt 0.498847 0.823844
vt 0.763005 0.922130
vt 0.994805 0.922130
vt 0.994805 0.823844
vt 0.196691 0.253873
vt 0.196691 0.161130
vt 0.367001 0.161130
vt 0.367001 0.253873
vt 0.196691 0.161130
vt 0.196691 0.253873
vt 0.367001 0.253873
vt 0.367001 0.161130
vt 0.196691 0.161130
vt 0.196691 0.253873
vt 0.367001 0.253873
vt 0.367001 0.161130
vt 0.196691 0.161130
vt 0.196691 0.253873
vt 0.367001 0.253873
vt 0.367001 0.161130
vt 0.616696 0.436778
vt 0.616696 0.403115
vt 0.951993 0.403115
vt 0.951993 0.436778
vt 0.196691 0.161130
vt 0.196691 0.253873
vt 0.367001 0.253873
vt 0.367001 0.161130
vt 0.513421 0.436778
vt 0.513421 0.403115
vt 0.393227 0.921542
vt 0.393227 0.825404
vt 0.996833 0.825404
vt 0.996833 0.921542
vt 0.010438 0.823844
vt 0.010438 0.922130
vt 0.393227 0.825404
vt 0.393227 0.921542
vt 0.996833 0.921542
vt 0.996833 0.825404
vt 0.606160 0.922181
vt 0.606160 0.825911
vt 0.001963 0.825911
vt 0.001963 0.922181
vt 0.994805 0.922130
vt 0.994805 0.823844
vt 0.606160 0.825911
vt 0.606160 0.922181
vt 0.001963 0.922181
vt 0.001963 0.825911
vt 0.010438 0.922130
vt 0.010438 0.823844
vt 0.010438 0.823844
vt 0.010438 0.922130
vt 0.513420 0.403115
vt 0.513420 0.436778
vt 0.512260 0.449722
vt 0.512260 0.393857
vt 0.720913 0.393857
vt 0.720913 0.449722
vt 0.512260 0.449722
vt 0.720913 0.449722
vt 0.720913 0.393857
vt 0.512260 0.393857
vt 0.027845 0.159545
vt 0.004220 0.159545
vt 0.004220 0.256374
vt 0.027845 0.256374
vt 0.027687 0.158957
vt 0.004861 0.158957
vt 0.004861 0.255786
vt 0.027687 0.255786
vt 0.616696 0.403115
vt 0.951993 0.403115
vt 0.951993 0.436778
vt 0.616696 0.436778
vt 0.367001 0.161130
vt 0.196691 0.161130
vt 0.196691 0.253873
vt 0.367001 0.253873
vt 0.763005 0.823844
vt 0.994805 0.823844
vt 0.994805 0.922130
vt 0.763005 0.922130
vt 0.763005 0.922130
vt 0.994805 0.922130
vt 0.994805 0.823844
vt 0.763005 0.823844
vt 0.242239 0.922130
vt 0.010438 0.922130
vt 0.010438 0.823844
vt 0.506396 0.823844
vt 0.498847 0.823844
vt 0.994805 0.823844
vt 0.994805 0.922130
vt 0.763005 0.922130
vt 0.196691 0.253873
vt 0.367001 0.253873
vt 0.367001 0.161130
vt 0.196691 0.161130
vt 0.196691 0.161130
vt 0.367001 0.161130
vt 0.367001 0.253873
vt 0.196691 0.253873
vt 0.196691 0.161130
vt 0.367001 0.161130
vt 0.367001 0.253873
vt 0.196691 0.253873
vt 0.196691 0.161130
vt 0.367001 0.161130
vt 0.367001 0.253873
vt 0.196691 0.253873
vt 0.616696 0.436778
vt 0.951993 0.436778
vt 0.951993 0.403115
vt 0.616696 0.403115
vt 0.196691 0.161130
vt 0.367001 0.161130
vt 0.367001 0.253873
vt 0.196691 0.253873
vt 0.513421 0.436778
vt 0.513421 0.403115
vt 0.393227 0.921542
vt 0.996833 0.921542
vt 0.996833 0.825404
vt 0.393227 0.825404
vt 0.010438 0.823844
vt 0.010438 0.922130
vt 0.393227 0.825404
vt 0.996833 0.825404
vt 0.996833 0.921542
vt 0.393227 0.921542
vt 0.606160 0.922181
vt 0.001963 0.922181
vt 0.001963 0.825911
vt 0.606160 0.825911
vt 0.994805 0.922130
vt 0.994805 0.823844
vt 0.606160 0.825911
vt 0.001963 0.825911
vt 0.001963 0.922181
vt 0.606160 0.922181
vt 0.010438 0.922130
vt 0.010438 0.823844
vt 0.010438 0.823844
vt 0.010438 0.922130
vt 0.513420 0.403115
vt 0.513420 0.436778
vt 0.512260 0.449722
vt 0.720913 0.449722
vt 0.720913 0.393857
vt 0.512260 0.393857
vt 0.512260 0.449722
vt 0.512260 0.393857
vt 0.720913 0.393857
vt 0.720913 0.449722
vt 0.027845 0.159545
vt 0.027845 0.256374
vt 0.004220 0.256374
vt 0.004220 0.159545
vt 0.027687 0.158957
vt 0.027687 0.255786
vt 0.004861 0.255786
vt 0.004861 0.158957
vt 0.521594 0.396990
vt 0.521594 0.445856
vt 0.949602 0.445856
vt 0.949602 0.396990
vt 0.949602 0.396990
vt 0.949602 0.445856
vt 0.521594 0.445856
vt 0.521594 0.396990
vt 0.011596 0.378870
vt 0.541929 0.378870
vt 0.541929 0.266306
vt 0.011596 0.266306
vt 0.541929 0.378870
vt 0.011596 0.378870
vt 0.011596 0.266306
vt 0.541929 0.266306
vt 0.011596 0.378870
vt 0.541929 0.378870
vt 0.541929 0.266306
vt 0.011596 0.266306
vt 0.541929 0.378870
vt 0.011596 0.378870
vt 0.541929 0.378870
vt 0.011596 0.378870
vt 0.011596 0.266306
vt 0.541929 0.266306
vt 0.011596 0.378870
vt 0.541929 0.378870
vt 0.521594 0.396990
vt 0.521594 0.445856
vt 0.949602 0.445856
vt 0.949602 0.396990
vt 0.949602 0.396990
vt 0.949602 0.445856
vt 0.521594 0.445856
vt 0.521594 0.396990
vt 0.011596 0.378870
vt 0.541929 0.378870
vt 0.541929 0.266306
vt 0.011596 0.266306
vt 0.541929 0.378870
vt 0.011596 0.378870
vt 0.011596 0.266306
vt 0.541929 0.266306
vt 0.011596 0.378870
vt 0.541929 0.378870
vt 0.541929 0.266306
vt 0.011596 0.266306
vt 0.541929 0.378870
vt 0.011596 0.378870
vt 0.541929 0.378870
vt 0.011596 0.378870
vt 0.011596 0.266306
vt 0.541929 0.266306
vt 0.011596 0.378870
vt 0.541929 0.378870
vt 0.521594 0.396990
vt 0.521594 0.445856
vt 0.949602 0.445856
vt 0.949602 0.396990
vt 0.949602 0.396990
vt 0.949602 0.445856
vt 0.521594 0.445856
vt 0.521594 0.396990
vt 0.011596 0.378870
vt 0.541929 0.378870
vt 0.541929 0.266306
vt 0.011596 0.266306
vt 0.541929 0.378870
vt 0.011596 0.378870
vt 0.011596 0.266306
vt 0.541929 0.266306
vt 0.011596 0.378870
vt 0.541929 0.378870
vt 0.541929 0.266306
vt 0.011596 0.266306
vt 0.541929 0.378870
vt 0.011596 0.378870
vt 0.541929 0.378870
vt 0.011596 0.378870
vt 0.011596 0.266306
vt 0.541929 0.266306
vt 0.011596 0.378870
vt 0.541929 0.378870
vt 0.345702 0.930002
vt 0.345702 0.970998
vt 0.002422 0.970998
vt 0.002422 0.930002
vt 0.869639 0.995087
vt 0.231976 0.995087
vt 0.241225 0.976922
vt 0.860390 0.976922
vt 0.949488 0.396278
vt 0.949488 0.444236
vt 0.514946 0.444236
vt 0.514946 0.396278
vt 0.453856 0.976922
vt 0.451959 0.995087
vt 0.231969 0.995087
vt 0.238090 0.976922
vt 0.655044 0.578906
vt 0.997512 0.578906
vt 0.997512 0.814843
vt 0.655044 0.814844
vt 0.345901 0.999094
vt 0.003218 0.999094
vt 0.003218 0.976833
vt 0.345901 0.976833
vt 1.622120 0.999094
vt 1.365939 0.999094
vt 1.365939 0.976832
vt 1.622120 0.976833
vt 0.498128 0.404033
vt 0.498128 0.565315
vt 0.327136 0.565315
vt 0.327136 0.404033
vt 0.001233 0.970345
vt 0.001233 0.930462
vt 0.345152 0.930462
vt 0.345152 0.970345
vt 0.869646 0.995087
vt 0.649656 0.995087
vt 0.647759 0.976922
vt 0.863525 0.976922
vt 0.997451 0.999094
vt 0.654767 0.999094
vt 0.654767 0.976833
vt 0.997451 0.976832
vt 0.002422 0.930002
vt 0.002422 0.970998
vt 0.869639 0.995087
vt 0.860390 0.976922
vt 0.241225 0.976922
vt 0.231976 0.995087
vt 0.949488 0.396278
vt 0.514946 0.396278
vt 0.514946 0.444236
vt 0.949488 0.444236
vt 0.238090 0.976922
vt 0.231969 0.995087
vt 0.997512 0.814843
vt 0.997512 0.578906
vt 0.003218 0.976833
vt 0.003218 0.999094
vt 1.622120 0.999094
vt 1.622120 0.976833
vt 1.365939 0.976832
vt 1.365939 0.999094
vt 0.498128 0.404033
vt 0.498128 0.565315
vt 0.001233 0.970345
vt 0.001233 0.930462
vt 0.869646 0.995087
vt 0.863525 0.976922
vt 0.997451 0.999094
vt 0.997451 0.976832
vt 0.542152 0.370208
vt 0.010459 0.370208
vt 0.010459 0.275833
vt 0.542152 0.275833
vt 0.542152 0.370208
vt 0.542152 0.275833
vt 0.010459 0.275833
vt 0.010459 0.370208
vt 0.160069 0.922057
vt 0.160069 0.820561
vt 0.004487 0.820560
vt 0.004487 0.922055
vt 0.701723 0.934846
vt 0.416611 0.934846
vt 0.416611 0.967398
vt 0.701723 0.967398
vt 0.794773 0.966720
vt 0.794773 0.934822
vt 0.419297 0.934822
vt 0.419297 0.966720
vt 0.949602 0.445856
vt 0.949602 0.445856
vt 0.521594 0.445856
vt 0.521594 0.445856
vt 0.569929 0.443466
vt 0.515049 0.443466
vt 0.515049 0.396471
vt 0.569929 0.396471
vt 0.569929 0.443466
vt 0.569929 0.396471
vt 0.515049 0.396471
vt 0.515049 0.443466
vt 0.287999 0.934846
vt 0.002887 0.934846
vt 0.002887 0.967398
vt 0.287999 0.967398
vt 0.794773 0.966720
vt 0.794773 0.934822
vt 0.419297 0.934822
vt 0.419297 0.966720
vt 0.949602 0.445856
vt 0.949602 0.445856
vt 0.521594 0.445856
vt 0.521594 0.445856
vt 0.900436 0.444410
vt 0.955316 0.444410
vt 0.955316 0.397415
vt 0.900436 0.397415
vt 0.900436 0.444410
vt 0.900436 0.397415
vt 0.955316 0.397415
vt 0.955316 0.444410
vt 0.707540 0.967398
vt 0.992652 0.967398
vt 0.992652 0.934846
vt 0.707540 0.934846
vt 0.794773 0.966720
vt 0.794773 0.934822
vt 0.419297 0.934822
vt 0.419297 0.966720
vt 0.949602 0.445856
vt 0.949602 0.445856
vt 0.521594 0.445856
vt 0.521594 0.445856
vt 0.571818 0.391748
vt 0.516939 0.391748
vt 0.516939 0.438743
vt 0.571818 0.438743
vt 0.571818 0.391748
vt 0.571818 0.438743
vt 0.516939 0.438743
vt 0.516939 0.391748
vt 0.701723 0.934846
vt 0.701723 0.967398
vt 0.416611 0.967398
vt 0.416611 0.934846
vt 0.794773 0.966720
vt 0.419297 0.966720
vt 0.419297 0.934822
vt 0.794773 0.934822
vt 0.949602 0.445856
vt 0.521594 0.445856
vt 0.521594 0.445856
vt 0.949602 0.445856
vt 0.569929 0.443466
vt 0.569929 0.396471
vt 0.515049 0.396471
vt 0.515049 0.443466
vt 0.569929 0.443466
vt 0.515049 0.443466
vt 0.515049 0.396471
vt 0.569929 0.396471
vt 0.287999 0.934846
vt 0.287999 0.967398
vt 0.002887 0.967398
vt 0.002887 0.934846
vt 0.794773 0.966720
vt 0.419297 0.966720
vt 0.419297 0.934822
vt 0.794773 0.934822
vt 0.949602 0.445856
vt 0.521594 0.445856
vt 0.521594 0.445856
vt 0.949602 0.445856
vt 0.898547 0.396471
vt 0.898547 0.443466
vt 0.953427 0.443466
vt 0.953427 0.396471
vt 0.898547 0.396471
vt 0.953427 0.396471
vt 0.953427 0.443466
vt 0.898547 0.443466
vt 0.707540 0.967398
vt 0.707540 0.934846
vt 0.992652 0.934846
vt 0.992652 0.967398
vt 0.794773 0.966720
vt 0.419297 0.966720
vt 0.419297 0.934822
vt 0.794773 0.934822
vt 0.949602 0.445856
vt 0.521594 0.445856
vt 0.521594 0.445856
vt 0.949602 0.445856
vt 0.898547 0.397415
vt 0.898547 0.444410
vt 0.953427 0.444410
vt 0.953427 0.397415
vt 0.898547 0.397415
vt 0.953427 0.397415
vt 0.953427 0.444410
vt 0.898547 0.444410
vn 0.0016 0.0372 -0.9993
vn -0.0872 -0.9962 0.0000
vn -0.9962 0.0872 -0.0000
vn 0.9962 -0.0872 0.0000
vn 0.0000 1.0000 0.0000
vn 0.0016 0.0372 0.9993
vn 0.0032 0.0371 0.9993
vn 0.9962 -0.0870 0.0000
vn -0.9962 0.0875 -0.0000
vn 0.0032 0.0371 -0.9993
vn -0.0016 -0.0186 0.9998
vn -0.0016 -0.0186 -0.9998
vn -0.0016 0.0372 -0.9993
vn 0.0872 -0.9962 0.0000
vn 0.9962 0.0872 -0.0000
vn -0.9962 -0.0872 0.0000
vn -0.0016 0.0372 0.9993
vn -0.0032 0.0371 0.9993
vn -0.9962 -0.0870 0.0000
vn 0.9962 0.0875 -0.0000
vn -0.0032 0.0371 -0.9993
vn 0.0016 -0.0186 0.9998
vn 0.0016 -0.0186 -0.9998
vn 0.0000 0.0554 -0.9985
vn 0.0000 0.0990 0.9951
vn 0.0000 -1.0000 0.0000
vn 0.0000 0.0000 1.0000
vn -0.6374 -0.7705 0.0000
vn -1.0000 0.0000 0.0000
vn 0.0000 -0.5650 0.8251
vn 0.0000 -0.1406 -0.9901
vn -1.0000 0.0085 0.0000
vn 0.0000 0.0000 -1.0000
vn 0.0000 -0.5650 -0.8251
vn -0.0000 -0.1406 0.9901
vn 0.6374 -0.7705 0.0000
vn 1.0000 0.0000 0.0000
vn 1.0000 0.0085 0.0000
vn 0.0000 -0.1085 -0.9941
vn -0.0000 0.1085 0.9941
vn 0.0001 -1.0000 0.0028
vn 0.9578 -0.2874 0.0000
vn 0.0000 -0.0382 0.9993
vn -0.9578 -0.2874 0.0000
usemtl MI_Trim_Furniture
s off
f 19/1/1 20/2/1 4/3/1 3/4/1
f 13/5/2 18/6/2 2/7/2 1/8/2
f 24/9/3 20/10/3 2/11/3 18/12/3
f 21/13/3 22/14/3 17/15/3 16/16/3
f 19/17/4 25/18/4 13/19/4 1/20/4
f 27/21/4 28/22/4 15/23/4 14/24/4
f 15/25/2 16/26/2 17/27/2 14/28/2
f 3/29/5 4/30/5 9/31/5 8/32/5
f 8/33/5 9/34/5 10/35/5 7/36/5
f 6/37/5 11/38/5 12/39/5 5/40/5
f 21/41/6 28/42/6 5/43/6 12/44/6
f 7/45/5 10/46/5 11/47/5 6/48/5
f 16/49/7 15/50/7 28/42/7 21/41/7
f 7/51/8 6/52/8 27/53/8 26/54/8
f 6/55/8 5/56/8 28/22/8 27/21/8
f 11/57/9 10/58/9 23/59/9 22/60/9
f 8/61/8 7/62/8 26/63/8 25/64/8
f 3/65/8 8/66/8 25/18/8 19/17/8
f 10/67/9 9/68/9 24/69/9 23/70/9
f 12/71/9 11/72/9 22/14/9 21/13/9
f 9/73/9 4/74/9 20/10/9 24/9/9
f 1/75/10 2/76/10 20/2/10 19/1/10
f 18/77/11 13/78/11 25/79/11 24/80/11
f 17/81/12 22/82/12 27/83/12 14/84/12
f 26/85/2 23/86/2 24/87/2 25/88/2
f 27/89/2 22/90/2 23/91/2 26/92/2
f 47/93/13 31/94/13 32/95/13 48/96/13
f 41/97/14 29/98/14 30/99/14 46/100/14
f 52/101/15 46/102/15 30/103/15 48/104/15
f 49/105/15 44/106/15 45/107/15 50/108/15
f 47/109/16 29/110/16 41/111/16 53/112/16
f 55/113/16 42/114/16 43/115/16 56/116/16
f 43/117/14 42/118/14 45/119/14 44/120/14
f 31/121/5 36/122/5 37/123/5 32/124/5
f 36/125/5 35/126/5 38/127/5 37/128/5
f 34/129/5 33/130/5 40/131/5 39/132/5
f 49/133/17 40/134/17 33/135/17 56/136/17
f 35/137/5 34/138/5 39/139/5 38/140/5
f 44/141/18 49/133/18 56/136/18 43/142/18
f 35/143/19 54/144/19 55/145/19 34/146/19
f 34/147/19 55/113/19 56/116/19 33/148/19
f 39/149/20 50/150/20 51/151/20 38/152/20
f 36/153/19 53/154/19 54/155/19 35/156/19
f 31/157/19 47/109/19 53/112/19 36/158/19
f 38/159/20 51/160/20 52/161/20 37/162/20
f 40/163/20 49/105/20 50/108/20 39/164/20
f 37/165/20 52/101/20 48/104/20 32/166/20
f 29/167/21 47/93/21 48/96/21 30/168/21
f 46/169/22 52/170/22 53/171/22 41/172/22
f 45/173/23 42/174/23 55/175/23 50/176/23
f 54/177/14 53/178/14 52/179/14 51/180/14
f 55/181/14 54/182/14 51/183/14 50/184/14
s 53
f 59/185/24 60/186/24 64/187/24 63/188/24
f 61/189/25 62/190/25 58/191/25 57/192/25
f 66/193/26 69/194/26 61/195/26 57/196/26
f 72/197/5 67/198/5 58/199/5 62/200/5
f 64/201/5 60/202/5 68/203/5 71/204/5
f 71/204/5 68/203/5 67/205/5 72/206/5
f 59/207/26 63/208/26 70/209/26 65/210/26
f 65/210/26 70/209/26 69/211/26 66/212/26
s 54
f 75/213/24 76/214/24 80/215/24 79/216/24
f 77/217/25 78/218/25 74/219/25 73/220/25
f 82/221/26 85/222/26 77/223/26 73/224/26
f 88/225/5 83/226/5 74/227/5 78/228/5
f 80/229/5 76/230/5 84/231/5 87/232/5
f 87/232/5 84/231/5 83/233/5 88/234/5
f 75/235/26 79/236/26 86/237/26 81/238/26
f 81/238/26 86/237/26 85/239/26 82/240/26
s 55
f 91/241/24 92/242/24 96/243/24 95/244/24
f 93/245/25 94/246/25 90/247/25 89/248/25
f 98/249/26 101/250/26 93/251/26 89/252/26
f 104/253/5 99/254/5 90/255/5 94/256/5
f 96/257/5 92/258/5 100/259/5 103/260/5
f 103/260/5 100/259/5 99/261/5 104/262/5
f 91/263/26 95/264/26 102/265/26 97/266/26
f 97/266/26 102/265/26 101/267/26 98/268/26
s 56
f 118/269/27 117/270/27 105/271/27 108/272/27
f 108/273/28 107/274/28 112/275/28 111/276/28
f 108/277/29 105/278/29 106/279/29 107/280/29
f 116/281/30 118/282/30 108/283/30 111/284/30
f 115/285/26 109/286/26 110/287/26 119/288/26
f 119/289/31 110/290/31 112/291/31 120/292/31
f 110/293/32 109/294/32 111/295/32 112/296/32
f 106/297/5 105/298/5 117/299/5 114/300/5
f 107/301/33 106/302/33 114/303/33 113/304/33
f 107/305/34 113/306/34 120/307/34 112/308/34
f 109/309/35 115/310/35 116/311/35 111/312/35
f 118/269/27 124/313/27 121/314/27 117/270/27
f 124/315/36 127/316/36 128/317/36 123/318/36
f 124/319/37 123/320/37 122/321/37 121/322/37
f 116/281/30 127/323/30 124/324/30 118/282/30
f 115/285/26 119/288/26 126/325/26 125/326/26
f 119/289/31 120/292/31 128/327/31 126/328/31
f 126/329/38 128/330/38 127/331/38 125/332/38
f 122/333/5 114/300/5 117/299/5 121/334/5
f 123/335/33 113/304/33 114/303/33 122/336/33
f 123/337/34 128/338/34 120/307/34 113/306/34
f 125/339/35 127/340/35 116/311/35 115/310/35
s 57
f 129/341/39 130/342/39 131/343/39 132/344/39
f 133/345/40 136/346/40 135/347/40 134/348/40
f 131/349/41 135/350/41 136/351/41 132/352/41
s 58
f 140/353/42 164/354/42 163/355/42 139/356/42
f 161/357/26 164/358/26 140/359/26 137/360/26
f 138/361/5 139/362/5 163/363/5 162/364/5
f 137/365/43 140/366/43 139/367/43 138/368/43
f 161/369/33 162/370/33 163/371/33 164/372/33
s 59
f 144/373/42 168/374/42 167/375/42 143/376/42
f 165/377/26 168/378/26 144/379/26 141/380/26
f 142/381/5 143/382/5 167/383/5 166/384/5
f 141/385/43 144/386/43 143/387/43 142/388/43
f 165/389/33 166/390/33 167/391/33 168/392/33
s 60
f 148/393/42 172/394/42 171/395/42 147/396/42
f 169/397/26 172/398/26 148/399/26 145/400/26
f 146/401/5 147/402/5 171/403/5 170/404/5
f 145/405/43 148/406/43 147/407/43 146/408/43
f 169/409/33 170/410/33 171/411/33 172/412/33
s 61
f 152/413/44 151/414/44 175/415/44 176/416/44
f 173/417/26 149/418/26 152/419/26 176/420/26
f 150/421/5 174/422/5 175/423/5 151/424/5
f 149/425/43 150/426/43 151/427/43 152/428/43
f 173/429/33 176/430/33 175/431/33 174/432/33
s 62
f 156/433/44 155/434/44 179/435/44 180/436/44
f 177/437/26 153/438/26 156/439/26 180/440/26
f 154/441/5 178/442/5 179/443/5 155/444/5
f 153/445/43 154/446/43 155/447/43 156/448/43
f 177/449/33 180/450/33 179/451/33 178/452/33
s 63
f 160/453/44 159/454/44 183/455/44 184/456/44
f 181/457/26 157/458/26 160/459/26 184/460/26
f 158/461/5 182/462/5 183/463/5 159/464/5
f 157/465/43 158/466/43 159/467/43 160/468/43
f 181/469/33 184/470/33 183/471/33 182/472/33
