# Blender v3.6.0 OBJ File: 'StandardOBJ.blend'
# www.blender.org
mtllib Workbench_Drawers.mtl
o Workbench_Drawers_Cube.028
v 0.304404 0.884161 -0.495021
v 0.727510 0.884161 -0.495021
v 0.706520 0.905152 -0.220170
v 0.325394 0.905152 -0.220170
v 0.304404 1.126501 -0.495021
v 0.727510 1.126501 -0.495021
v 0.324799 1.106106 -0.220170
v 0.707115 1.106106 -0.220170
v 0.727510 1.005331 -0.495021
v 0.707115 1.025726 -0.220170
v 0.304404 1.005331 -0.495021
v 0.324799 1.025726 -0.220170
v 0.422595 1.043281 -0.213288
v 0.422595 1.083210 -0.213288
v 0.422595 1.043281 -0.221768
v 0.422595 1.083210 -0.221768
v 0.442924 1.043281 -0.213288
v 0.442924 1.083210 -0.213288
v 0.442924 1.043281 -0.221768
v 0.442924 1.083210 -0.221768
v 0.419967 1.063245 -0.213288
v 0.419967 1.063245 -0.221768
v 0.445552 1.063245 -0.221768
v 0.445552 1.063245 -0.213288
v 0.423561 1.063245 -0.210125
v 0.425451 1.078380 -0.210125
v 0.441958 1.063245 -0.210125
v 0.440069 1.047596 -0.210125
v 0.425451 1.047596 -0.210125
v 0.440069 1.078380 -0.210125
v 0.609236 1.043281 -0.213288
v 0.609236 1.083210 -0.213288
v 0.609236 1.043281 -0.221768
v 0.609236 1.083210 -0.221768
v 0.588908 1.043281 -0.213288
v 0.588908 1.083210 -0.213288
v 0.588908 1.043281 -0.221768
v 0.588908 1.083210 -0.221768
v 0.611864 1.063245 -0.213288
v 0.611864 1.063245 -0.221768
v 0.586280 1.063245 -0.221768
v 0.586280 1.063245 -0.213288
v 0.608270 1.063245 -0.210125
v 0.606381 1.078380 -0.210125
v 0.589873 1.063245 -0.210125
v 0.591763 1.047596 -0.210125
v 0.606381 1.047596 -0.210125
v 0.591763 1.078380 -0.210125
v 0.422595 0.921265 -0.213288
v 0.422595 0.961193 -0.213288
v 0.422595 0.921265 -0.221768
v 0.422595 0.961193 -0.221768
v 0.442924 0.921265 -0.213288
v 0.442924 0.961193 -0.213288
v 0.442924 0.921265 -0.221768
v 0.442924 0.961193 -0.221768
v 0.419967 0.941229 -0.213288
v 0.419967 0.941229 -0.221768
v 0.445552 0.941229 -0.221768
v 0.445552 0.941229 -0.213288
v 0.423561 0.941229 -0.210125
v 0.425451 0.956363 -0.210125
v 0.441958 0.941229 -0.210125
v 0.440069 0.925580 -0.210125
v 0.425451 0.925580 -0.210125
v 0.440069 0.956363 -0.210125
v 0.609236 0.921265 -0.213288
v 0.609236 0.961193 -0.213288
v 0.609236 0.921265 -0.221768
v 0.609236 0.961193 -0.221768
v 0.588908 0.921265 -0.213288
v 0.588908 0.961193 -0.213288
v 0.588908 0.921265 -0.221768
v 0.588908 0.961193 -0.221768
v 0.611864 0.941229 -0.213288
v 0.611864 0.941229 -0.221768
v 0.586280 0.941229 -0.221768
v 0.586280 0.941229 -0.213288
v 0.608270 0.941229 -0.210125
v 0.606381 0.956363 -0.210125
v 0.589873 0.941229 -0.210125
v 0.591763 0.925580 -0.210125
v 0.606381 0.925580 -0.210125
v 0.591763 0.956363 -0.210125
v 0.467397 1.055417 -0.204847
v 0.467397 1.070044 -0.204847
v 0.456158 1.050219 -0.204847
v 0.456158 1.075243 -0.204847
v 0.437803 1.050219 -0.218482
v 0.437803 1.075243 -0.218482
v 0.442739 1.075243 -0.204847
v 0.442739 1.050219 -0.204847
v 0.441692 1.075243 -0.207739
v 0.441692 1.050219 -0.207739
v 0.467397 1.059364 -0.195993
v 0.467397 1.055417 -0.199518
v 0.467397 1.070044 -0.199518
v 0.467397 1.066538 -0.195993
v 0.456158 1.054161 -0.195993
v 0.456158 1.050219 -0.199506
v 0.456158 1.075243 -0.199506
v 0.456158 1.071741 -0.195993
v 0.430092 1.050219 -0.218224
v 0.426265 1.054142 -0.218095
v 0.426265 1.071760 -0.218095
v 0.430092 1.075243 -0.218224
v 0.440018 1.075243 -0.199486
v 0.438244 1.071752 -0.195993
v 0.438244 1.054150 -0.195993
v 0.440018 1.050219 -0.199486
v 0.435888 1.050219 -0.202223
v 0.433006 1.054144 -0.199483
v 0.435888 1.075243 -0.202223
v 0.433006 1.071758 -0.199483
v 0.564435 1.055417 -0.204847
v 0.564435 1.070044 -0.204847
v 0.515916 1.055417 -0.204847
v 0.515916 1.070044 -0.204847
v 0.575673 1.050219 -0.204847
v 0.575673 1.075243 -0.204847
v 0.594029 1.050219 -0.218482
v 0.594029 1.075243 -0.218482
v 0.589092 1.075243 -0.204847
v 0.589092 1.050219 -0.204847
v 0.590140 1.075243 -0.207739
v 0.590140 1.050219 -0.207739
v 0.564435 1.059364 -0.195993
v 0.564435 1.055417 -0.199518
v 0.564435 1.070044 -0.199518
v 0.564435 1.066538 -0.195993
v 0.515916 1.059362 -0.195993
v 0.515916 1.055417 -0.199521
v 0.515916 1.070044 -0.199521
v 0.515916 1.066541 -0.195993
v 0.575673 1.054161 -0.195993
v 0.575673 1.050219 -0.199506
v 0.575673 1.075243 -0.199506
v 0.575673 1.071741 -0.195993
v 0.601740 1.050219 -0.218224
v 0.605567 1.054142 -0.218095
v 0.605567 1.071760 -0.218095
v 0.601740 1.075243 -0.218224
v 0.591814 1.075243 -0.199486
v 0.593588 1.071752 -0.195993
v 0.593588 1.054150 -0.195993
v 0.591814 1.050219 -0.199486
v 0.595944 1.050219 -0.202223
v 0.598826 1.054144 -0.199483
v 0.595944 1.075243 -0.202223
v 0.598826 1.071758 -0.199483
v 0.467397 0.933401 -0.204847
v 0.467397 0.948028 -0.204847
v 0.456158 0.928203 -0.204847
v 0.456158 0.953227 -0.204847
v 0.437803 0.928203 -0.218482
v 0.437803 0.953227 -0.218482
v 0.442739 0.953227 -0.204847
v 0.442739 0.928203 -0.204847
v 0.441692 0.953227 -0.207739
v 0.441692 0.928203 -0.207739
v 0.467397 0.937348 -0.195993
v 0.467397 0.933401 -0.199518
v 0.467397 0.948028 -0.199518
v 0.467397 0.944522 -0.195993
v 0.456158 0.932145 -0.195993
v 0.456158 0.928203 -0.199506
v 0.456158 0.953227 -0.199506
v 0.456158 0.949725 -0.195993
v 0.430092 0.928203 -0.218224
v 0.426265 0.932126 -0.218095
v 0.426265 0.949744 -0.218095
v 0.430092 0.953227 -0.218224
v 0.440018 0.953227 -0.199486
v 0.438244 0.949736 -0.195993
v 0.438244 0.932134 -0.195993
v 0.440018 0.928203 -0.199486
v 0.435888 0.928203 -0.202223
v 0.433006 0.932128 -0.199483
v 0.435888 0.953227 -0.202223
v 0.433006 0.949742 -0.199483
v 0.564435 0.933401 -0.204847
v 0.564435 0.948028 -0.204847
v 0.515916 0.933401 -0.204847
v 0.515916 0.948028 -0.204847
v 0.575673 0.928203 -0.204847
v 0.575673 0.953227 -0.204847
v 0.594029 0.928203 -0.218482
v 0.594029 0.953227 -0.218482
v 0.589092 0.953227 -0.204847
v 0.589092 0.928203 -0.204847
v 0.590140 0.953227 -0.207739
v 0.590140 0.928203 -0.207739
v 0.564435 0.937348 -0.195993
v 0.564435 0.933401 -0.199518
v 0.564435 0.948028 -0.199518
v 0.564435 0.944522 -0.195993
v 0.515916 0.937345 -0.195993
v 0.515916 0.933401 -0.199521
v 0.515916 0.948028 -0.199521
v 0.515916 0.944524 -0.195993
v 0.575673 0.932145 -0.195993
v 0.575673 0.928203 -0.199506
v 0.575673 0.953227 -0.199506
v 0.575673 0.949725 -0.195993
v 0.601740 0.928203 -0.218224
v 0.605567 0.932126 -0.218095
v 0.605567 0.949744 -0.218095
v 0.601740 0.953227 -0.218224
v 0.591814 0.953227 -0.199486
v 0.593588 0.949736 -0.195993
v 0.593588 0.932134 -0.195993
v 0.591814 0.928203 -0.199486
v 0.595944 0.928203 -0.202223
v 0.598826 0.932128 -0.199483
v 0.595944 0.953227 -0.202223
v 0.598826 0.949742 -0.199483
v 0.727510 1.126501 -0.220170
v 0.304404 1.126501 -0.220170
v 0.706520 0.984341 -0.220170
v 0.325394 0.984341 -0.220170
v 0.727510 0.884161 -0.220170
v 0.304404 0.884161 -0.220170
v 0.727510 1.005331 -0.220170
v 0.304404 1.005331 -0.220170
v 0.710100 1.109091 -0.220170
v 0.321814 1.109091 -0.220170
v 0.710100 1.022741 -0.220170
v 0.321814 1.022741 -0.220170
v 0.710100 0.901571 -0.220170
v 0.321814 0.901571 -0.220170
v 0.710100 0.987921 -0.220170
v 0.321814 0.987921 -0.220170
vt 0.010253 0.270566
vt 0.542206 0.270566
vt 0.542206 0.380359
vt 0.010253 0.380359
vt 0.004706 0.386222
vt 0.004706 0.266533
vt 0.541999 0.266533
vt 0.541999 0.386222
vt 0.886821 0.821841
vt 0.886821 0.924739
vt 0.998727 0.924739
vt 0.998727 0.821841
vt 0.010438 0.922130
vt 0.994805 0.922130
vt 0.994805 0.922130
vt 0.010438 0.922130
vt 0.029828 0.431879
vt 0.473658 0.431878
vt 0.473658 0.534017
vt 0.029828 0.534017
vt 0.886821 0.924739
vt 0.886821 0.821841
vt 0.998727 0.821841
vt 0.998727 0.924739
vt 0.774916 0.924739
vt 0.774916 0.821841
vt 0.472966 0.533261
vt 0.030519 0.533261
vt 0.030519 0.432635
vt 0.472966 0.432635
vt 0.010438 0.922130
vt 0.994805 0.922130
vt 0.774916 0.821841
vt 0.774916 0.924739
vt 0.026363 0.537810
vt 0.477123 0.537810
vt 0.497334 0.559933
vt 0.006151 0.559933
vt 0.477123 0.428085
vt 0.497334 0.405962
vt 0.026363 0.428085
vt 0.006151 0.405962
vt 0.026363 0.537810
vt 0.477123 0.537810
vt 0.497334 0.559933
vt 0.006151 0.559933
vt 0.026363 0.428085
vt 0.006151 0.405962
vt 0.477123 0.428085
vt 0.497334 0.405962
vt 0.656949 0.149925
vt 0.667077 0.179219
vt 0.658351 0.198103
vt 0.636815 0.151651
vt 0.721373 0.147367
vt 0.706678 0.191493
vt 0.693755 0.177597
vt 0.702452 0.148901
vt 0.671325 0.170893
vt 0.689478 0.169971
vt 0.653014 0.104858
vt 0.701979 0.103464
vt 0.692788 0.120963
vt 0.666041 0.119715
vt 0.694341 0.149053
vt 0.665473 0.149732
vt 0.688735 0.128021
vt 0.670670 0.127492
vt 0.750924 0.457644
vt 0.771106 0.458667
vt 0.751201 0.505842
vt 0.741822 0.487273
vt 0.686449 0.457332
vt 0.705412 0.458206
vt 0.715104 0.486581
vt 0.702673 0.500920
vt 0.719113 0.478811
vt 0.737287 0.479100
vt 0.753286 0.412468
vt 0.740785 0.427769
vt 0.714097 0.429948
vt 0.704303 0.412780
vt 0.713524 0.458075
vt 0.742398 0.457748
vt 0.718394 0.436861
vt 0.736429 0.435703
vt 0.656949 0.149925
vt 0.667077 0.179219
vt 0.658351 0.198103
vt 0.636815 0.151651
vt 0.721373 0.147367
vt 0.706678 0.191493
vt 0.693755 0.177597
vt 0.702452 0.148901
vt 0.671325 0.170893
vt 0.689478 0.169971
vt 0.653014 0.104858
vt 0.701979 0.103464
vt 0.692788 0.120963
vt 0.666041 0.119715
vt 0.694341 0.149053
vt 0.665473 0.149732
vt 0.688735 0.128021
vt 0.670670 0.127492
vt 0.750924 0.457644
vt 0.771106 0.458667
vt 0.751201 0.505842
vt 0.741822 0.487273
vt 0.686449 0.457332
vt 0.705412 0.458206
vt 0.715104 0.486581
vt 0.702673 0.500920
vt 0.719113 0.478811
vt 0.737287 0.479100
vt 0.753286 0.412468
vt 0.740785 0.427769
vt 0.714097 0.429948
vt 0.704303 0.412780
vt 0.713524 0.458075
vt 0.742398 0.457748
vt 0.718394 0.436861
vt 0.736429 0.435703
vt 0.779907 0.556737
vt 0.789806 0.556737
vt 0.789806 0.583282
vt 0.779907 0.583282
vt 0.779907 0.535966
vt 0.779907 0.454579
vt 0.789806 0.454579
vt 0.789806 0.535966
vt 0.779907 0.591292
vt 0.789806 0.591292
vt 0.789806 0.618264
vt 0.779907 0.618264
vt 0.779907 0.352421
vt 0.779907 0.325876
vt 0.789806 0.325876
vt 0.789806 0.352421
vt 0.779907 0.373192
vt 0.789806 0.373192
vt 0.779907 0.317866
vt 0.779907 0.290894
vt 0.789806 0.290894
vt 0.789806 0.317866
vt 0.853291 0.454579
vt 0.853291 0.535966
vt 0.843391 0.535966
vt 0.843391 0.454579
vt 0.853291 0.556737
vt 0.843391 0.556737
vt 0.843391 0.583282
vt 0.853291 0.583282
vt 0.853291 0.591292
vt 0.843391 0.591292
vt 0.853291 0.618264
vt 0.843391 0.618264
vt 0.843391 0.373192
vt 0.853291 0.373192
vt 0.843391 0.352421
vt 0.853291 0.352421
vt 0.843391 0.325876
vt 0.843391 0.317866
vt 0.853291 0.317866
vt 0.853291 0.325876
vt 0.843391 0.290894
vt 0.853291 0.290894
vt 0.805593 0.535966
vt 0.828511 0.535966
vt 0.828511 0.556737
vt 0.805593 0.556737
vt 0.805593 0.454579
vt 0.828511 0.454579
vt 0.805593 0.591292
vt 0.828511 0.591292
vt 0.828511 0.618264
vt 0.805593 0.618264
vt 0.828511 0.583282
vt 0.805593 0.583282
vt 0.805593 0.373192
vt 0.805593 0.352421
vt 0.828511 0.352421
vt 0.828511 0.373192
vt 0.805593 0.317866
vt 0.805593 0.290894
vt 0.828511 0.290894
vt 0.828511 0.317866
vt 0.805593 0.325876
vt 0.828511 0.325876
vt 0.840623 0.454579
vt 0.840623 0.535966
vt 0.832682 0.535966
vt 0.832682 0.454579
vt 0.832682 0.556737
vt 0.840623 0.556737
vt 0.832682 0.583282
vt 0.840623 0.583282
vt 0.832682 0.591292
vt 0.840623 0.591292
vt 0.832682 0.618264
vt 0.840623 0.618264
vt 0.832682 0.373192
vt 0.840623 0.373192
vt 0.832682 0.352421
vt 0.840623 0.352421
vt 0.832682 0.325876
vt 0.840623 0.325876
vt 0.832682 0.317866
vt 0.840623 0.317866
vt 0.832682 0.290894
vt 0.840623 0.290894
vt 0.792519 0.535966
vt 0.792519 0.454579
vt 0.800943 0.454579
vt 0.800943 0.535966
vt 0.800943 0.556737
vt 0.792519 0.556737
vt 0.800943 0.591292
vt 0.800943 0.618264
vt 0.792519 0.618264
vt 0.792519 0.591292
vt 0.800943 0.583282
vt 0.792519 0.583282
vt 0.792519 0.373192
vt 0.800943 0.373192
vt 0.792519 0.352421
vt 0.800943 0.352421
vt 0.800943 0.317866
vt 0.792519 0.317866
vt 0.792519 0.290894
vt 0.800943 0.290894
vt 0.792519 0.325876
vt 0.800943 0.325876
vt 0.779907 0.556737
vt 0.789806 0.556737
vt 0.789806 0.583282
vt 0.779907 0.583282
vt 0.779907 0.535966
vt 0.779907 0.454579
vt 0.789806 0.454579
vt 0.789806 0.535966
vt 0.779907 0.591292
vt 0.789806 0.591292
vt 0.789806 0.618264
vt 0.779907 0.618264
vt 0.779907 0.352421
vt 0.779907 0.325876
vt 0.789806 0.325876
vt 0.789806 0.352421
vt 0.779907 0.373192
vt 0.789806 0.373192
vt 0.779907 0.317866
vt 0.779907 0.290894
vt 0.789806 0.290894
vt 0.789806 0.317866
vt 0.853291 0.454579
vt 0.853291 0.535966
vt 0.843391 0.535966
vt 0.843391 0.454579
vt 0.853291 0.556737
vt 0.843391 0.556737
vt 0.843391 0.583282
vt 0.853291 0.583282
vt 0.853291 0.591292
vt 0.843391 0.591292
vt 0.853291 0.618264
vt 0.843391 0.618264
vt 0.843391 0.373192
vt 0.853291 0.373192
vt 0.843391 0.352421
vt 0.853291 0.352421
vt 0.843391 0.325876
vt 0.843391 0.317866
vt 0.853291 0.317866
vt 0.853291 0.325876
vt 0.843391 0.290894
vt 0.853291 0.290894
vt 0.805593 0.535966
vt 0.828511 0.535966
vt 0.828511 0.556737
vt 0.805593 0.556737
vt 0.805593 0.454579
vt 0.828511 0.454579
vt 0.805593 0.591292
vt 0.828511 0.591292
vt 0.828511 0.618264
vt 0.805593 0.618264
vt 0.828511 0.583282
vt 0.805593 0.583282
vt 0.805593 0.373192
vt 0.805593 0.352421
vt 0.828511 0.352421
vt 0.828511 0.373192
vt 0.805593 0.317866
vt 0.805593 0.290894
vt 0.828511 0.290894
vt 0.828511 0.317866
vt 0.805593 0.325876
vt 0.828511 0.325876
vt 0.840623 0.454579
vt 0.840623 0.535966
vt 0.832682 0.535966
vt 0.832682 0.454579
vt 0.832682 0.556737
vt 0.840623 0.556737
vt 0.832682 0.583282
vt 0.840623 0.583282
vt 0.832682 0.591292
vt 0.840623 0.591292
vt 0.832682 0.618264
vt 0.840623 0.618264
vt 0.832682 0.373192
vt 0.840623 0.373192
vt 0.832682 0.352421
vt 0.840623 0.352421
vt 0.832682 0.325876
vt 0.840623 0.325876
vt 0.832682 0.317866
vt 0.840623 0.317866
vt 0.832682 0.290894
vt 0.840623 0.290894
vt 0.792519 0.535966
vt 0.792519 0.454579
vt 0.800943 0.454579
vt 0.800943 0.535966
vt 0.800943 0.556737
vt 0.792519 0.556737
vt 0.800943 0.591292
vt 0.800943 0.618264
vt 0.792519 0.618264
vt 0.792519 0.591292
vt 0.800943 0.583282
vt 0.792519 0.583282
vt 0.792519 0.373192
vt 0.800943 0.373192
vt 0.792519 0.352421
vt 0.800943 0.352421
vt 0.800943 0.317866
vt 0.792519 0.317866
vt 0.792519 0.290894
vt 0.800943 0.290894
vt 0.792519 0.325876
vt 0.800943 0.325876
vn 0.0000 -1.0000 0.0000
vn 0.0000 1.0000 0.0000
vn 1.0000 0.0000 0.0000
vn 0.0000 0.0000 -1.0000
vn -0.0000 0.0000 1.0000
vn -1.0000 0.0000 -0.0000
vn -0.9188 0.0002 0.3948
vn -0.5870 0.6864 0.4293
vn -0.9914 0.1305 0.0000
vn 0.9914 0.1305 0.0000
vn 0.5870 0.6864 0.4293
vn 0.9188 0.0002 0.3948
vn -0.2810 0.2380 0.9297
vn 0.2810 0.2380 0.9297
vn 0.5919 -0.6884 0.4192
vn -0.5919 -0.6884 0.4192
vn 0.3819 0.0003 0.9242
vn 0.9914 -0.1305 0.0000
vn -0.9914 -0.1305 0.0000
vn -0.3819 0.0003 0.9242
vn 0.2794 -0.2591 0.9245
vn -0.2794 -0.2591 0.9245
vn 0.9187 0.0002 0.3948
vn -0.3820 0.0003 0.9242
vn 0.2149 -0.9766 -0.0000
vn 0.2148 -0.9767 -0.0000
vn 0.2150 -0.9766 0.0000
vn -0.2149 -0.9766 0.0000
vn -0.2148 -0.9767 0.0000
vn -0.2150 -0.9766 0.0000
vn 0.2149 0.9766 0.0000
vn 0.2150 0.9766 0.0000
vn 0.2148 0.9767 0.0000
vn -0.2150 0.9766 0.0000
vn -0.2149 0.9766 0.0000
vn -0.2148 0.9767 0.0000
vn -0.7868 0.0000 0.6172
vn -0.9402 0.0000 0.3405
vn -0.2898 0.0000 0.9571
vn 0.7868 0.0000 0.6172
vn 0.9402 0.0000 0.3405
vn 0.2898 0.0000 0.9571
vn 0.0000 0.7092 0.7050
vn 0.1717 0.6983 0.6949
vn 0.1412 0.7018 0.6982
vn 0.1720 0.6976 0.6955
vn 0.1416 0.7009 0.6990
vn -0.2061 0.7425 0.6373
vn -0.1745 0.7395 0.6502
vn -0.5142 0.7512 0.4140
vn -0.5271 0.7502 0.3991
vn -0.6498 0.7227 0.2354
vn -0.1412 0.7018 0.6982
vn -0.1717 0.6983 0.6949
vn -0.1720 0.6976 0.6955
vn -0.1416 0.7009 0.6990
vn 0.2061 0.7425 0.6373
vn 0.1745 0.7395 0.6502
vn 0.5142 0.7512 0.4140
vn 0.5271 0.7502 0.3991
vn 0.6498 0.7227 0.2354
vn 0.1627 -0.6571 0.7360
vn 0.0000 -0.6664 0.7456
vn 0.1322 -0.6602 0.7394
vn 0.1631 -0.6563 0.7367
vn 0.1326 -0.6592 0.7402
vn -0.5482 -0.7107 0.4409
vn -0.6891 -0.6803 0.2496
vn -0.5611 -0.7097 0.4259
vn -0.2187 -0.7014 0.6784
vn -0.1870 -0.6984 0.6908
vn -0.1627 -0.6571 0.7360
vn -0.1322 -0.6602 0.7394
vn -0.1326 -0.6592 0.7402
vn -0.1631 -0.6563 0.7367
vn 0.5482 -0.7107 0.4409
vn 0.5611 -0.7097 0.4259
vn 0.6891 -0.6803 0.2496
vn 0.1870 -0.6984 0.6908
vn 0.2187 -0.7014 0.6784
vn 0.1717 0.6984 0.6949
vn -0.2061 0.7425 0.6374
vn -0.1717 0.6984 0.6949
vn -0.1870 -0.6984 0.6909
usemtl MI_Trim_Furniture
s off
f 221/1/1 222/2/1 1/3/1 2/4/1
f 217/5/2 6/6/2 5/7/2 218/8/2
f 223/9/3 9/10/3 6/11/3 217/12/3
f 9/13/4 11/14/4 5/15/4 6/16/4
f 12/17/5 10/18/5 8/19/5 7/20/5
f 11/21/6 224/22/6 218/23/6 5/24/6
f 1/25/6 222/26/6 224/22/6 11/21/6
f 4/27/5 3/28/5 219/29/5 220/30/5
f 2/31/4 1/32/4 11/14/4 9/13/4
f 221/33/3 2/34/3 9/10/3 223/9/3
f 226/35/5 225/36/5 217/37/5 218/38/5
f 225/36/5 227/39/5 223/40/5 217/37/5
f 228/41/5 226/35/5 218/38/5 224/42/5
f 227/39/5 228/41/5 224/42/5 223/40/5
f 229/43/5 230/44/5 222/45/5 221/46/5
f 231/47/5 229/43/5 221/46/5 223/48/5
f 230/44/5 232/49/5 224/50/5 222/45/5
f 232/49/5 231/47/5 223/48/5 224/50/5
f 7/20/5 8/19/5 225/36/5 226/35/5
f 8/19/5 10/18/5 227/39/5 225/36/5
f 12/17/5 7/20/5 226/35/5 228/41/5
f 10/18/5 12/17/5 228/41/5 227/39/5
f 3/28/5 4/27/5 230/44/5 229/43/5
f 219/29/5 3/28/5 229/43/5 231/47/5
f 4/27/5 220/30/5 232/49/5 230/44/5
f 220/30/5 219/29/5 231/47/5 232/49/5
usemtl MI_Trim_Metal
s 11
f 21/51/7 14/52/8 16/53/9 22/54/6
f 23/55/3 20/56/10 18/57/11 24/58/12
f 18/57/11 14/52/8 26/59/13 30/60/14
f 15/61/1 19/62/1 17/63/15 13/64/16
f 20/56/2 16/53/2 14/52/8 18/57/11
f 24/58/12 18/57/11 30/60/14 27/65/17
f 19/62/18 23/55/3 24/58/12 17/63/15
f 13/64/16 21/51/7 22/54/6 15/61/19
f 27/65/17 30/60/14 26/59/13 25/66/20
f 28/67/21 27/65/17 25/66/20 29/68/22
f 17/63/15 24/58/12 27/65/17 28/67/21
f 21/51/7 13/64/16 29/68/22 25/66/20
f 14/52/8 21/51/7 25/66/20 26/59/13
f 13/64/16 17/63/15 28/67/21 29/68/22
s 12
f 39/69/23 40/70/3 34/71/10 32/72/11
f 41/73/6 42/74/7 36/75/8 38/76/9
f 36/75/8 48/77/13 44/78/14 32/72/11
f 33/79/1 31/80/15 35/81/16 37/82/1
f 38/76/2 36/75/8 32/72/11 34/71/2
f 42/74/7 45/83/24 48/77/13 36/75/8
f 37/82/19 35/81/16 42/74/7 41/73/6
f 31/80/15 33/79/18 40/70/3 39/69/23
f 45/83/24 43/84/17 44/78/14 48/77/13
f 46/85/22 47/86/21 43/84/17 45/83/24
f 35/81/16 46/85/22 45/83/24 42/74/7
f 39/69/23 43/84/17 47/86/21 31/80/15
f 32/72/11 44/78/14 43/84/17 39/69/23
f 31/80/15 47/86/21 46/85/22 35/81/16
s 13
f 57/87/7 50/88/8 52/89/9 58/90/6
f 59/91/3 56/92/10 54/93/11 60/94/12
f 54/93/11 50/88/8 62/95/13 66/96/14
f 51/97/1 55/98/1 53/99/15 49/100/16
f 56/92/2 52/89/2 50/88/8 54/93/11
f 60/94/12 54/93/11 66/96/14 63/101/17
f 55/98/18 59/91/3 60/94/12 53/99/15
f 49/100/16 57/87/7 58/90/6 51/97/19
f 63/101/17 66/96/14 62/95/13 61/102/20
f 64/103/21 63/101/17 61/102/20 65/104/22
f 53/99/15 60/94/12 63/101/17 64/103/21
f 57/87/7 49/100/16 65/104/22 61/102/20
f 50/88/8 57/87/7 61/102/20 62/95/13
f 49/100/16 53/99/15 64/103/21 65/104/22
s 14
f 75/105/23 76/106/3 70/107/10 68/108/11
f 77/109/6 78/110/7 72/111/8 74/112/9
f 72/111/8 84/113/13 80/114/14 68/108/11
f 69/115/1 67/116/15 71/117/16 73/118/1
f 74/112/2 72/111/8 68/108/11 70/107/2
f 78/110/7 81/119/24 84/113/13 72/111/8
f 73/118/19 71/117/16 78/110/7 77/109/6
f 67/116/15 69/115/18 76/106/3 75/105/23
f 81/119/24 79/120/17 80/114/14 84/113/13
f 82/121/22 83/122/21 79/120/17 81/119/24
f 71/117/16 82/121/22 81/119/24 78/110/7
f 75/105/23 79/120/17 83/122/21 67/116/15
f 68/108/11 80/114/14 79/120/17 75/105/23
f 67/116/15 83/122/21 82/121/22 71/117/16
s 15
f 87/123/25 100/124/26 110/125/1 92/126/1
f 85/127/25 117/128/1 132/129/1 96/130/27
f 94/131/1 111/132/1 103/133/1 89/134/1
f 92/126/1 110/125/1 111/132/1 94/131/1
f 85/127/25 96/130/27 100/124/26 87/123/25
f 119/135/28 124/136/1 146/137/1 136/138/29
f 115/139/28 128/140/30 132/129/1 117/128/1
f 126/141/1 121/142/1 139/143/1 147/144/1
f 124/136/1 126/141/1 147/144/1 146/137/1
f 115/139/28 119/135/28 136/138/29 128/140/30
s 16
f 118/145/2 86/146/31 97/147/32 133/148/2
f 97/147/32 86/146/31 88/149/31 101/150/33
f 107/151/2 91/152/2 93/153/2 113/154/2
f 113/154/2 93/153/2 90/155/2 106/156/2
f 101/150/33 88/149/31 91/152/2 107/151/2
f 118/145/2 133/148/2 129/157/34 116/158/35
f 129/157/34 137/159/36 120/160/35 116/158/35
f 143/161/2 149/162/2 125/163/2 123/164/2
f 149/162/2 142/165/2 122/166/2 125/163/2
f 137/159/36 143/161/2 123/164/2 120/160/35
s 17
f 95/167/5 98/168/5 102/169/5 99/170/5
f 131/171/5 134/172/5 98/168/5 95/167/5
f 112/173/37 114/174/37 105/175/38 104/176/38
f 99/170/5 102/169/5 108/177/39 109/178/39
f 109/178/39 108/177/39 114/174/37 112/173/37
f 127/179/5 135/180/5 138/181/5 130/182/5
f 131/171/5 127/179/5 130/182/5 134/172/5
f 148/183/40 140/184/41 141/185/41 150/186/40
f 135/180/5 145/187/42 144/188/42 138/181/5
f 145/187/42 148/183/40 150/186/40 144/188/42
s 18
f 133/189/43 97/190/44 98/191/45 134/192/43
f 102/193/46 98/191/45 97/190/44 101/194/47
f 108/195/48 102/193/46 101/194/47 107/196/49
f 114/197/50 108/195/48 107/196/49 113/198/51
f 105/199/52 114/197/50 113/198/51 106/200/52
f 133/189/43 134/192/43 130/201/53 129/202/54
f 138/203/55 137/204/56 129/202/54 130/201/53
f 144/205/57 143/206/58 137/204/56 138/203/55
f 150/207/59 149/208/60 143/206/58 144/205/57
f 141/209/61 142/210/61 149/208/60 150/207/59
s 19
f 96/211/62 132/212/63 131/213/63 95/214/64
f 95/214/64 99/215/65 100/216/66 96/211/62
f 112/217/67 104/218/68 103/219/68 111/220/69
f 99/215/65 109/221/70 110/222/71 100/216/66
f 109/221/70 112/217/67 111/220/69 110/222/71
f 128/223/72 127/224/73 131/213/63 132/212/63
f 127/224/73 128/223/72 136/225/74 135/226/75
f 148/227/76 147/228/77 139/229/78 140/230/78
f 135/226/75 136/225/74 146/231/79 145/232/80
f 145/232/80 146/231/79 147/228/77 148/227/76
s 20
f 153/233/25 166/234/26 176/235/1 158/236/1
f 151/237/25 183/238/1 198/239/1 162/240/27
f 160/241/1 177/242/1 169/243/1 155/244/1
f 158/236/1 176/235/1 177/242/1 160/241/1
f 151/237/25 162/240/27 166/234/26 153/233/25
f 185/245/28 190/246/1 212/247/1 202/248/29
f 181/249/28 194/250/30 198/239/1 183/238/1
f 192/251/1 187/252/1 205/253/1 213/254/1
f 190/246/1 192/251/1 213/254/1 212/247/1
f 181/249/28 185/245/28 202/248/29 194/250/30
s 21
f 184/255/2 152/256/31 163/257/32 199/258/2
f 163/257/32 152/256/31 154/259/31 167/260/33
f 173/261/2 157/262/2 159/263/2 179/264/2
f 179/264/2 159/263/2 156/265/2 172/266/2
f 167/260/33 154/259/31 157/262/2 173/261/2
f 184/255/2 199/258/2 195/267/34 182/268/35
f 195/267/34 203/269/36 186/270/35 182/268/35
f 209/271/2 215/272/2 191/273/2 189/274/2
f 215/272/2 208/275/2 188/276/2 191/273/2
f 203/269/36 209/271/2 189/274/2 186/270/35
s 22
f 161/277/5 164/278/5 168/279/5 165/280/5
f 197/281/5 200/282/5 164/278/5 161/277/5
f 178/283/37 180/284/37 171/285/38 170/286/38
f 165/280/5 168/279/5 174/287/39 175/288/39
f 175/288/39 174/287/39 180/284/37 178/283/37
f 193/289/5 201/290/5 204/291/5 196/292/5
f 197/281/5 193/289/5 196/292/5 200/282/5
f 214/293/40 206/294/41 207/295/41 216/296/40
f 201/290/5 211/297/42 210/298/42 204/291/5
f 211/297/42 214/293/40 216/296/40 210/298/42
s 23
f 199/299/43 163/300/81 164/301/45 200/302/43
f 168/303/46 164/301/45 163/300/81 167/304/47
f 174/305/82 168/303/46 167/304/47 173/306/49
f 180/307/50 174/305/82 173/306/49 179/308/51
f 171/309/52 180/307/50 179/308/51 172/310/52
f 199/299/43 200/302/43 196/311/53 195/312/83
f 204/313/55 203/314/56 195/312/83 196/311/53
f 210/315/57 209/316/58 203/314/56 204/313/55
f 216/317/59 215/318/60 209/316/58 210/315/57
f 207/319/61 208/320/61 215/318/60 216/317/59
s 24
f 162/321/62 198/322/63 197/323/63 161/324/64
f 161/324/64 165/325/65 166/326/66 162/321/62
f 178/327/67 170/328/68 169/329/68 177/330/69
f 165/325/65 175/331/70 176/332/84 166/326/66
f 175/331/70 178/327/67 177/330/69 176/332/84
f 194/333/72 193/334/73 197/323/63 198/322/63
f 193/334/73 194/333/72 202/335/74 201/336/75
f 214/337/76 213/338/77 205/339/78 206/340/78
f 201/336/75 202/335/74 212/341/79 211/342/80
f 211/342/80 212/341/79 213/338/77 214/337/76
