{
    "asset" : {
        "generator" : "Khronos glTF Blender I/O v3.4.50",
        "version" : "2.0"
    },
    "scene" : 0,
    "scenes" : [
        {
            "name" : "Scene",
            "nodes" : [
                0
            ]
        }
    ],
    "nodes" : [
        {
            "mesh" : 0,
            "name" : "PlantWarrior_Bow_withString"
        }
    ],
    "materials" : [
        {
            "name" : "plantcreatures",
            "pbrMetallicRoughness" : {
                "baseColorTexture" : {
                    "index" : 0
                },
                "metallicFactor" : 0,
                "roughnessFactor" : 0.5
            }
        }
    ],
    "meshes" : [
        {
            "extras" : {
                "targetNames" : [
                    "Draw"
                ]
            },
            "name" : "PlantWarrior_Bow_withString",
            "primitives" : [
                {
                    "attributes" : {
                        "POSITION" : 0,
                        "TEXCOORD_0" : 1,
                        "NORMAL" : 2
                    },
                    "indices" : 3,
                    "material" : 0,
                    "targets" : [
                        {
                            "POSITION" : 4,
                            "NORMAL" : 5
                        }
                    ]
                }
            ],
            "weights" : [
                0
            ]
        }
    ],
    "textures" : [
        {
            "sampler" : 0,
            "source" : 0
        }
    ],
    "images" : [
        {
            "mimeType" : "image/png",
            "name" : "plantcreatures_texture",
            "uri" : "plantcreatures_texture.png"
        }
    ],
    "accessors" : [
        {
            "bufferView" : 0,
            "componentType" : 5126,
            "count" : 716,
            "max" : [
                0.17703387141227722,
                0.12055571377277374,
                1.0410484075546265
            ],
            "min" : [
                -0.4050094783306122,
                -0.12059564888477325,
                -1.0410484075546265
            ],
            "type" : "VEC3"
        },
        {
            "bufferView" : 1,
            "componentType" : 5126,
            "count" : 716,
            "type" : "VEC2"
        },
        {
            "bufferView" : 2,
            "componentType" : 5126,
            "count" : 716,
            "type" : "VEC3"
        },
        {
            "bufferView" : 3,
            "componentType" : 5123,
            "count" : 2244,
            "type" : "SCALAR"
        },
        {
            "bufferView" : 4,
            "componentType" : 5126,
            "count" : 716,
            "max" : [
                0,
                7.93545495980652e-09,
                0.18154197931289673
            ],
            "min" : [
                -0.5229882001876831,
                -1.4901161193847656e-08,
                -0.18154191970825195
            ],
            "type" : "VEC3"
        },
        {
            "bufferView" : 5,
            "componentType" : 5126,
            "count" : 716,
            "type" : "VEC3"
        }
    ],
    "bufferViews" : [
        {
            "buffer" : 0,
            "byteLength" : 8592,
            "byteOffset" : 0,
            "target" : 34962
        },
        {
            "buffer" : 0,
            "byteLength" : 5728,
            "byteOffset" : 8592,
            "target" : 34962
        },
        {
            "buffer" : 0,
            "byteLength" : 8592,
            "byteOffset" : 14320,
            "target" : 34962
        },
        {
            "buffer" : 0,
            "byteLength" : 4488,
            "byteOffset" : 22912,
            "target" : 34963
        },
        {
            "buffer" : 0,
            "byteLength" : 8592,
            "byteOffset" : 27400,
            "target" : 34962
        },
        {
            "buffer" : 0,
            "byteLength" : 8592,
            "byteOffset" : 35992,
            "target" : 34962
        }
    ],
    "samplers" : [
        {
            "magFilter" : 9729,
            "minFilter" : 9987
        }
    ],
    "buffers" : [
        {
            "byteLength" : 44584,
            "uri" : "PlantWarrior_Bow_withString.bin"
        }
    ]
}
